<svg id="svg176769" xmlns="http://www.w3.org/2000/svg" viewBox="0 0 283.5 904.3"><defs><style>.cls-1,.cls-10{fill:none;}.cls-1,.cls-13,.cls-2,.cls-3,.cls-5,.cls-8{stroke:#000;}.cls-1,.cls-2,.cls-5{stroke-miterlimit:10;}.cls-13,.cls-15,.cls-16,.cls-3,.cls-6,.cls-8{fill:#fff;}.cls-11,.cls-12,.cls-15,.cls-16,.cls-4,.cls-6,.cls-7{isolation:isolate;}.cls-14,.cls-4,.cls-6{font-size:12px;}.cls-11,.cls-12,.cls-14,.cls-4,.cls-6,.cls-7{font-family:ArialMT, Arial;}.cls-5{fill:#24ad62;}.cls-7{font-size:11px;}.cls-8{stroke-dasharray:3 3;}.cls-9{letter-spacing:-0.02em;}.cls-11{font-size:10px;}.cls-12{font-size:9px;}.cls-13{stroke-dasharray:1 1;}.cls-15{font-size:14px;}.cls-15,.cls-16{font-family:Arial-BoldMT, Arial;font-weight:700;}.cls-16{font-size:9.17px;}.cls-17{letter-spacing:-0.02em;}</style></defs><title>id_pipeline</title><g id="g176759"><path id="path176427" class="cls-1" d="M62.5,256.5v10h80v12.1" transform="translate(0.5 -2.7)"/><path id="path176429" class="cls-2" d="M142.5,285.4l-4.5-9,4.5,2.3,4.5-2.3Z" transform="translate(0.5 -2.7)"/><path id="path176431" class="cls-1" d="M62.5,210.1V168.5" transform="translate(0.5 -2.7)"/><path id="path176433" class="cls-2" d="M62.5,215.4l-3.5-7,3.5,1.8,3.5-1.8Z" transform="translate(0.5 -2.7)"/><path id="rect176435" class="cls-3" d="M27.9,216.5H98.4c2.2,0,3.9,2.7,3.9,6v28c0,3.3-1.8,6-3.9,6H27.9c-2.2,0-3.9-2.7-3.9-6v-28C24,219.2,25.7,216.5,27.9,216.5Z" transform="translate(0.5 -2.7)"/><g id="g176441"><text id="text176437" class="cls-4" transform="translate(37.16 237.3)">ID Comet</text></g><path id="path176443" class="cls-1" d="M142.5,316.5v14.15h-80V389.5" transform="translate(0.5 -2.7)"/><path id="path176445" class="cls-2" d="M64,343.5l-3.5-7,3.5,1.8,3.5-1.8Z" transform="translate(0.5 -2.7)"/><path id="path176447" class="cls-5" d="M142.5,286.5l22.5,15-22.5,15-22.5-15Z" transform="translate(0.5 -2.7)"/><g id="g176453"><text id="text176449" class="cls-6" transform="translate(133.17 300.3)">mix</text></g><path id="path176455" class="cls-1" d="M142.5,502.5v24h-82v12.6" transform="translate(0.5 -2.7)"/><path id="path176457" class="cls-2" d="M60.5,544.4l-3.5-7,3.5,1.8,3.5-1.8Z" transform="translate(0.5 -2.7)"/><g id="g176463"><text id="text176459" class="cls-7" transform="translate(61.26 518.3)">if multi-engine</text></g><path id="path176465" class="cls-1" d="M142.5,502.5v24h80v43.6" transform="translate(0.5 -2.7)"/><path id="path176467" class="cls-2" d="M222.5,575.4l-3.5-7,3.5,1.8,3.5-1.8Z" transform="translate(0.5 -2.7)"/><g id="g176473"><text id="text176469" class="cls-7" transform="translate(155.5 519.3)">if single-engine</text></g><path id="path176475" class="cls-5" d="M142.5,466.5l27.5,18-27.5,18-27.5-18Z" transform="translate(0.5 -2.7)"/><g id="g176481"><text id="text176477" class="cls-6" transform="translate(125.49 485.3)">merge</text></g><path id="path176483" class="cls-1" d="M62.5,414.5v42h80v3.6" transform="translate(0.5 -2.7)"/><path id="path176485" class="cls-2" d="M142.5,465.4l-3.5-7,3.5,1.8,3.5-1.8Z" transform="translate(0.5 -2.7)"/><path id="rect176487" class="cls-3" d="M10,399H118a6,6,0,0,1,6,6v28a6,6,0,0,1-6,6H10a6,6,0,0,1-6-6V405A6,6,0,0,1,10,399Z" transform="translate(0.5 -2.7)"/><g id="g176493"><text id="text176489" class="cls-4" transform="translate(37.16 418.8)">Percolator</text></g><path id="path176495" class="cls-1" d="M222.5,256.5v10h-80v13.6" transform="translate(0.5 -2.7)"/><path id="path176497" class="cls-2" d="M142.5,285.4l-3.5-7,3.5,1.8,3.5-1.8Z" transform="translate(0.5 -2.7)"/><path id="rect176499" class="cls-3" d="M191.8,216.5h61.8c1.9,0,3.4,2.7,3.4,6v28c0,3.3-1.5,6-3.4,6H191.8c-1.9,0-3.4-2.7-3.4-6v-28C188.3,219.2,189.9,216.5,191.8,216.5Z" transform="translate(0.5 -2.7)"/><g id="g176505"><text id="text176501" class="cls-4" transform="translate(197.5 237.3)">ID MSGF</text></g><path id="path176507" class="cls-1" d="M222.5,384.5v10.6" transform="translate(0.5 -2.7)"/><path id="path176509" class="cls-2" d="M222.5,400.4l-3.5-7,3.5,1.8,3.5-1.8Z" transform="translate(0.5 -2.7)"/><path id="rect176511" class="cls-8" d="M168.5,344.5h108a6,6,0,0,1,6,6v28a6,6,0,0,1-6,6h-108a6,6,0,0,1-6-6v-28A6,6,0,0,1,168.5,344.5Z" transform="translate(0.5 -2.7)"/><g id="g176517"><text id="text176513" class="cls-4" transform="translate(210.17 365.3)">FDR</text></g><path id="path176519" class="cls-1" d="M222.5,441.5v15h-80v3.6" transform="translate(0.5 -2.7)"/><path id="path176521" class="cls-2" d="M142.5,465.4l-3.5-7,3.5,1.8,3.5-1.8Z" transform="translate(0.5 -2.7)"/><path id="rect176523" class="cls-3" d="M168.5,401.5h108a6,6,0,0,1,6,6v28a6,6,0,0,1-6,6h-108a6,6,0,0,1-6-6v-28A6,6,0,0,1,168.5,401.5Z" transform="translate(0.5 -2.7)"/><g id="g176529"><text class="cls-4" transform="translate(175 416.27)">Distribution-based</text><text class="cls-4" transform="translate(211.36 431.27)">PE<tspan class="cls-9" x="16.01" y="0">P</tspan></text></g><path id="path176531" class="cls-1" d="M60,585.5v15.6" transform="translate(0.5 -2.7)"/><path id="path176533" class="cls-2" d="M60,606.4l-3.5-7,3.5,1.8,3.5-1.8Z" transform="translate(0.5 -2.7)"/><path id="rect176535" class="cls-3" d="M6,545.5H114a6,6,0,0,1,6,6v28a6,6,0,0,1-6,6H6a6,6,0,0,1-6-6v-28A6,6,0,0,1,6,545.5Z" transform="translate(0.5 -2.7)"/><g id="g176541"><text id="text176537" class="cls-4" transform="translate(24.48 566.3)">ConsensusID</text></g><path id="path176543" class="cls-1" d="M141.5,764.5v5.6" transform="translate(0.5 -2.7)"/><path id="path176545" class="cls-2" d="M141.5,775.4l-3.5-7,3.5,1.8,3.5-1.8Z" transform="translate(0.5 -2.7)"/><path id="rect176547" class="cls-8" d="M87.5,724.5h108a6,6,0,0,1,6,6v28a6,6,0,0,1-6,6H87.5a6,6,0,0,1-6-6v-28A6,6,0,0,1,87.5,724.5Z" transform="translate(0.5 -2.7)"/><g id="g176553"><text id="text176549" class="cls-4" transform="translate(118.48 745.3)">Luciphor</text></g><path id="path176555" class="cls-1" d="M60,647.5v9h81.5v6.6" transform="translate(0.5 -2.7)"/><path id="path176557" class="cls-2" d="M141.5,668.4l-3.5-7,3.5,1.8,3.5-1.8Z" transform="translate(0.5 -2.7)"/><path id="rect176559" class="cls-3" d="M6,607.5H114a6,6,0,0,1,6,6v28a6,6,0,0,1-6,6H6a6,6,0,0,1-6-6v-28A6,6,0,0,1,6,607.5Z" transform="translate(0.5 -2.7)"/><g id="g176565"><text id="text176561" class="cls-4" transform="translate(20.49 628.3)">combined FDR</text></g><path id="path176567" class="cls-1" d="M141.5,836.5v10h-79v13.6" transform="translate(0.5 -2.7)"/><path id="path176569" class="cls-2" d="M62.5,865.4l-3.5-7,3.5,1.8,3.5-1.8Z" transform="translate(0.5 -2.7)"/><path id="path176571" class="cls-1" d="M141.5,836.5v10h81v13.6" transform="translate(0.5 -2.7)"/><path id="path176573" class="cls-2" d="M222.5,865.4l-3.5-7,3.5,1.8,3.5-1.8Z" transform="translate(0.5 -2.7)"/><path id="rect176575" class="cls-3" d="M80.5,776.5h122a9,9,0,0,1,9,9v42a9,9,0,0,1-9,9H80.5a9,9,0,0,1-9-9v-42A9,9,0,0,1,80.5,776.5Z" transform="translate(0.5 -2.7)"/><g id="g176581"><text id="text176577" class="cls-4" transform="translate(94.64 807.3)">Quantification +...</text></g><path id="path176583" class="cls-1" d="M222.5,616.5v40h-81v6.6" transform="translate(0.5 -2.7)"/><path id="path176585" class="cls-2" d="M141.5,668.4l-3.5-7,3.5,1.8,3.5-1.8Z" transform="translate(0.5 -2.7)"/><path id="rect176587" class="cls-3" d="M168.5,576.5h108a6,6,0,0,1,6,6v28a6,6,0,0,1-6,6h-108a6,6,0,0,1-6-6v-28A6,6,0,0,1,168.5,576.5Z" transform="translate(0.5 -2.7)"/><g id="g176593"><text class="cls-4" transform="translate(198.16 592.13)">Switch to</text><text class="cls-4" transform="translate(188.82 607.13)">q-value/FDR</text></g><path id="path176595" class="cls-1" d="M141.5,709.5v8.6" transform="translate(0.5 -2.7)"/><path id="path176597" class="cls-2" d="M141.5,723.4l-3.5-7,3.5,1.8,3.5-1.8Z" transform="translate(0.5 -2.7)"/><path id="rect176599" class="cls-3" d="M87.5,669.5h108a6,6,0,0,1,6,6v28a6,6,0,0,1-6,6H87.5a6,6,0,0,1-6-6v-28A6,6,0,0,1,87.5,669.5Z" transform="translate(0.5 -2.7)"/><g id="g176605"><text id="text176601" class="cls-4" transform="translate(122.17 690.3)">IDFilter</text></g><path id="rect176607" class="cls-3" d="M8.5,866.5h108a6,6,0,0,1,6,6v28a6,6,0,0,1-6,6H8.5a6,6,0,0,1-6-6v-28A6,6,0,0,1,8.5,866.5Z" transform="translate(0.5 -2.7)"/><g id="g176613"><text id="text176609" class="cls-4" transform="translate(40.83 887.3)">MSstats</text></g><path id="rect176615" class="cls-3" d="M168.5,866.5h108a6,6,0,0,1,6,6v28a6,6,0,0,1-6,6h-108a6,6,0,0,1-6-6v-28A6,6,0,0,1,168.5,866.5Z" transform="translate(0.5 -2.7)"/><g id="g176621"><text id="text176617" class="cls-4" transform="translate(196.83 887.3)">PMultiQC</text></g><path id="path176623" class="cls-1" d="M62.5,168.5q0,24,65,24t65,17.6" transform="translate(0.5 -2.7)"/><path id="path176625" class="cls-2" d="M192.5,215.4l-3.5-7,3.5,1.8,3.5-1.8Z" transform="translate(0.5 -2.7)"/><path id="rect176627" class="cls-8" d="M8.5,128.5h108a6,6,0,0,1,6,6v28a6,6,0,0,1-6,6H8.5a6,6,0,0,1-6-6v-28A6,6,0,0,1,8.5,128.5Z" transform="translate(0.5 -2.7)"/><g id="g176633"><text class="cls-4" transform="translate(41.16 142.41)">Raw file</text><text class="cls-4" transform="translate(26.82 157.41)">conversion/...</text></g><path id="path176635" class="cls-1" d="M222.5,168.5v41.6" transform="translate(0.5 -2.7)"/><path id="path176637" class="cls-2" d="M222.5,215.4l-3.5-7,3.5,1.8,3.5-1.8Z" transform="translate(0.5 -2.7)"/><path id="path176639" class="cls-1" d="M222.5,168.5q0,24-65,24t-65,17.6" transform="translate(0.5 -2.7)"/><path id="path176641" class="cls-2" d="M92.5,215.4l-3.5-7,3.5,1.8,3.5-1.8Z" transform="translate(0.5 -2.7)"/><path id="path176643" class="cls-1" d="M102.5,102.5c-26.7,0-40,4-40,12v6.6" transform="translate(0.5 -2.7)"/><path id="path176645" class="cls-2" d="M62.5,126.4l-3.5-7,3.5,1.8,3.5-1.8Z" transform="translate(0.5 -2.7)"/><path id="path176647" class="cls-1" d="M247.5,103c-16.7,0-25,2.3-25,6.8v12.4" transform="translate(0.5 -2.7)"/><path id="path176649" class="cls-2" d="M222.5,127.4l-3.5-7,3.5,1.8,3.5-1.8Z" transform="translate(0.5 -2.7)"/><rect id="rect176651" class="cls-10" x="154" y="335.8" width="81" height="6"/><g id="g176657"><text id="text176653" class="cls-11" transform="translate(161.99 337.3)">if !multi-engine</text></g><path id="path176659" class="cls-1" d="M142.5,316.5v10h80v11.6" transform="translate(0.5 -2.7)"/><path id="path176661" class="cls-2" d="M222.5,343.4l-3.5-7,3.5,1.8,3.5-1.8Z" transform="translate(0.5 -2.7)"/><rect id="rect176663" class="cls-10" x="79" y="713.8" width="60" height="10"/><g id="g176669"><text id="text176665" class="cls-11" transform="translate(87.94 717.3)">if localize</text></g><rect id="rect176671" class="cls-10" x="3" y="114.8" width="60" height="20"/><g id="g176677"><text id="text176673" class="cls-12" transform="translate(8.49 121.3)">if necessary</text></g><path id="rect176679" class="cls-8" d="M168.5,128.5h108a6,6,0,0,1,6,6v28a6,6,0,0,1-6,6h-108a6,6,0,0,1-6-6v-28A6,6,0,0,1,168.5,128.5Z" transform="translate(0.5 -2.7)"/><g id="g176685"><text id="text176681" class="cls-4" transform="translate(175.47 149.3)">Decoy generation</text></g><rect id="rect176687" class="cls-10" x="163" y="114.8" width="60" height="20"/><g id="g176693"><text id="text176689" class="cls-12" transform="translate(168.98 121.3)">if requested</text></g><path id="rect176695" class="cls-3" d="M223,17h49a10.5,10.5,0,0,1,10.5,10.5v65A10.5,10.5,0,0,1,272,103H223a10.5,10.5,0,0,1-10.5-10.5v-65A10.5,10.5,0,0,1,223,17Z" transform="translate(0.5 -2.7)"/><g id="g176701"><text id="text176697" class="cls-4" transform="translate(221.82 11.3)">Database</text></g><path id="rect176705" class="cls-3" d="M15.4,16.5H189.6a12.93,12.93,0,0,1,12.9,12.9V89.6a12.93,12.93,0,0,1-12.9,12.9H15.4A12.93,12.93,0,0,1,2.5,89.6V29.4A12.93,12.93,0,0,1,15.4,16.5Z" transform="translate(0.5 -2.7)"/><g id="g176711"><text id="text176707" class="cls-4" transform="translate(89.16 10.3)">Input</text></g><rect id="rect176715" class="cls-10" x="92.2" y="53.3" width="12.8" height="13.6"/><g id="g176721"><text id="text176717" class="cls-4" transform="translate(122.5 64.16)">+</text></g><g id="g176727"><text id="text176725" class="cls-4" transform="translate(143.54 35.57)">Design</text></g><rect id="rect176729" class="cls-13" x="24.7" y="39.1" width="77.9" height="46.7"/><g id="g176735"><text id="text176731" class="cls-4" transform="translate(42.82 35.3)">Spectra</text></g><rect id="rect176739" class="cls-10" x="46.6" y="55.9" width="14.2" height="12.3"/><g id="g176745"><text id="text176741" class="cls-4" transform="translate(58.17 65.3)">or</text></g><rect id="rect176749" class="cls-10" x="139.4" y="49.8" width="18.2" height="15"/><path id="rect176499-2" data-name="rect176499" class="cls-3" d="M112.1,216.5h61.8c1.9,0,3.4,2.7,3.4,6v28c0,3.3-1.5,6-3.4,6H112.1c-1.9,0-3.4-2.7-3.4-6v-28C108.7,219.2,110.2,216.5,112.1,216.5Z" transform="translate(0.5 -2.7)"/><text class="cls-4" transform="translate(123.88 237.3)">ID Sage</text><path id="rect176487-2" data-name="rect176487" class="cls-3" d="M10,344.5H118a6,6,0,0,1,6,6v28a6,6,0,0,1-6,6H10a6,6,0,0,1-6-6v-28A6,6,0,0,1,10,344.5Z" transform="translate(0.5 -2.7)"/><text class="cls-14" transform="translate(34.4 365.3)">MS2Rescore</text><path id="path176509-2" data-name="path176509" class="cls-2" d="M62.5,396.5l-3.5-7,3.5,1.8,3.5-1.8Z" transform="translate(0.5 -2.7)"/></g><path id="path5774-0-8" d="M267.8,48.9h-1.3V42.2a.91.91,0,0,0-.3-.7L256.2,29h0l-.2-.2a.1.1,0,0,1-.1-.1c-.1-.1-.1-.1-.2-.1H230.3a2.2,2.2,0,0,0-2.1,2.2V49h-1.3a3.12,3.12,0,0,0-3,3.2V68.7a3.06,3.06,0,0,0,3,3.2h1.3V83.2a2.14,2.14,0,0,0,2.1,2.2h34a2.2,2.2,0,0,0,2.1-2.2V71.9h1.3a3.12,3.12,0,0,0,3-3.2V52.1a2.92,2.92,0,0,0-2.9-3.2Zm-37.3-18h23.9V42.3a1,1,0,0,0,1,1.1h9.1V49h-34Zm34,51.6h-34V71.8h34V82.5Z" transform="translate(0.5 -2.7)"/><text class="cls-15" transform="translate(233.39 64.16) scale(0.89 1)">fasta</text><path id="path5774-0-8-2" data-name="path5774-0-8" d="M54.5,61.6h-.7V57.9a.6.6,0,0,0-.1-.4l-5.6-6.9h0l-.1-.1H33.9a1.2,1.2,0,0,0-1.1,1.2v10h-.7a1.69,1.69,0,0,0-1.6,1.8v9.1a1.69,1.69,0,0,0,1.6,1.8h.7v6.2a1.13,1.13,0,0,0,1.1,1.2H52.6a1.2,1.2,0,0,0,1.1-1.2V74.4h.7A1.69,1.69,0,0,0,56,72.6V63.5a1.6,1.6,0,0,0-1.5-1.9ZM33.9,51.7H47V58a.58.58,0,0,0,.6.6h5v3.1H33.9Zm-.5,26.4H53.2v6.2H33.4" transform="translate(0.5 -2.7)"/><text class="cls-16" transform="translate(31.32 68.61) scale(0.89 1)">mzM<tspan class="cls-17" x="20.37" y="0">L</tspan></text><polyline id="rect176739-2" data-name="rect176739" class="cls-10" points="102.9 67.6 88.7 67.6 88.7 55.3 102.9 55.3 102.9 67.6"/><path id="path5774-0-8-3" data-name="path5774-0-8" d="M96.5,61.1h-.7V57.4a.6.6,0,0,0-.1-.4l-5.6-6.9h0L90,50H76a1.2,1.2,0,0,0-1.1,1.2v10h-.7A1.69,1.69,0,0,0,72.6,63v9a1.69,1.69,0,0,0,1.6,1.8h.7V80A1.13,1.13,0,0,0,76,81.2H94.7A1.2,1.2,0,0,0,95.8,80V73.8h.7A1.69,1.69,0,0,0,98.1,72V62.9a1.63,1.63,0,0,0-1.6-1.8ZM76,51.2H89.1v6.3a.58.58,0,0,0,.6.6h5v3.1H76Zm-.6,26.3H95.2v6.2H75.4" transform="translate(0.5 -2.7)"/><text class="cls-16" transform="translate(77.92 68.06) scale(0.89 1)">raw</text><polyline id="rect176715-2" data-name="rect176715" class="cls-10" points="180.2 64.9 167.4 64.9 167.4 51.3 180.2 51.3"/><polyline id="rect176739-3" data-name="rect176739" class="cls-10" points="178.1 65.7 163.9 65.7 163.9 53.4 178.1 53.4"/><path id="path5774-0-8-4" data-name="path5774-0-8" d="M171.7,59.1H171V55.4a.6.6,0,0,0-.1-.4l-5.6-6.9h0l-.1-.1h-14a1.2,1.2,0,0,0-1.1,1.2v10h-.7a1.69,1.69,0,0,0-1.6,1.8v9a1.69,1.69,0,0,0,1.6,1.8h.7V78a1.13,1.13,0,0,0,1.1,1.2h18.7A1.2,1.2,0,0,0,171,78V71.8h.7a1.69,1.69,0,0,0,1.6-1.8V60.9a1.63,1.63,0,0,0-1.6-1.8Zm-20.5-9.9h13.1v6.3a.58.58,0,0,0,.6.6h5v3.1H151.2v-10Zm-.6,26.4h19.8v6.2H150.6" transform="translate(0.5 -2.7)"/><text class="cls-16" transform="translate(152.45 66.08) scale(0.89 1)">sdrf</text><path id="path176639-2" data-name="path176639" class="cls-1" d="M223.3,173.8c-14.3,28.6-81.2,29.7-81.2,41.4" transform="translate(0.5 -2.7)"/><path id="path176641-2" data-name="path176641" class="cls-2" d="M136.6,212.9l5.5,2.8,5.5-2.8" transform="translate(0.5 -2.7)"/><path id="path176623-2" data-name="path176623" class="cls-1" d="M59.2,147.4" transform="translate(0.5 -2.7)"/><path id="path176623-3" data-name="path176623" class="cls-1" d="M62.5,168.5c9.2,39.5,79.6,35,79.6,46.7" transform="translate(0.5 -2.7)"/><line class="cls-1" x1="143.2" y1="253.3" x2="143" y2="275.9"/></svg>