<?xml version="1.0" encoding="UTF-8" standalone="no"?>
<!-- Generator: Adobe Illustrator 24.0.1, SVG Export Plug-In . SVG Version: 6.00 Build 0)  -->

<svg
   version="1.1"
   id="图层_1"
   x="0px"
   y="0px"
   viewBox="0 0 1283 507"
   style="enable-background:new 0 0 1283 507;"
   xml:space="preserve"
   sodipodi:docname="quantms_metro.drawio.svg"
   inkscape:version="1.3.2 (091e20e, 2023-11-25)"
   xmlns:inkscape="http://www.inkscape.org/namespaces/inkscape"
   xmlns:sodipodi="http://sodipodi.sourceforge.net/DTD/sodipodi-0.dtd"
   xmlns:xlink="http://www.w3.org/1999/xlink"
   xmlns="http://www.w3.org/2000/svg"
   xmlns:svg="http://www.w3.org/2000/svg"><defs
   id="defs136" /><sodipodi:namedview
   id="namedview136"
   pagecolor="#ffffff"
   bordercolor="#000000"
   borderopacity="0.25"
   inkscape:showpageshadow="2"
   inkscape:pageopacity="0.0"
   inkscape:pagecheckerboard="0"
   inkscape:deskcolor="#d1d1d1"
   inkscape:zoom="0.93096647"
   inkscape:cx="641.80614"
   inkscape:cy="253.5"
   inkscape:window-width="2560"
   inkscape:window-height="1387"
   inkscape:window-x="0"
   inkscape:window-y="25"
   inkscape:window-maximized="1"
   inkscape:current-layer="g102" />
<style
   type="text/css"
   id="style1">
	.st0{fill:none;stroke:#53A567;stroke-width:10;stroke-miterlimit:10;}
	.st1{fill:none;}
	.st2{fill:none;stroke:#CDA2BE;stroke-width:0.5;stroke-linecap:round;stroke-linejoin:round;stroke-miterlimit:10;}
	.st3{fill:none;stroke:#9673A6;stroke-linecap:round;stroke-linejoin:round;stroke-miterlimit:10;stroke-dasharray:3,3;}
	.st4{enable-background:new    ;}
	.st5{font-family:'ArialMT';}
	.st6{font-size:12px;}
	.st7{fill:none;stroke:#56A8CB;stroke-width:10;stroke-miterlimit:10;}
	.st8{fill:none;stroke:#FFFFFF;stroke-width:13;stroke-miterlimit:10;}
	.st9{fill:none;stroke:#DA291C;stroke-width:11;stroke-miterlimit:10;}
	.st10{fill:none;stroke:#E1D5E7;stroke-width:0.5;stroke-linecap:round;stroke-linejoin:round;stroke-miterlimit:10;}
	.st11{fill:#FFFFFF;stroke:#000000;}
	.st12{fill:#FFBE7A;stroke:#000000;}
	.st13{fill:none;stroke:#DA291C;stroke-width:10;stroke-miterlimit:10;}
	.st14{fill:#FFBE7A;stroke:#000000;stroke-width:1.5;stroke-dasharray:4.5,4.5;}
	.st15{fill:#FFFFFF;}
	.st16{fill:none;stroke:#000000;stroke-linecap:round;stroke-linejoin:round;stroke-miterlimit:10;stroke-dasharray:3,3;}
	.st17{font-family:'Arial-BoldMT';}
	.st18{fill:none;stroke:#53A567;stroke-width:10;stroke-linecap:round;stroke-linejoin:round;stroke-miterlimit:10;}
	.st19{fill:none;stroke:#DA291C;stroke-width:11;stroke-linecap:round;stroke-linejoin:round;stroke-miterlimit:10;}
	.st20{fill:none;stroke:#56A8CB;stroke-width:10;stroke-linecap:round;stroke-linejoin:round;stroke-miterlimit:10;}
	.st21{font-family:'ArialNarrow-Bold';}
	.st22{fill:#FFFFFF;stroke:#000000;stroke-dasharray:3,3;}
	.st23{fill:none;stroke:#FFFFFF;stroke-width:12;stroke-miterlimit:10;}
	.st24{fill:none;stroke:#53A567;stroke-width:10;stroke-miterlimit:10;enable-background:new    ;}
	.st25{fill:none;stroke:#CDA2BE;stroke-linecap:round;stroke-linejoin:round;stroke-miterlimit:10;stroke-dasharray:3,3;}
	.st26{font-size:10px;}
	.st27{clip-path:url(#SVGID_2_);}
	.st28{fill-rule:evenodd;clip-rule:evenodd;fill:#FFFFFF;stroke:#2F528F;stroke-width:1.3333;stroke-miterlimit:8;}
	.st29{fill-rule:evenodd;clip-rule:evenodd;stroke:#2F528F;stroke-width:1.3333;stroke-miterlimit:8;}
	.st30{font-size:8.5714px;}
	.st31{clip-path:url(#SVGID_4_);}
	.st32{clip-path:url(#SVGID_6_);}
	.st33{clip-path:url(#SVGID_8_);}
	.st34{font-size:6.1224px;}
	.st35{clip-path:url(#SVGID_10_);}
	.st36{font-size:6px;}
	.st37{clip-path:url(#SVGID_12_);}
</style>
<path
   pointer-events="stroke"
   class="st0"
   d="M742,265.6l17.4,0.7c2.8,0.1,4.9,2.2,6.5,6.2l9.6,24.1c1.6,4,3.8,6.1,6.5,6.1l32.5,0.6  "
   id="path1" />
<g
   id="g102"
   transform="matrix(1.000159,0,0,0.99999992,-1.7230787e-4,2.2861104e-7)">
	<rect
   x="404.5"
   y="30.700001"
   pointer-events="all"
   class="st1"
   width="103"
   height="158"
   id="rect1" />
	<path
   pointer-events="all"
   class="st2"
   d="m 404.7,30.5 v 0 m 0,0 v 0 m -0.2,6.4 c 2.7,-2.4 4.1,-5.1 5.3,-6 m -5.3,6 c 2.1,-2.7 4.4,-4.8 5.3,-6 m -5.6,12.4 c 4.6,-4.1 5.7,-5.8 11.1,-12.8 m -11.1,12.8 c 3.2,-4 5.5,-7.8 11.1,-12.8 m -10.7,18.4 c 5.3,-4.7 11.3,-13 15.8,-18.1 m -15.8,18.1 c 4.7,-6.2 10.2,-12.3 15.8,-18.1 m -16.1,24.5 c 9.3,-9.5 14,-16.4 21.6,-24.9 m -21.6,24.9 c 6.1,-8 12.1,-14 21.6,-24.9 m -21.2,30.5 c 8,-12.2 21.6,-21.6 26.3,-30.2 m -26.3,30.2 c 7.8,-8.7 13.7,-14.4 26.3,-30.2 m -26.5,36.6 c 10,-10.3 20.6,-24.3 32.1,-37 m -32.1,37 c 11.2,-12.4 21.4,-24.8 32.1,-37 M 404.2,73.7 C 416.7,64 423,51 441.6,30.7 m -37.4,43 c 10.2,-13.1 21.6,-25.4 37.4,-43 m -37,48.7 c 13.2,-16.3 28.4,-32.3 42,-48.3 m -42,48.3 c 9.1,-9.9 18.1,-19.8 42,-48.3 m -42.3,54.7 c 19.1,-23.6 39.3,-45 47.9,-55.1 m -47.9,55.1 c 9.6,-12.5 19.4,-23.3 47.9,-55.1 M 404.7,91.4 C 421.5,70.4 440.6,52.3 457.2,31 M 404.7,91.4 C 418.1,75.5 431.3,60 457.2,31 m -52.7,66.8 c 10.9,-14.4 23.7,-27.3 58.4,-67.2 m -58.4,67.2 c 20.9,-24.5 39.9,-47.6 58.4,-67.2 m -58.7,73.6 C 421.1,87.3 436.3,67.3 467.8,31 m -63.6,73.2 c 13.3,-15.6 27.4,-30 63.6,-73.2 m -63.2,78.9 c 24.3,-25.6 46.6,-52.2 68.9,-79.3 m -68.9,79.3 c 18.9,-20.6 37.8,-44.3 68.9,-79.3 m -69.2,85.7 C 433.7,81.9 460.8,48.7 478.4,31 m -74.1,85.3 c 24.6,-27.1 48,-55.6 74.1,-85.3 m -73.7,90.9 c 21.1,-21.5 39.1,-45.2 79.4,-91.3 m -79.4,91.3 c 26.5,-29.5 52.7,-57.6 79.4,-91.3 m -79.6,97.7 c 31.1,-37.6 63.6,-73.1 84.6,-97.4 m -84.6,97.4 c 19.5,-22 38.3,-45.5 84.6,-97.4 m -84.9,103.8 c 19.5,-25.2 44.6,-49.3 90.5,-104.2 m -90.5,104.2 c 23.6,-27.1 48,-56.2 90.5,-104.2 M 404.6,140.3 C 438.9,104.6 470.8,67.9 499.7,30.9 M 404.6,140.3 C 430.6,109.4 457,80 499.7,30.9 m -95.4,115.8 c 24.8,-27.4 46.4,-53 101,-116.2 m -101,116.2 c 24,-28.8 47.2,-56.5 101,-116.2 M 404.7,152.4 c 40.2,-48.3 80.2,-94 104.3,-120 m -104.3,120 C 426.9,126.6 448.3,102.7 509,32.4 M 404.5,158.8 c 37,-42.7 76.4,-84.7 105,-120.8 m -105,120.8 c 24.3,-26.3 47,-52.2 105,-120.8 M 404.2,165.2 c 21.8,-24.5 46.6,-49.8 105,-120.8 m -105,120.8 c 27,-31.7 54.6,-61.5 105,-120.8 M 404.6,170.8 c 38.7,-47.5 79.6,-92.1 104.3,-120 m -104.3,120 C 441.1,128.7 478.2,87 508.9,50.8 M 404.3,177.2 c 28.9,-34.3 60.5,-67.3 105,-120.8 m -105,120.8 c 29.3,-36.3 59.9,-71.1 105,-120.8 M 404.7,182.9 c 27,-33.3 57.6,-67 104.3,-120 m -104.3,120 C 427.5,159.2 449.2,133.1 509,62.9 M 404.5,189.3 c 20.3,-26 46.6,-51.1 105,-120.8 m -105,120.8 c 25.8,-29.7 52.5,-59.9 105,-120.8 m -99.4,120.4 c 31.2,-32.5 60.5,-66.5 99.1,-114 m -99.1,114 c 33.1,-37.3 64.2,-74.9 99.1,-114 m -94.1,114.3 c 22.7,-26.4 47.2,-54.6 93.8,-107.9 m -93.8,107.9 c 25.2,-30.7 50.5,-59.9 93.8,-107.9 m -88.1,107.5 c 22.7,-24.1 42,-49.2 88.6,-101.9 M 420.8,188.8 C 447,157.9 475.9,126.5 509.4,86.9 m -83.7,102.3 c 29.8,-32 57.1,-63.8 83.3,-95.9 m -83.3,95.9 c 19.8,-21.5 37.6,-44.7 83.3,-95.9 m -77.6,95.5 c 28.4,-31.6 55.3,-60.9 78.1,-89.8 m -78.1,89.8 c 23.7,-26.4 46.8,-52.1 78.1,-89.8 m -73.1,90.2 c 20.4,-21.5 37,-40.3 72.8,-83.8 m -72.8,83.8 c 27.4,-31.2 53.5,-62.5 72.8,-83.8 M 442,188.8 c 20.9,-25.6 42.3,-49.4 66.9,-77 m -66.9,77 c 17.1,-21 33.4,-40 66.9,-77 M 447,189.1 c 20,-24.6 39.3,-44.9 62.3,-71.7 M 447,189.1 c 14.9,-17.6 31.6,-34.3 62.3,-71.7 m -56.7,71.3 c 16,-19.6 33.3,-37 56.4,-64.9 m -56.4,64.9 C 473.4,165.6 492.9,142 509,123.8 m -51.4,65.3 c 12.8,-15.2 27,-27.7 51.8,-59.6 m -51.8,59.6 c 10,-12.5 22.6,-25 51.8,-59.6 m -46.1,59.2 c 14.2,-17.8 31,-34.9 45.9,-52.8 m -45.9,52.8 c 17,-21.3 36.6,-41.3 45.9,-52.8 m -40.9,53.2 c 11.8,-13.3 24.3,-26.4 40.7,-46.8 m -40.7,46.8 c 14,-16.2 26,-30.7 40.7,-46.8 m -35.1,46.4 c 8.7,-8.8 18.1,-19.9 35.4,-40.8 m -35.4,40.8 c 9.8,-11.3 21.6,-24.7 35.4,-40.8 M 478.9,189 c 9.7,-11.3 20.1,-20.6 30.2,-34.7 M 478.9,189 c 7.5,-9.7 14.8,-18.6 30.2,-34.7 m -24.6,34.3 c 8.3,-8.4 19.6,-22.3 24.9,-28.7 m -24.9,28.7 c 7.4,-8.7 14.2,-16.4 24.9,-28.7 M 489.5,189 c 6,-6.2 12.8,-14.5 19.7,-22.6 M 489.5,189 c 7.5,-8.1 13,-16.4 19.7,-22.6 m -14,22.2 c 3.9,-6.8 8.4,-8.5 13.8,-15.8 m -13.8,15.8 c 3.6,-4.9 6.9,-9.8 13.8,-15.8 m -8.9,16.1 c 3,-1.5 4.7,-3.6 9.2,-10.6 m -9.2,10.6 c 3.5,-4 6.8,-8.1 9.2,-10.6 m -3.5,10.3 c 0.5,-0.8 1.3,-2.4 3.3,-3.8 m -3.3,3.8 c 0.8,-1.2 2,-2.4 3.3,-3.8"
   id="path2" />
	<path
   pointer-events="all"
   class="st3"
   d="m 404.5,32.7 c 29.2,1 58.4,-1.9 103,0 m -103,0 c 29.2,-0.4 58,-1.6 103,0 m 0,0 c 1,47 1.3,92.7 0,158 m 0,-158 c 0.8,45.3 0.9,90.8 0,158 m 0,0 c -31,0.5 -59.8,2 -103,0 m 103,0 c -39.6,-0.5 -81.9,-0.1 -103,0 m 0,0 c -2.1,-54.7 -1.7,-111.5 0,-158 m 0,158 c 1.7,-46.7 0.7,-91.2 0,-158"
   id="path3" />
	<g
   transform="translate(-0.5,-0.5)"
   id="g4">
		<text
   transform="translate(413.1094,12.4827)"
   class="st4"
   id="text4"><tspan
     x="0"
     y="0"
     class="st5 st6"
     id="tspan3">Search engines</tspan><tspan
     x="6.6999998"
     y="14.4"
     class="st5 st6"
     id="tspan4">(at least one)</tspan></text>
		<polygon
   class="st1"
   points="454.8,25.4 459.9,25.4 454.8,25.4 "
   id="polygon4" />
	</g>
	<path
   pointer-events="stroke"
   class="st7"
   d="m 165.4,260.5 104.1,-0.8 c 6.7,0 10.7,-3.3 12,-9.9 l 23.9,-115.4 c 1.4,-6.5 5.4,-9.8 12,-9.8 h 15"
   id="path4" />
	<path
   pointer-events="stroke"
   class="st7"
   d="m 279.2,124.5 62.3,0.2 c 6.7,0 12.8,1.8 18.5,5.3 l 34.1,21.4 c 5.6,3.5 11.8,5.3 18.5,5.3 l 43.5,-0.2"
   id="path5" />
	<path
   pointer-events="stroke"
   class="st7"
   d="m 279.22679,124.42957 68.2793,0.24517 c 6.69797,0 11.99636,-3.18713 16.09512,-9.68397 l 27.79158,-44.252057 c 4.09875,-6.496839 9.39715,-9.683968 16.09512,-9.80655 l 48.4853,-0.122582"
   id="path6" />
	
	<path
   pointer-events="stroke"
   class="st9"
   d="m 279.2,139.6 65.3,1 c 6.7,0.1 11.5,3.1 14.5,9.1 l 39.1,78.1 c 3,6 7.8,8.9 14.5,8.9 h 31.1"
   id="path8" />
	<path
   pointer-events="stroke"
   class="st9"
   d="m 165.4,276.6 114.1,-0.8 c 6.7,0 10.8,-3.3 12.3,-9.8 l 26.5,-114.5 c 1.5,-6.5 5.4,-10.1 11.8,-10.7 l 9.5,-1"
   id="path9" />
	<path
   pointer-events="stroke"
   class="st8"
   d="m 279.2,154.7 h 41.3 c 6.7,0 10.7,3.3 12,9.8 l 23.9,115.4 c 1.4,6.5 5.3,10.3 11.9,11.4 l 75.2,11.9"
   id="path10" />
	<rect
   x="654.5"
   y="30.700001"
   pointer-events="all"
   class="st1"
   width="132"
   height="158"
   id="rect10" />
	<path
   pointer-events="all"
   class="st10"
   d="m 654.7,30.5 v 0 m 0,0 v 0 m -0.3,6.4 c 1.2,-2.4 2.3,-3.4 5.3,-6 m -5.3,6 c 1.6,-2.4 4.1,-4.1 5.3,-6 m -5.5,12.4 c 5.4,-4.6 8.5,-8.5 11.2,-12.8 m -11.2,12.8 c 2.5,-4.1 5.3,-6.6 11.2,-12.8 m -10.8,18.4 c 5.5,-7.3 9.5,-12.4 15.8,-18.1 m -15.8,18.1 c 3.7,-5.2 8.5,-11.7 15.8,-18.1 m -16.1,24.5 c 5.7,-4 8.2,-8.5 21.7,-24.9 M 654.3,55.3 C 659.2,50 663,44 676,30.4 M 654.7,61 C 662.5,52.6 670.4,44.1 681,30.8 M 654.7,61 C 661.2,53.7 669,44.6 681,30.8 m -26.6,36.6 c 12.1,-11.9 22.1,-24 32.2,-37 m -32.2,37 c 10.2,-11.6 20.6,-24.9 32.2,-37 m -32.4,43.4 c 10.1,-9.2 17.6,-18.9 37.4,-43 m -37.4,43 c 9.4,-11 21.2,-23 37.4,-43 m -37,48.6 C 671,63.7 684.4,45.6 697.2,30.3 M 654.6,79.4 C 667,65.6 678.3,52.2 697.2,30.3 m -42.9,55.5 c 12.8,-15.4 28,-29.6 47.9,-55.1 M 654.3,85.8 C 665.5,72 676.9,58.8 702.2,30.7 M 654.7,91.4 C 672,70.3 693.3,46.8 707.2,31 M 654.7,91.4 C 671.6,72.1 687.3,53.7 707.2,31 m -52.7,66.8 c 18.4,-20.3 37.3,-42.7 58.4,-67.2 m -58.4,67.2 c 15.8,-16 31,-33.8 58.4,-67.2 m -58.7,73.6 C 677.3,75 700.1,49.1 717.8,31 m -63.6,73.2 c 24.4,-27 50.7,-55.8 63.6,-73.2 m -63.2,78.9 C 678,85.5 700.4,59.6 723.5,30.6 m -68.9,79.3 c 25.7,-28.7 50.6,-58.5 68.9,-79.3 m -69.2,85.7 C 670,97.2 687.8,76.7 728.5,31 m -74.2,85.3 c 22.8,-26 44.9,-51.1 74.1,-85.3 m -73.7,90.9 c 29.8,-32 58.8,-65.2 79.4,-91.3 m -79.4,91.3 c 28.2,-32.8 55.6,-64.6 79.4,-91.3 m -79.6,97.7 c 30.1,-33.5 59.8,-69.1 84.6,-97.4 m -84.6,97.4 c 23,-26.8 44.8,-54.9 84.6,-97.4 M 654.2,134.7 C 689.8,95.4 723.8,55.8 744.7,30.5 M 654.2,134.7 C 689,94.5 723,56.1 744.7,30.5 M 654.6,140.4 C 676.4,119.5 694.4,95 749.7,31 m -95.1,109.4 c 24,-25 45.9,-50.2 95.1,-109.4 m -95.4,115.8 c 27.3,-31.7 52.9,-59.4 101,-116.2 m -101,116.2 C 687,109.9 720.6,71.3 755.3,30.6 M 654.7,152.4 c 24,-25.6 45.9,-54.1 105.6,-121.5 M 654.7,152.4 C 687,113.3 721.8,75 760.3,30.9 M 654.5,158.8 C 690.6,117.6 726.9,78 766,30.5 M 654.5,158.8 C 685,123.8 714.3,89.5 766,30.5 M 654.2,165.2 C 699,114.9 741.3,61.2 771,30.9 M 654.2,165.2 C 692.5,119 732.4,74.7 771,30.9 M 654.6,170.8 c 24.6,-33.2 54.2,-62.9 122,-140.4 m -122,140.4 c 22.5,-27.7 46.8,-55.9 122,-140.4 M 654.3,177.2 C 699.3,124.9 742.1,74.3 781.6,30.8 M 654.3,177.2 C 696.2,126.4 741,75.3 781.6,30.8 M 654.7,182.9 C 699.5,133.4 743.2,82.4 786.6,31.2 M 654.7,182.9 C 693.4,140.4 730.1,97.4 786.6,31.2 M 654.5,189.3 C 698.6,139.7 741.4,89.8 787,36.8 M 654.5,189.3 C 686.6,149.8 720.4,111.1 787,36.8 M 660.1,188.9 c 34,-39.1 68.1,-79.4 126.6,-145.7 M 660.1,188.9 c 28.7,-34.8 57.7,-68.5 126.6,-145.7 m -121.6,146 C 704.9,140.6 748.6,90.8 786.5,49.6 M 665.1,189.2 C 693,155.6 720,123.8 786.5,49.6 M 670.7,188.8 C 717.5,138 765.1,82.5 786.9,55.3 M 670.7,188.8 C 709.1,148 743.9,105.5 786.8,55.2 m -111.1,134 C 697.9,161.7 720.8,136.6 786.6,61.6 M 675.7,189.2 c 32.2,-37.1 64,-73.4 110.9,-127.6 M 681.4,188.8 C 715.7,149.1 753.6,108.6 787,67.3 M 681.4,188.8 C 715.9,148.1 752.4,105.6 787,67.3 M 686.3,189.2 c 35,-37.8 67.6,-77.8 100.4,-115.5 M 686.3,189.2 c 31,-35.5 62.3,-70.4 100.4,-115.5 M 692,188.8 c 22.1,-23 43,-49.6 94.5,-108.7 M 692,188.8 c 27.5,-32.5 55.8,-65.9 94.5,-108.7 m -89.5,109 c 28.3,-35.2 58.5,-69 89.9,-103.4 M 697,189.1 C 732.3,148 768.1,106.5 786.9,85.7 m -84.3,103 c 23.5,-27.4 49.4,-58 84,-96.6 m -84,96.6 c 25,-28.4 51,-57.1 84,-96.6 m -79,97 c 34.3,-37.9 65.1,-70.9 79.4,-91.3 m -79.4,91.3 C 735.9,157 764.1,125.5 787,97.8 m -73.7,90.9 c 19.4,-24.9 43.9,-49.7 73.5,-84.5 m -73.5,84.5 c 16.1,-19.3 32.6,-38.8 73.5,-84.5 m -68.6,84.9 c 24.1,-25.1 47.2,-53.5 68.2,-78.5 m -68.2,78.5 c 26.8,-29.8 53.2,-59.6 68.2,-78.5 m -62.5,78.1 c 13.5,-16.3 26.5,-31 63,-72.5 m -63,72.5 c 19.2,-22.1 38,-45.2 63,-72.5 m -58,72.8 c 21.2,-22.6 42.9,-48.1 57.7,-66.4 M 728.9,189 c 22.5,-24.7 44.9,-51.4 57.7,-66.4 m -52.1,66 c 23,-25.9 42.8,-49.9 52.5,-60.4 m -52.5,60.4 C 751.8,167.5 770,147.3 787,128.2 M 739.5,189 c 10.4,-13.3 21.5,-24.8 47.2,-54.3 M 739.5,189 c 14.2,-15.8 27.9,-32.9 47.2,-54.3 m -41.5,53.9 c 9.9,-12.8 21.9,-24.1 41.3,-47.5 m -41.3,47.5 c 10.3,-11.8 20.4,-23.5 41.3,-47.5 M 750.1,189 c 12.8,-17.7 29.4,-32.6 36.7,-42.3 M 750.1,189 c 12.5,-13.4 21.8,-24.6 36.7,-42.3 m -31,41.9 c 11.2,-12 21.2,-21.7 30.8,-35.5 m -30.8,35.5 c 11,-11.6 20,-23.4 30.8,-35.5 m -25.8,35.8 c 11.3,-13.3 19,-24.4 26.3,-30.2 m -26.3,30.2 c 6.2,-7.6 12,-13.9 26.3,-30.2 m -21.3,30.6 c 8.9,-8.2 16.3,-20 21,-24.2 m -21,24.2 c 5.3,-5.8 10,-11.9 21,-24.2 m -15.4,23.8 c 1.7,-4.3 5.3,-8.5 15.1,-17.4 m -15.1,17.4 c 3.7,-3.3 7.1,-8.4 15.1,-17.4 m -10.1,17.8 c 4.4,-3.5 8.8,-9.1 10.5,-12.1 m -10.5,12.1 c 3.6,-4.4 7.4,-8.9 10.5,-12.1 m -4.9,11.7 c 1,-0.9 2,-3.2 4.6,-5.3 m -4.6,5.3 c 2.2,-1.8 3.3,-4.1 4.6,-5.3"
   id="path11" />
	<path
   pointer-events="all"
   class="st3"
   d="m 654.5,30.7 c 36.3,1 76.6,2.3 132,0 m -132,0 c 46.1,1.5 94.2,1.5 132,0 m 0,0 c -0.5,54.7 -1.3,104.7 0,158 m 0,-158 c 0.3,41.2 -0.7,84.5 0,158 m 0,0 c -35,2 -65,1 -132,0 m 132,0 c -30.8,-0.4 -62.4,-1.1 -132,0 m 0,0 c 1.5,-45.3 -1.6,-90.9 0,-158 m 0,158 c 0.9,-39.1 0.1,-76.1 0,-158"
   id="path12" />
	<g
   transform="translate(-0.5,-0.5)"
   id="g13">
		<text
   transform="translate(692.9383,12.4828)"
   class="st4"
   id="text13"><tspan
     x="0"
     y="0"
     class="st5 st6"
     id="tspan12">Rescoring</tspan><tspan
     x="-7.3000002"
     y="14.4"
     class="st5 st6"
     id="tspan13">(exactly one)</tspan></text>
	</g>
	<path
   pointer-events="stroke"
   class="st7"
   d="m 48.2,124.5 h 117"
   id="path13" />
	<path
   pointer-events="stroke"
   class="st9"
   d="m 48.2,139.6 30.8,0.1 86.2,-0.1"
   id="path14" />
	<path
   pointer-events="stroke"
   class="st0"
   d="m 48.2,154.7 h 117"
   id="path15" />
	<path
   pointer-events="stroke"
   class="st7"
   d="m 165.2,124.5 h 114"
   id="path16" />
	<path
   pointer-events="stroke"
   class="st9"
   d="m 165.2,139.6 h 114"
   id="path17" />
	<path
   pointer-events="stroke"
   class="st0"
   d="m 165.2,154.7 h 114"
   id="path18" />
	<path
   pointer-events="stroke"
   class="st7"
   d="m 48.2,32.6 118.3,1 c 6.7,0.1 11.5,3.1 14.5,9 l 36,71.2 c 3,5.9 7.8,9 14.5,9.2 l 47.7,1.4"
   id="path19" />
	<path
   pointer-events="stroke"
   class="st9"
   d="m 48.2,47.7 108.3,0.9 c 6.7,0.1 11.5,3.1 14.5,9 l 36,71.2 c 3,5.9 7.8,9 14.5,9.2 l 57.7,1.6"
   id="path20" />
	<path
   pointer-events="stroke"
   class="st0"
   d="m 48.2,62.8 100.3,1.7 c 6.7,0.1 11.5,3.2 14.5,9.1 l 36.1,72.1 c 3,6 7.8,8.9 14.5,8.9 h 65.7"
   id="path21" />
	<path
   pointer-events="all"
   class="st11"
   d="m 48.4,68.7 v 0 c -5.5,0 -9.9,-4.4 -9.9,-9.9 V 36.6 c 0,-5.5 4.4,-9.9 9.9,-9.9 v 0 c 5.5,0 9.9,4.4 9.9,9.9 v 22.2 c 0,5.5 -4.5,9.9 -9.9,9.9 z"
   id="path22" />
	<path
   pointer-events="all"
   class="st11"
   d="m 48.4,160.6 v 0 c -5.5,0 -9.9,-4.4 -9.9,-9.9 v -22.2 c 0,-5.5 4.4,-9.9 9.9,-9.9 v 0 c 5.5,0 9.9,4.4 9.9,9.9 v 22.2 c 0,5.4 -4.5,9.9 -9.9,9.9 z"
   id="path23" />
	<path
   pointer-events="all"
   class="st12"
   d="m 165.4,160.6 v 0 c -5.5,0 -9.9,-4.4 -9.9,-9.9 v -22.2 c 0,-5.5 4.4,-9.9 9.9,-9.9 v 0 c 5.5,0 9.9,4.4 9.9,9.9 v 22.2 c 0,5.4 -4.5,9.9 -9.9,9.9 z"
   id="path24" />
	<g
   transform="translate(-0.5,-0.5)"
   id="g25">
		<text
   transform="translate(135.8686,174.7502)"
   class="st4"
   id="text25"><tspan
     x="0"
     y="0"
     class="st5 st6"
     id="tspan24">ThermoRaw</tspan><tspan
     x="5.3000002"
     y="14.4"
     class="st5 st6"
     id="tspan25">FileParser</tspan></text>
	</g>
	<path
   pointer-events="stroke"
   class="st9"
   d="m 279.2,139.6 63.3,0.1 c 6.7,0 12.8,1.9 18.3,5.7 l 30.5,20.7 c 5.5,3.8 11.6,5.7 18.3,5.8 l 46.5,0.6"
   id="path25" />
	<path
   pointer-events="stroke"
   class="st9"
   d="m 279.27453,138.42931 79.23317,-0.98232 c 6.69435,-0.12279 11.88997,-3.43811 15.78668,-10.06876 l 23.38028,-40.152288 c 3.89671,-6.630652 9.09233,-10.068768 15.78668,-10.314348 l 42.46418,-1.105109"
   id="path26" />
	<path
   pointer-events="stroke"
   class="st7"
   d="m 464.59185,60.495099 h 20 c 6.7,0 12.6,2.522474 17.7,7.687538 l 49,49.248283 c 5.1,5.16506 11,7.68753 17.7,7.68753 h 20"
   id="path27" />
	<path
   pointer-events="stroke"
   class="st7"
   d="m 456,156.4 h 20 c 6.7,0 13,-1.4 19.1,-4.2 l 46.3,-21.6 c 6,-2.8 12.4,-4.2 19.1,-4.2 h 20"
   id="path28" />
	<path
   pointer-events="stroke"
   class="st9"
   d="m 456,172.4 h 20 c 6.7,0 13,-1.4 19.1,-4.2 l 46.3,-21.6 c 6,-2.8 12.4,-4.2 19.1,-4.2 h 20"
   id="path29" />
	<path
   pointer-events="stroke"
   class="st9"
   d="m 456,75.821231 h 20 c 6.7,0 12.6,2.552536 17.7,7.779158 l 49,49.835241 c 5.1,5.22662 11,7.77916 17.7,7.77916 h 20"
   id="path30" />
	<path
   pointer-events="all"
   class="st12"
   d="m 456,179.7 v 0 c -5.5,0 -9.9,-4.4 -9.9,-9.9 v -9.4 c 0,-5.5 4.4,-9.9 9.9,-9.9 v 0 c 5.5,0 9.9,4.4 9.9,9.9 v 9.4 c 0,5.5 -4.4,9.9 -9.9,9.9 z"
   id="path31" />
	<g
   transform="translate(-5.8699089,-5.8707632)"
   id="g31">
		<text
   transform="translate(438.8311,147.7023)"
   class="st5 st6"
   id="text31">Comet</text>
	</g>
	<path
   pointer-events="all"
   class="st12"
   d="m 452.77805,80.761863 v 0 c -5.5,0 -9.9,-4.4 -9.9,-9.9 v -9.4 c 0,-5.5 4.4,-9.9 9.9,-9.9 v 0 c 5.5,0 9.9,4.4 9.9,9.9 v 9.5 c 0,5.4 -4.4,9.8 -9.9,9.8 z"
   id="path32" />
	<g
   transform="translate(-0.5,-16.500001)"
   id="g32">
		<text
   transform="translate(437.832,63.7023)"
   class="st5 st6"
   id="text32">MSGF+</text>
	</g>
	<path
   pointer-events="stroke"
   class="st7"
   d="m 580.4,126.3 h 20 c 6.7,0 12.8,-1.9 18.3,-5.6 l 64,-42.7 c 5.5,-3.7 11.7,-5.5 18.3,-5.5 h 20"
   id="path33" />
	<path
   pointer-events="stroke"
   class="st13"
   d="m 580.4,142.4 h 20 c 6.7,0 12.8,1.7 18.5,5.2 l 37,22.7 c 5.7,3.5 11.9,5.2 18.5,5.2 h 20"
   id="path34" />
	<path
   pointer-events="stroke"
   class="st7"
   d="m 580.4,126.3 h 20 c 6.7,0 12.8,1.7 18.5,5.2 l 37,22.7 c 5.7,3.5 11.9,5.2 18.5,5.2 h 20"
   id="path35" />
	<path
   pointer-events="stroke"
   class="st13"
   d="m 580.4,142.4 h 20 c 6.7,0 12.8,-1.9 18.3,-5.6 l 64,-42.7 c 5.5,-3.7 11.7,-5.6 18.3,-5.6 h 20"
   id="path36" />
	<path
   pointer-events="all"
   class="st14"
   d="m 580.4,149.67453 v 0 c -5.48585,0 -9.87454,-4.71604 -9.87454,-10.6111 v -10.07519 c 0,-5.89506 4.38869,-10.61111 9.87454,-10.61111 v 0 c 5.48585,0 9.87454,4.71605 9.87454,10.61111 v 10.07519 c 0,5.78787 -4.48843,10.6111 -9.87454,10.6111 z"
   id="path37" />
	<g
   transform="translate(-0.5,-0.5)"
   id="g37">
		<text
   transform="translate(544.8824,116.05)"
   class="st5 st6"
   id="text37">ConsensusID</text>
	</g>
	<path
   pointer-events="stroke"
   class="st7"
   d="m 694.4,159.5 h 30 -9.9 30"
   id="path38" />
	<path
   pointer-events="stroke"
   class="st9"
   d="m 694.4,175.6 h 30 -9.9 30"
   id="path39" />
	<path
   pointer-events="all"
   class="st12"
   d="m 694.4,182.8 v 0 c -5.5,0 -9.9,-4.4 -9.9,-9.9 v -9.4 c 0,-5.5 4.4,-9.9 9.9,-9.9 v 0 c 5.5,0 9.9,4.4 9.9,9.9 v 9.4 c 0,5.5 -4.4,9.9 -9.9,9.9 z"
   id="path40" />
	<g
   transform="translate(-0.5,-0.5)"
   id="g41">
		<text
   transform="translate(664.8883,136.4001)"
   class="st4"
   id="text41"><tspan
     x="0"
     y="0"
     class="st5 st6"
     id="tspan40">Distribution</tspan><tspan
     x="15.7"
     y="14.4"
     class="st5 st6"
     id="tspan41">fitting</tspan></text>
	</g>
	<path
   pointer-events="stroke"
   class="st7"
   d="m 744.6,159.5 h 20 c 6.7,0 12.8,-1.7 18.5,-5.2 l 37.7,-22.8 c 5.7,-3.5 11.9,-5.2 18.5,-5.2 h 20"
   id="path41" />
	<path
   pointer-events="stroke"
   class="st9"
   d="m 443.6,236.7 h 30 450.1 30"
   id="path42" />
	<path
   pointer-events="stroke"
   class="st13"
   d="m 744.6,175.6 h 20 c 6.7,0 12.8,-1.7 18.5,-5.2 l 37.7,-22.8 c 5.7,-3.5 11.9,-5.2 18.5,-5.2 h 20"
   id="path43" />
	<path
   pointer-events="stroke"
   class="st13"
   d="m 721,88.6 h 20 c 6.7,0 12.7,1.9 18.2,5.7 l 61.9,42.5 c 5.5,3.8 11.6,5.7 18.2,5.7 h 20"
   id="path44" />
	<path
   pointer-events="all"
   class="st12"
   d="m 744.6,182.8 v 0 c -5.5,0 -9.9,-4.4 -9.9,-9.9 v -9.4 c 0,-5.5 4.4,-9.9 9.9,-9.9 v 0 c 5.5,0 9.9,4.4 9.9,9.9 v 9.4 c -0.1,5.5 -4.5,9.9 -9.9,9.9 z"
   id="path45" />
	<g
   transform="translate(-0.5,-0.5)"
   id="g46">
		<text
   transform="translate(735.469,136.4003)"
   class="st4"
   id="text46"><tspan
     x="0"
     y="0"
     class="st5 st6"
     id="tspan45">FDR</tspan><tspan
     x="-5.6999998"
     y="14.4"
     class="st5 st6"
     id="tspan46">control</tspan></text>
	</g>
	<path
   pointer-events="all"
   class="st12"
   d="m 434.6,236.7 v 0 c 0,-5 4,-9 9,-9 v 0 c 5,0 9,4 9,9 v 0 c 0,5 -4,9 -9,9 v 0 c -5,0 -9,-4 -9,-9 z"
   id="path46" />
	<g
   transform="matrix(0.93779653,0,0,1,25.690357,-0.5)"
   id="g48">
		<text
   transform="translate(423.191,208.6998)"
   class="st4"
   id="text48"><tspan
     x="0"
     y="0"
     class="st5 st6"
     id="tspan47">Isobaric</tspan><tspan
     x="-2.3"
     y="14.4"
     class="st5 st6"
     id="tspan48">Analyzer</tspan></text>
	</g>
	<path
   pointer-events="stroke"
   class="st7"
   d="m 48.2,260.6 h 30 l 57.2,-0.1 h 30"
   id="path48" />
	<path
   pointer-events="stroke"
   class="st9"
   d="m 48.2,275.7 h 30 l 57.2,0.9 h 30"
   id="path49" />
	<path
   pointer-events="stroke"
   class="st0"
   d="m 48.2,290.8 h 72.3 c 6.7,0 10,2.1 10,6.2 v 3.1 c 0,2.1 3.3,3.1 10,3.1 l 303.1,-0.1"
   id="path50" />
	<path
   pointer-events="all"
   class="st11"
   d="m 48.4,296.7 v 0 c -5.5,0 -9.9,-4.4 -9.9,-9.9 v -22.2 c 0,-5.5 4.4,-9.9 9.9,-9.9 v 0 c 5.5,0 9.9,4.4 9.9,9.9 v 22.2 c 0,5.5 -4.5,9.9 -9.9,9.9 z"
   id="path51" />
	<path
   pointer-events="stroke"
   class="st7"
   d="m 859.4,126.3 h 20 c 6.7,0 13,-1.5 19,-4.4 l 67.2,-32.8 c 6,-2.9 12.3,-4.4 19,-4.4 h 20"
   id="path52" />
	<path
   pointer-events="stroke"
   class="st7"
   d="m 721,72.5 h 20 c 6.7,0 12.7,1.9 18.2,5.7 l 61.9,42.5 c 5.5,3.8 11.6,5.7 18.2,5.7 h 20"
   id="path53" />
	<path
   pointer-events="stroke"
   class="st9"
   d="m 859.4,142.4 h 20 c 6.7,0 11.1,3.1 13.4,9.4 l 27.5,75.6 c 2.3,6.3 6.8,9.4 13.4,9.4 h 20"
   id="path54" />
	<path
   pointer-events="all"
   class="st14"
   d="m 859.4,149.7 v 0 c -5.5,0 -9.9,-4.4 -9.9,-9.9 v -9.4 c 0,-5.5 4.4,-9.9 9.9,-9.9 v 0 c 5.5,0 9.9,4.4 9.9,9.9 v 9.4 c 0,5.4 -4.5,9.9 -9.9,9.9 z"
   id="path55" />
	<g
   transform="translate(-0.5,-0.5)"
   id="g56">
		<text
   transform="translate(849.9138,102.6001)"
   class="st4"
   id="text56"><tspan
     x="0"
     y="0"
     class="st5 st6"
     id="tspan55">Mod.</tspan><tspan
     x="-16.299999"
     y="14.4"
     class="st5 st6"
     id="tspan56">localization</tspan></text>
	</g>
	<path
   pointer-events="all"
   class="st12"
   d="M 726.9,95.8 H 715 c -8,0 -14.6,-6.5 -14.6,-14.6 v 0 c 0,-8 6.5,-14.6 14.6,-14.6 h 11.9 c 8,0 14.6,6.5 14.6,14.6 v 0 c 0,8.1 -6.5,14.6 -14.6,14.6 z"
   id="path56" />
	<g
   transform="translate(-0.5,-0.5)"
   id="g57">
		<text
   transform="translate(674.9854,61.7001)"
   class="st5 st6"
   id="text57">Percolator + FDR</text>
	</g>
	<path
   pointer-events="stroke"
   class="st0"
   d="m 279.2,154.7 h 43.3 c 6.7,0 10.5,3.3 11.6,9.9 l 20.8,126.3 c 1.1,6.6 5,10 11.6,10.1 l 77.1,2.2"
   id="path57" />
	<path
   pointer-events="stroke"
   class="st0"
   d="m 855.4,303.2 h 30 89.1 30"
   id="path58" />
	<path
   pointer-events="all"
   class="st1"
   d="m 311.9,383.3 v -12.6 c 0,-6.9 -3.4,-10.4 -10.4,-10.4 H 189.3 c -6.9,0 -10.4,3.4 -10.4,10.4 v 12.6"
   id="path59" />
	<path
   pointer-events="none"
   class="st15"
   d="m 311.6,382.7 -1.1,-16.8 -4.5,-6.3 -5.8,0.7 -117.1,-0.3 -4.4,6.6 -1,15"
   id="path60" />
	<path
   pointer-events="none"
   class="st16"
   d="m 311.9,383.3 c -0.6,-3.3 -0.4,-6.1 0,-12.6 m 0,12.6 c -0.6,-4.4 0.2,-9.8 0,-12.6 m 0,0 c -1.8,-7 -4.4,-8.7 -10.4,-10.4 m 10.4,10.4 c -0.4,-9.1 -4.5,-9.5 -10.4,-10.4 m 0.1,0 c -32.8,0.9 -68.1,-0.6 -112.3,0 m 112.3,0 c -37.6,1 -74.7,1.1 -112.3,0 m 0,0 c -6.1,1 -10.3,1.5 -10.4,10.4 m 10.4,-10.4 c -7.6,0.2 -8.5,2.4 -10.4,10.4 m 0,0 c 0,3.7 1.2,10 0,12.6 m 0,-12.6 c -0.5,2.1 0.5,4.8 0,12.6"
   id="path61" />
	<path
   pointer-events="none"
   class="st16"
   d="m 178.9,383.3 c -0.5,30.1 -1.7,59 0,105.6 m 0,-105.6 c -1.3,31.8 -1.5,62.3 0,105.6 m 0,0.1 c -0.3,5.4 5,9.2 10.4,10.4 M 178.9,489 c 0.6,6 5.3,12.6 10.4,10.4 m 0,-0.1 c 45.3,1.7 87.7,-0.9 112.3,0 m -112.3,0 c 33.2,-1.9 66.4,-0.5 112.3,0 m 0,0 c 6.9,1.3 9.7,-2.5 10.4,-10.4 m -10.4,10.4 c 8.3,-0.7 10.1,-2.6 10.4,-10.4 m -0.1,0.1 c -0.1,-29.9 0,-60.6 0,-105.6 m 0,105.6 c -0.3,-36.7 0.8,-74.1 0,-105.6"
   id="path62" />
	<path
   pointer-events="none"
   class="st16"
   d="m 178.9,383.3 c 37.8,0.4 74.6,-0.9 133,0 m -133,0 c 39.3,0.9 78.8,-0.2 133,0"
   id="path63" />
	<g
   pointer-events="none"
   id="g63">
		<text
   transform="translate(223.566,376.3027)"
   class="st17 st6"
   id="text63">Legend</text>
	</g>
	<path
   pointer-events="none"
   class="st18"
   d="m 192.4,447.9 c 8.1,-1.4 19.3,1.5 33.2,0 m -33.2,0 c 13.1,0.4 24.8,0.5 33.2,0"
   id="path64" />
	<path
   pointer-events="none"
   class="st19"
   d="m 192.4,423.8 c 11,1.8 21,0.9 33.2,0 m -33.2,0 c 8,0.4 17.1,-0.2 33.2,0"
   id="path65" />
	<path
   pointer-events="none"
   class="st20"
   d="m 192.4,400.3 c 10,1.1 19.1,0.4 34,0 m -34,0 c 9.9,1.1 21.1,-0.3 34,0"
   id="path66" />
	<g
   transform="translate(-0.5,-0.5)"
   id="g66">
		<text
   transform="translate(236.0302,404.4013)"
   class="st5 st6"
   id="text66">DDA-LFQ</text>
	</g>
	<g
   transform="translate(-0.5,-0.5)"
   id="g67">
		<text
   transform="translate(237.3632,427.8616)"
   class="st5 st6"
   id="text67">DDA-ISO</text>
	</g>
	<g
   transform="translate(-0.5,-0.5)"
   id="g70">
		<text
   transform="translate(238.6962,452.0457)"
   class="st5 st6"
   id="text68">DIA-LFQ</text>
		<g
   transform="translate(-0.5,-0.5)"
   id="g69">
			<text
   transform="translate(233.4663,476.376)"
   class="st5 st6"
   id="text69">Parallel step</text>
		</g>
	</g>
	<path
   pointer-events="none"
   class="st9"
   d="m 953.7,236.7 h 30 -2 30"
   id="path70" />
	<path
   pointer-events="none"
   class="st9"
   d="m 1011.7,236.7 h 30 -3 30"
   id="path71" />
	<path
   pointer-events="none"
   class="st12"
   d="m 953.7,245.7 v 0 c -5,0 -9,-4 -9,-9 v 0 c 0,-5 4,-9 9,-9 v 0 c 5,0 9,4 9,9 v 0 c 0,5 -4,9 -9,9 z"
   id="path72" />
	<g
   transform="translate(-0.5,-0.5)"
   id="g72">
		<text
   transform="translate(927.8563,223.1703)"
   class="st5 st6"
   id="text72">IDMapper</text>
	</g>
	<path
   pointer-events="none"
   class="st11"
   d="m 1011.7,245.7 v 0 c -5,0 -9,-4 -9,-9 v 0 c 0,-5 4,-9 9,-9 v 0 c 5,0 9,4 9,9 v 0 c 0,5 -4,9 -9,9 z"
   id="path73" />
	<g
   transform="translate(-0.5,-0.5)"
   id="g74">
		<text
   transform="translate(993.1893,208.7)"
   class="st4"
   id="text74"><tspan
     x="0"
     y="0"
     class="st5 st6"
     id="tspan73">Protein</tspan><tspan
     x="-5.6999998"
     y="14.4"
     class="st5 st6"
     id="tspan74">inference</tspan></text>
	</g>
	<path
   pointer-events="none"
   class="st7"
   d="m 1004.5,84.7 h 30 c 6.7,0 10,3.4 10,10 V 198 c 0,6.7 3.3,10 10,10 h 173.7"
   id="path74" />
	<path
   pointer-events="none"
   class="st9"
   d="m 1068.7,236.7 h 16.8 c 6.7,0 10,-2.6 10,-8 v -4 c 0,-2.7 3.3,-4 10,-4 l 122.6,-0.1"
   id="path75" />
	<path
   pointer-events="none"
   class="st7"
   d="m 1004.5,84.7 h 29.1 c 6.7,0 10,-3.3 10,-10 V 46.5 c 0,-6.7 3.3,-10 10,-10 h 174.8"
   id="path76" />
	<g
   transform="translate(-0.5,-0.5)"
   id="g77">
		<text
   transform="translate(31.645472,368.77645)"
   class="st4"
   id="text77"
   style="white-space:pre;inline-size:161.516"
   xml:space="preserve"><tspan
     x="0"
     y="0"
     id="tspan2"><tspan
   style="font-size:12px;font-family:ArialNarrow-Bold"
   id="tspan1">nf-core/quantms v1.2</tspan>
</tspan><tspan
     x="0"
     y="30"
     id="tspan5">
</tspan><tspan
     x="0"
     y="60"
     id="tspan6">
</tspan><tspan
     x="0"
     y="74.999996"
     id="tspan8"><tspan
       style="font-size:12px;font-family:ArialNarrow-Bold"
       id="tspan7">Example analysis </tspan></tspan><tspan
     x="0"
     y="89.999996"
     id="tspan10"><tspan
       style="font-size:12px;font-family:ArialNarrow-Bold"
       id="tspan9">pathways</tspan></tspan></text>
	</g>
	<path
   pointer-events="none"
   class="st12"
   d="m 279.4,160.6 v 0 c -5.5,0 -9.9,-4.4 -9.9,-9.9 v -22.2 c 0,-5.5 4.4,-9.9 9.9,-9.9 v 0 c 5.5,0 9.9,4.4 9.9,9.9 v 22.2 c 0,5.4 -4.5,9.9 -9.9,9.9 z"
   id="path77" />
	<g
   transform="translate(-0.5,-0.5)"
   id="g79">
		<text
   transform="translate(263.3669,101.1001)"
   class="st4"
   id="text79"><tspan
     x="0"
     y="0"
     class="st5 st6"
     id="tspan78">mzML</tspan><tspan
     x="-6"
     y="14.4"
     class="st5 st6"
     id="tspan79">indexing</tspan></text>
	</g>
	<path
   pointer-events="none"
   class="st0"
   d="m 443.6,303.2 h 30 143.9 30"
   id="path79" />
	<path
   pointer-events="none"
   class="st11"
   d="m 304.8,312.2 h -50.9 c -5,0 -9,-4 -9,-9 v 0 c 0,-5 4,-9 9,-9 h 50.9 c 5,0 9,4 9,9 v 0 c 0,5 -4,9 -9,9 z"
   id="path80" />
	<g
   transform="translate(-0.5,-0.5)"
   id="g81">
		<text
   transform="translate(263.8727,326.8996)"
   class="st4"
   id="text81"><tspan
     x="0"
     y="0"
     class="st5 st6"
     id="tspan80">DIA-NN </tspan><tspan
     x="-24.700001"
     y="14.4"
     class="st5 st6"
     id="tspan81">insilico lib. predict</tspan></text>
	</g>
	<path
   pointer-events="none"
   class="st0"
   d="m 647.5,303.2 h 30 147.9 30"
   id="path81" />
	<path
   pointer-events="none"
   class="st12"
   d="m 447.3,312.2 h -20 c -5,0 -9,-4 -9,-9 v 0 c 0,-5 4,-9 9,-9 h 20 c 5,0 9,4 9,9 v 0 c 0,5 -4,9 -9,9 z"
   id="path82" />
	<g
   transform="translate(-0.5,-0.5)"
   id="g83">
		<text
   transform="translate(418.884,360.654)"
   class="st4"
   id="text83"><tspan
     x="0"
     y="0"
     class="st5 st6"
     id="tspan82">DIA-NN</tspan><tspan
     x="-9.6999998"
     y="14.4"
     class="st5 st6"
     id="tspan83">preanalysis</tspan></text>
	</g>
	<path
   pointer-events="none"
   class="st11"
   d="m 596.3,312.2 h -41.8 c -5,0 -9,-4 -9,-9 v 0 c 0,-5 4,-9 9,-9 h 41.8 c 5,0 9,4 9,9 v 0 c 0,5 -4,9 -9,9 z"
   id="path83" />
	<g
   transform="translate(-0.5,-0.5)"
   id="g85">
		<text
   transform="translate(555.2838,326.9003)"
   class="st4"
   id="text85"><tspan
     x="0"
     y="0"
     class="st5 st6"
     id="tspan84">DIA-NN</tspan><tspan
     x="-26"
     y="14.4"
     class="st5 st6"
     id="tspan85">empirical lib. gen.</tspan></text>
	</g>
	<path
   pointer-events="none"
   class="st22"
   d="m 165.4,283.8 v 0 c -5.5,0 -9.9,-4.4 -9.9,-9.9 v -9.4 c 0,-5.5 4.4,-9.9 9.9,-9.9 v 0 c 5.5,0 9.9,4.4 9.9,9.9 v 9.4 c 0,5.5 -4.5,9.9 -9.9,9.9 z"
   id="path85" />
	<g
   transform="translate(-0.5,-0.5)"
   id="g87">
		<text
   transform="translate(155.224,237.2)"
   class="st4"
   id="text87"><tspan
     x="0"
     y="0"
     class="st5 st6"
     id="tspan86">Add</tspan><tspan
     x="-8.3000002"
     y="14.4"
     class="st5 st6"
     id="tspan87">decoys</tspan></text>
	</g>
	<path
   pointer-events="none"
   class="st7"
   d="m 1004.5,84.7 h 30 c 6.7,0 10,3.4 10,10 v 14.7 c 0,6.7 3.3,10 10,10 l 173.9,0.1"
   id="path87" />
	<path
   pointer-events="none"
   class="st8"
   d="m 1068.7,236.7 v -91.2 c 0,-6.7 3.3,-10 10,-10 l 149.6,0.1"
   id="path88" />
	<path
   pointer-events="none"
   class="st9"
   d="m 1068.7,236.7 v -91.2 c 0,-6.7 3.3,-10 10,-10 l 149.6,0.1"
   id="path89" />
	<path
   pointer-events="none"
   class="st23"
   d="m 1004.5,303.2 h 108 c 6.7,0 10,-3.3 10,-10 V 62.5 c 0,-6.7 3.3,-10 10,-10 h 95.9"
   id="path90" />
	<path
   pointer-events="none"
   class="st11"
   d="m 1027.5,93.7 h -46 c -5,0 -9,-4 -9,-9 v 0 c 0,-5 4,-9 9,-9 h 46 c 5,0 9,4 9,9 v 0 c 0,5 -4,9 -9,9 z"
   id="path91" />
	<g
   transform="translate(-0.5,-0.5)"
   id="g92">
		<text
   transform="translate(977.2687,55.8001)"
   class="st4"
   id="text92"><tspan
     x="0"
     y="0"
     class="st5 st6"
     id="tspan91">Proteomics</tspan><tspan
     x="18.299999"
     y="14.4"
     class="st5 st6"
     id="tspan92">LFQ</tspan></text>
	</g>
	<path
   pointer-events="none"
   class="st11"
   d="m 1228.4,142.8 v 0 c -5.5,0 -9.9,-4.4 -9.9,-9.9 v -9.4 c 0,-5.5 4.4,-9.9 9.9,-9.9 v 0 c 5.5,0 9.9,4.4 9.9,9.9 v 9.4 c 0,5.5 -4.5,9.9 -9.9,9.9 z"
   id="path92" />
	<g
   transform="translate(-0.5,-0.5)"
   id="g93">
		<text
   transform="translate(1212.501,110.7023)"
   class="st5 st6"
   id="text93">mzTab</text>
	</g>
	<path
   pointer-events="none"
   class="st11"
   d="m 1068.7,245.7 v 0 c -5,0 -9,-4 -9,-9 v 0 c 0,-5 4,-9 9,-9 v 0 c 5,0 9,4 9,9 v 0 c 0,5 -4,9 -9,9 z"
   id="path93" />
	<g
   transform="translate(-0.5,-0.5)"
   id="g94">
		<text
   transform="translate(1050.1892,258.064)"
   class="st4"
   id="text94"><tspan
     x="0"
     y="0"
     class="st5 st6"
     id="tspan93">Protein</tspan><tspan
     x="-7"
     y="14.4"
     class="st5 st6"
     id="tspan94">Quantifier</tspan></text>
	</g>
	<path
   pointer-events="none"
   class="st0"
   d="m 1004.5,303.2 h 108 c 6.7,0 10,-3.3 10,-10 V 62.5 c 0,-6.7 3.3,-10 10,-10 h 95.9"
   id="path94" />
	<path
   pointer-events="none"
   class="st11"
   d="m 1228.4,59.8 v 0 c -5.5,0 -9.9,-4.4 -9.9,-9.9 v -9.4 c 0,-5.5 4.4,-9.9 9.9,-9.9 v 0 c 5.5,0 9.9,4.4 9.9,9.9 V 50 c 0,5.4 -4.5,9.8 -9.9,9.8 z"
   id="path95" />
	<g
   transform="translate(-0.5,-0.5)"
   id="g95">
		<text
   transform="translate(1216.7256,27.7023)"
   class="st5 st6"
   id="text95">Triqler</text>
	</g>
	<path
   pointer-events="none"
   class="st0"
   d="m 1004.5,303.2 h 108 c 6.7,0 10,-3.3 10,-10 v -49.9 c 0,-6.7 3.3,-10 10,-10 h 95.7"
   id="path96" />
	<path
   pointer-events="none"
   class="st11"
   d="m 1228.4,241.7 v 0 c -5.5,0 -9.9,-4.4 -9.9,-9.9 v -22.2 c 0,-5.5 4.4,-9.9 9.9,-9.9 v 0 c 5.5,0 9.9,4.4 9.9,9.9 v 22.2 c 0,5.5 -4.5,9.9 -9.9,9.9 z"
   id="path97" />
	<g
   transform="translate(-0.5,-0.5)"
   id="g97">
		<text
   transform="translate(1211.499,196.7023)"
   class="st5 st6"
   id="text97">MSstats</text>
	</g>
	<path
   pointer-events="none"
   class="st11"
   d="m 1027.5,312.2 h -46 c -5,0 -9,-4 -9,-9 v 0 c 0,-5 4,-9 9,-9 h 46 c 5,0 9,4 9,9 v 0 c 0,4.9 -4,9 -9,9 z"
   id="path98" />
	<g
   transform="translate(-0.5,-0.5)"
   id="g99">
		<text
   transform="translate(986.6115,326.8999)"
   class="st4"
   id="text99"><tspan
     x="0"
     y="0"
     class="st5 st6"
     id="tspan98">DIA-NN</tspan><tspan
     x="-4"
     y="14.4"
     class="st5 st6"
     id="tspan99">summary</tspan></text>
	</g>
	<path
   pointer-events="stroke"
   class="st0"
   d="m 339.5,302.7 36.4,-0.6 c 3.1,0 5.5,-2.1 7.3,-6.1 l 10.7,-24.1 c 1.8,-4 4.2,-6.1 7.3,-6.2 l 19.5,-0.7"
   id="path99" />
	<path
   pointer-events="stroke"
   class="st0"
   d="m 448.9,265.6 19.5,0.7 c 3.1,0.1 5.5,2.2 7.3,6.2 l 10.7,24.1 c 1.8,4 4.2,6.1 7.3,6.1 l 36.4,0.6"
   id="path100" />
	<g
   transform="translate(-0.5,-0.5)"
   id="g101">
		<text
   transform="translate(693.1339,361.1944)"
   class="st4"
   id="text101"><tspan
     x="0"
     y="0"
     class="st5 st6"
     id="tspan100">DIA-NN</tspan><tspan
     x="-40.400002"
     y="14.4"
     class="st5 st6"
     id="tspan101">individual final analysis</tspan></text>
	</g>
	<path
   pointer-events="stroke"
   class="st0"
   d="m 605.3,303.4 36.4,-0.6 c 3.1,0 5.5,-2.1 7.3,-6.1 l 10.7,-24.1 c 1.8,-4 4.2,-6.1 7.3,-6.2 l 19.5,-0.7"
   id="path101" />
<text
   class="st5 st6"
   id="text32-7"
   style="font-size:12px;font-family:ArialMT"
   x="436.07867"
   y="108.57561">SAGE</text></g>
<path
   class="st24"
   d="M0,0"
   id="path102" />
<path
   class="st4"
   d="M0,0"
   id="path103" />
<path
   pointer-events="none"
   class="st12"
   d="M447.3,273.2h-20c-5,0-9-4-9-9l0,0c0-5,4-9,9-9h20c5,0,9,4,9,9l0,0  C456.3,269.2,452.3,273.2,447.3,273.2z"
   id="path104" />
<rect
   x="386.3"
   y="249.3"
   class="st25"
   width="100.6"
   height="95.4"
   id="rect104" />
<rect
   x="392.7"
   y="314.9"
   class="st1"
   width="86.7"
   height="23"
   id="rect105" />
<text
   transform="matrix(1 0 0 1 425.1731 323.5172)"
   class="st5 st26"
   id="text105">Job n</text>
<text
   transform="matrix(1 0 0 1 413.7731 335.5172)"
   class="st5 st26"
   id="text106">In Parallel</text>
<rect
   x="403.9"
   y="274.8"
   class="st1"
   width="65.4"
   height="26.4"
   id="rect106" />
<text
   transform="matrix(1 0 0 1 425.7574 283.3742)"
   class="st5 st26"
   id="text107">Job 1</text>
<text
   transform="matrix(1 0 0 1 426.5574 289.3742)"
   class="st5 st6"
   id="text108">......</text>
<g
   id="g112">
	<g
   id="g111">
		<defs
   id="defs108">
			<rect
   id="SVGID_1_"
   y="27.1"
   width="35"
   height="37.5" />
		</defs>
		<clipPath
   id="SVGID_2_">
			<use
   xlink:href="#SVGID_1_"
   style="overflow:visible;"
   id="use108" />
		</clipPath>
		<g
   transform="translate(-395 -198)"
   class="st27"
   clip-path="url(#SVGID_2_)"
   id="g110">
			<path
   class="st28"
   d="M398,225.9h17.4l11.2,11.2v25.3H398V225.9z"
   id="path108" />
			<path
   class="st29"
   d="M395.5,244.2c0-1,0.8-1.8,1.8-1.8h30.2c1,0,1.8,0.8,1.8,1.8v7.4c0,1-0.8,1.8-1.8,1.8h-30.2     c-1,0-1.8-0.8-1.8-1.8V244.2z"
   id="path109" />
			<text
   transform="matrix(1 0 0 1 401.0742 250.4081)"
   class="st15 st5 st30"
   id="text109">mzML</text>
			<path
   class="st29"
   d="M415.5,236.7v-10.7l11.1,10.7H415.5z"
   id="path110" />
		</g>
	</g>
</g>
<g
   id="g116">
	<g
   id="g115">
		<defs
   id="defs112">
			<rect
   id="SVGID_3_"
   y="119.1"
   width="35"
   height="37.5" />
		</defs>
		<clipPath
   id="SVGID_4_">
			<use
   xlink:href="#SVGID_3_"
   style="overflow:visible;"
   id="use112" />
		</clipPath>
		<g
   transform="translate(-395 -198)"
   class="st31"
   clip-path="url(#SVGID_4_)"
   id="g114">
			<path
   class="st28"
   d="M398,318h17.4l11.2,11.2v25.3H398V318z"
   id="path112" />
			<path
   class="st29"
   d="M395.5,336.3c0-1,0.8-1.8,1.8-1.8h30.2c1,0,1.8,0.8,1.8,1.8v7.4c0,1-0.8,1.8-1.8,1.8h-30.2     c-1,0-1.8-0.8-1.8-1.8V336.3z"
   id="path113" />
			<text
   transform="matrix(1 0 0 1 405.7471 342.457)"
   class="st15 st5 st30"
   id="text113">raw</text>
			<path
   class="st29"
   d="M415.5,328.7V318l11.1,10.7H415.5z"
   id="path114" />
		</g>
	</g>
</g>
<g
   id="g120">
	<g
   id="g119">
		<defs
   id="defs116">
			<rect
   id="SVGID_5_"
   y="256"
   width="35"
   height="37.5" />
		</defs>
		<clipPath
   id="SVGID_6_">
			<use
   xlink:href="#SVGID_5_"
   style="overflow:visible;"
   id="use116" />
		</clipPath>
		<g
   transform="translate(-395 -198)"
   class="st32"
   clip-path="url(#SVGID_6_)"
   id="g118">
			<path
   class="st28"
   d="M398,454.9h17.4l11.2,11.2v25.3H398V454.9z"
   id="path116" />
			<path
   class="st29"
   d="M395.5,473.2c0-1,0.8-1.8,1.8-1.8h30.2c1,0,1.8,0.8,1.8,1.8v7.4c0,1-0.8,1.8-1.8,1.8h-30.2     c-1,0-1.8-0.8-1.8-1.8V473.2z"
   id="path117" />
			<text
   transform="matrix(1 0 0 1 403.6936 479.4068)"
   class="st15 st5 st30"
   id="text117">fasta</text>
			<path
   class="st29"
   d="M415.5,465.7v-10.7l11.1,10.7H415.5z"
   id="path118" />
		</g>
	</g>
</g>
<g
   id="g124">
	<g
   id="g123">
		<defs
   id="defs120">
			<rect
   id="SVGID_7_"
   x="1248.4"
   y="31.8"
   width="25"
   height="26.8" />
		</defs>
		<clipPath
   id="SVGID_8_">
			<use
   xlink:href="#SVGID_7_"
   style="overflow:visible;"
   id="use120" />
		</clipPath>
		<g
   transform="translate(-395 -198)"
   class="st33"
   clip-path="url(#SVGID_8_)"
   id="g122">
			<path
   class="st28"
   d="M1645.6,230.4h12.4l8,8v18h-20.4V230.4z"
   id="path120" />
			<path
   class="st29"
   d="M1643.8,243.5c0-0.7,0.6-1.3,1.3-1.3h21.6c0.7,0,1.3,0.6,1.3,1.3v5.3c0,0.7-0.6,1.3-1.3,1.3h-21.6     c-0.7,0-1.3-0.6-1.3-1.3V243.5z"
   id="path121" />
			<text
   transform="matrix(1 0 0 1 1652.1426 247.9196)"
   class="st15 st5 st34"
   id="text121">tsv</text>
			<path
   class="st29"
   d="M1658.1,238.1v-7.7l7.9,7.7H1658.1z"
   id="path122" />
		</g>
	</g>
</g>
<g
   id="g128">
	<g
   id="g127">
		<defs
   id="defs124">
			<rect
   id="SVGID_9_"
   x="1248.4"
   y="115.2"
   width="25"
   height="26.3" />
		</defs>
		<clipPath
   id="SVGID_10_">
			<use
   xlink:href="#SVGID_9_"
   style="overflow:visible;"
   id="use124" />
		</clipPath>
		<g
   transform="translate(-394 -198)"
   class="st35"
   clip-path="url(#SVGID_10_)"
   id="g126">
			<path
   class="st28"
   d="M1644.8,313.8h12.2l7.8,7.8v17.7h-20V313.8z"
   id="path124" />
			<path
   class="st29"
   d="M1643,326.6c0-0.7,0.6-1.3,1.3-1.3h21.2c0.7,0,1.3,0.6,1.3,1.3v5.2c0,0.7-0.6,1.3-1.3,1.3h-21.2     c-0.7,0-1.3-0.6-1.3-1.3V326.6z"
   id="path125" />
			<text
   transform="matrix(1 0 0 1 1646.1141 330.9249)"
   class="st15 st5 st36"
   id="text125">mzTab</text>
			<path
   class="st29"
   d="M1657,321.3v-7.5l7.8,7.5H1657z"
   id="path126" />
		</g>
	</g>
</g>
<g
   id="g132">
	<g
   id="g131">
		<defs
   id="defs128">
			<rect
   id="SVGID_11_"
   x="1248.4"
   y="207.2"
   width="25"
   height="26.8" />
		</defs>
		<clipPath
   id="SVGID_12_">
			<use
   xlink:href="#SVGID_11_"
   style="overflow:visible;"
   id="use128" />
		</clipPath>
		<g
   transform="translate(-395 -198)"
   class="st37"
   clip-path="url(#SVGID_12_)"
   id="g130">
			<path
   class="st28"
   d="M1645.6,405.8h12.4l8,8v18h-20.4V405.8z"
   id="path128" />
			<path
   class="st29"
   d="M1643.8,418.9c0-0.7,0.6-1.3,1.3-1.3h21.6c0.7,0,1.3,0.6,1.3,1.3v5.3c0,0.7-0.6,1.3-1.3,1.3h-21.6     c-0.7,0-1.3-0.6-1.3-1.3V418.9z"
   id="path129" />
			<text
   transform="matrix(1 0 0 1 1652.1426 423.3196)"
   class="st15 st5 st34"
   id="text129">tsv</text>
			<path
   class="st29"
   d="M1658.1,413.5v-7.7l7.9,7.7H1658.1z"
   id="path130" />
		</g>
	</g>
</g>
<path
   pointer-events="none"
   class="st12"
   d="M734.2,311.7h-41.8c-5,0-9-4-9-9l0,0c0-5,4-9,9-9h41.8c5,0,9,4,9,9l0,0  C743.2,307.7,739.2,311.7,734.2,311.7z"
   id="path132" />
<rect
   x="646.2"
   y="249.3"
   class="st25"
   width="140.5"
   height="95.4"
   id="rect132" />
<path
   pointer-events="none"
   class="st12"
   d="M734.2,274.6h-41.8c-5,0-9-4-9-9l0,0c0-5,4-9,9-9h41.8c5,0,9,4,9,9l0,0  C743.2,270.6,739.2,274.6,734.2,274.6z"
   id="path133" />
<text
   transform="matrix(1 0 0 1 699.9999 285.0002)"
   class="st5 st26"
   id="text133">Job 1</text>
<text
   transform="matrix(1 0 0 1 700.7999 291.0002)"
   class="st5 st6"
   id="text134">......</text>
<text
   transform="matrix(1 0 0 1 697.7684 323.5168)"
   class="st5 st26"
   id="text135">Job n</text>
<text
   transform="matrix(1 0 0 1 665.2527 335.5168)"
   class="st5 st26"
   id="text136">        In Parallel</text>
<path
   pointer-events="none"
   class="st12"
   d="M209,481.6L209,481.6c-5,0-9-4-9-9l0,0c0-5,4-9,9-9l0,0c5,0,9,4,9,9l0,0  C218,477.6,214,481.6,209,481.6z"
   id="path136" />
</svg>
