<?xml version="1.0" encoding="utf-8"?>
<!-- Generator: Adobe Illustrator 24.0.1, SVG Export Plug-In . SVG Version: 6.00 Build 0)  -->
<svg version="1.1" id="图层_1" xmlns="http://www.w3.org/2000/svg" xmlns:xlink="http://www.w3.org/1999/xlink" x="0px" y="0px"
	 viewBox="0 0 1283 507" style="enable-background:new 0 0 1283 507;" xml:space="preserve">
<style type="text/css">
	.st0{fill:none;stroke:#53A567;stroke-width:10;stroke-miterlimit:10;}
	.st1{fill:none;}
	.st2{fill:none;stroke:#CDA2BE;stroke-width:0.5;stroke-linecap:round;stroke-linejoin:round;stroke-miterlimit:10;}
	.st3{fill:none;stroke:#9673A6;stroke-linecap:round;stroke-linejoin:round;stroke-miterlimit:10;stroke-dasharray:3,3;}
	.st4{enable-background:new    ;}
	.st5{font-family:'ArialMT';}
	.st6{font-size:12px;}
	.st7{fill:none;stroke:#56A8CB;stroke-width:10;stroke-miterlimit:10;}
	.st8{fill:none;stroke:#FFFFFF;stroke-width:13;stroke-miterlimit:10;}
	.st9{fill:none;stroke:#DA291C;stroke-width:11;stroke-miterlimit:10;}
	.st10{fill:none;stroke:#E1D5E7;stroke-width:0.5;stroke-linecap:round;stroke-linejoin:round;stroke-miterlimit:10;}
	.st11{fill:#FFFFFF;stroke:#000000;}
	.st12{fill:#FFBE7A;stroke:#000000;}
	.st13{fill:none;stroke:#DA291C;stroke-width:10;stroke-miterlimit:10;}
	.st14{fill:#FFBE7A;stroke:#000000;stroke-width:1.5;stroke-dasharray:4.5,4.5;}
	.st15{fill:#FFFFFF;}
	.st16{fill:none;stroke:#000000;stroke-linecap:round;stroke-linejoin:round;stroke-miterlimit:10;stroke-dasharray:3,3;}
	.st17{font-family:'Arial-BoldMT';}
	.st18{fill:none;stroke:#53A567;stroke-width:10;stroke-linecap:round;stroke-linejoin:round;stroke-miterlimit:10;}
	.st19{fill:none;stroke:#DA291C;stroke-width:11;stroke-linecap:round;stroke-linejoin:round;stroke-miterlimit:10;}
	.st20{fill:none;stroke:#56A8CB;stroke-width:10;stroke-linecap:round;stroke-linejoin:round;stroke-miterlimit:10;}
	.st21{font-family:'ArialNarrow-Bold';}
	.st22{fill:#FFFFFF;stroke:#000000;stroke-dasharray:3,3;}
	.st23{fill:none;stroke:#FFFFFF;stroke-width:12;stroke-miterlimit:10;}
	.st24{fill:none;stroke:#53A567;stroke-width:10;stroke-miterlimit:10;enable-background:new    ;}
	.st25{fill:none;stroke:#CDA2BE;stroke-linecap:round;stroke-linejoin:round;stroke-miterlimit:10;stroke-dasharray:3,3;}
	.st26{font-size:10px;}
	.st27{clip-path:url(#SVGID_2_);}
	.st28{fill-rule:evenodd;clip-rule:evenodd;fill:#FFFFFF;stroke:#2F528F;stroke-width:1.3333;stroke-miterlimit:8;}
	.st29{fill-rule:evenodd;clip-rule:evenodd;stroke:#2F528F;stroke-width:1.3333;stroke-miterlimit:8;}
	.st30{font-size:8.5714px;}
	.st31{clip-path:url(#SVGID_4_);}
	.st32{clip-path:url(#SVGID_6_);}
	.st33{clip-path:url(#SVGID_8_);}
	.st34{font-size:6.1224px;}
	.st35{clip-path:url(#SVGID_10_);}
	.st36{font-size:6px;}
	.st37{clip-path:url(#SVGID_12_);}
</style>
<path pointer-events="stroke" class="st0" d="M742,265.6l17.4,0.7c2.8,0.1,4.9,2.2,6.5,6.2l9.6,24.1c1.6,4,3.8,6.1,6.5,6.1l32.5,0.6
	"/>
<g>
	<rect x="404.5" y="30.7" pointer-events="all" class="st1" width="103" height="158"/>
	<path pointer-events="all" class="st2" d="M404.7,30.5L404.7,30.5 M404.7,30.5L404.7,30.5 M404.5,36.9c2.7-2.4,4.1-5.1,5.3-6
		 M404.5,36.9c2.1-2.7,4.4-4.8,5.3-6 M404.2,43.3c4.6-4.1,5.7-5.8,11.1-12.8 M404.2,43.3c3.2-4,5.5-7.8,11.1-12.8 M404.6,48.9
		c5.3-4.7,11.3-13,15.8-18.1 M404.6,48.9c4.7-6.2,10.2-12.3,15.8-18.1 M404.3,55.3c9.3-9.5,14-16.4,21.6-24.9 M404.3,55.3
		c6.1-8,12.1-14,21.6-24.9 M404.7,60.9c8-12.2,21.6-21.6,26.3-30.2 M404.7,60.9c7.8-8.7,13.7-14.4,26.3-30.2 M404.5,67.3
		c10-10.3,20.6-24.3,32.1-37 M404.5,67.3c11.2-12.4,21.4-24.8,32.1-37 M404.2,73.7c12.5-9.7,18.8-22.7,37.4-43 M404.2,73.7
		c10.2-13.1,21.6-25.4,37.4-43 M404.6,79.4c13.2-16.3,28.4-32.3,42-48.3 M404.6,79.4c9.1-9.9,18.1-19.8,42-48.3 M404.3,85.8
		c19.1-23.6,39.3-45,47.9-55.1 M404.3,85.8c9.6-12.5,19.4-23.3,47.9-55.1 M404.7,91.4c16.8-21,35.9-39.1,52.5-60.4 M404.7,91.4
		C418.1,75.5,431.3,60,457.2,31 M404.5,97.8c10.9-14.4,23.7-27.3,58.4-67.2 M404.5,97.8c20.9-24.5,39.9-47.6,58.4-67.2 M404.2,104.2
		c16.9-16.9,32.1-36.9,63.6-73.2 M404.2,104.2c13.3-15.6,27.4-30,63.6-73.2 M404.6,109.9c24.3-25.6,46.6-52.2,68.9-79.3
		 M404.6,109.9c18.9-20.6,37.8-44.3,68.9-79.3 M404.3,116.3c29.4-34.4,56.5-67.6,74.1-85.3 M404.3,116.3
		c24.6-27.1,48-55.6,74.1-85.3 M404.7,121.9c21.1-21.5,39.1-45.2,79.4-91.3 M404.7,121.9c26.5-29.5,52.7-57.6,79.4-91.3
		 M404.5,128.3c31.1-37.6,63.6-73.1,84.6-97.4 M404.5,128.3c19.5-22,38.3-45.5,84.6-97.4 M404.2,134.7
		c19.5-25.2,44.6-49.3,90.5-104.2 M404.2,134.7c23.6-27.1,48-56.2,90.5-104.2 M404.6,140.3c34.3-35.7,66.2-72.4,95.1-109.4
		 M404.6,140.3c26-30.9,52.4-60.3,95.1-109.4 M404.3,146.7c24.8-27.4,46.4-53,101-116.2 M404.3,146.7c24-28.8,47.2-56.5,101-116.2
		 M404.7,152.4c40.2-48.3,80.2-94,104.3-120 M404.7,152.4c22.2-25.8,43.6-49.7,104.3-120 M404.5,158.8c37-42.7,76.4-84.7,105-120.8
		 M404.5,158.8c24.3-26.3,47-52.2,105-120.8 M404.2,165.2c21.8-24.5,46.6-49.8,105-120.8 M404.2,165.2c27-31.7,54.6-61.5,105-120.8
		 M404.6,170.8c38.7-47.5,79.6-92.1,104.3-120 M404.6,170.8c36.5-42.1,73.6-83.8,104.3-120 M404.3,177.2
		c28.9-34.3,60.5-67.3,105-120.8 M404.3,177.2c29.3-36.3,59.9-71.1,105-120.8 M404.7,182.9c27-33.3,57.6-67,104.3-120 M404.7,182.9
		c22.8-23.7,44.5-49.8,104.3-120 M404.5,189.3c20.3-26,46.6-51.1,105-120.8 M404.5,189.3c25.8-29.7,52.5-59.9,105-120.8
		 M410.1,188.9c31.2-32.5,60.5-66.5,99.1-114 M410.1,188.9c33.1-37.3,64.2-74.9,99.1-114 M415.1,189.2
		c22.7-26.4,47.2-54.6,93.8-107.9 M415.1,189.2c25.2-30.7,50.5-59.9,93.8-107.9 M420.8,188.8c22.7-24.1,42-49.2,88.6-101.9
		 M420.8,188.8c26.2-30.9,55.1-62.3,88.6-101.9 M425.7,189.2c29.8-32,57.1-63.8,83.3-95.9 M425.7,189.2
		c19.8-21.5,37.6-44.7,83.3-95.9 M431.4,188.8c28.4-31.6,55.3-60.9,78.1-89.8 M431.4,188.8c23.7-26.4,46.8-52.1,78.1-89.8
		 M436.4,189.2c20.4-21.5,37-40.3,72.8-83.8 M436.4,189.2c27.4-31.2,53.5-62.5,72.8-83.8 M442,188.8c20.9-25.6,42.3-49.4,66.9-77
		 M442,188.8c17.1-21,33.4-40,66.9-77 M447,189.1c20-24.6,39.3-44.9,62.3-71.7 M447,189.1c14.9-17.6,31.6-34.3,62.3-71.7
		 M452.6,188.7c16-19.6,33.3-37,56.4-64.9 M452.6,188.7c20.8-23.1,40.3-46.7,56.4-64.9 M457.6,189.1c12.8-15.2,27-27.7,51.8-59.6
		 M457.6,189.1c10-12.5,22.6-25,51.8-59.6 M463.3,188.7c14.2-17.8,31-34.9,45.9-52.8 M463.3,188.7c17-21.3,36.6-41.3,45.9-52.8
		 M468.3,189.1c11.8-13.3,24.3-26.4,40.7-46.8 M468.3,189.1c14-16.2,26-30.7,40.7-46.8 M473.9,188.7c8.7-8.8,18.1-19.9,35.4-40.8
		 M473.9,188.7c9.8-11.3,21.6-24.7,35.4-40.8 M478.9,189c9.7-11.3,20.1-20.6,30.2-34.7 M478.9,189c7.5-9.7,14.8-18.6,30.2-34.7
		 M484.5,188.6c8.3-8.4,19.6-22.3,24.9-28.7 M484.5,188.6c7.4-8.7,14.2-16.4,24.9-28.7 M489.5,189c6-6.2,12.8-14.5,19.7-22.6
		 M489.5,189c7.5-8.1,13-16.4,19.7-22.6 M495.2,188.6c3.9-6.8,8.4-8.5,13.8-15.8 M495.2,188.6c3.6-4.9,6.9-9.8,13.8-15.8
		 M500.1,188.9c3-1.5,4.7-3.6,9.2-10.6 M500.1,188.9c3.5-4,6.8-8.1,9.2-10.6 M505.8,188.6c0.5-0.8,1.3-2.4,3.3-3.8 M505.8,188.6
		c0.8-1.2,2-2.4,3.3-3.8"/>
	<path pointer-events="all" class="st3" d="M404.5,30.7c29.2,1,58.4-1.9,103,0 M404.5,30.7c29.2-0.4,58-1.6,103,0 M507.5,30.7
		c1,47,1.3,92.7,0,158 M507.5,30.7c0.8,45.3,0.9,90.8,0,158 M507.5,188.7c-31,0.5-59.8,2-103,0 M507.5,188.7
		c-39.6-0.5-81.9-0.1-103,0 M404.5,188.7c-2.1-54.7-1.7-111.5,0-158 M404.5,188.7c1.7-46.7,0.7-91.2,0-158"/>
	<g transform="translate(-0.5 -0.5)">
		<text transform="matrix(1 0 0 1 413.1094 12.4827)" class="st4"><tspan x="0" y="0" class="st5 st6">Search engines</tspan><tspan x="6.7" y="14.4" class="st5 st6">(at least one)</tspan></text>
		<polygon class="st1" points="459.9,25.4 454.8,25.4 454.8,25.4 459.9,25.4 		"/>
	</g>
	<path pointer-events="stroke" class="st7" d="M165.4,260.5l104.1-0.8c6.7,0,10.7-3.3,12-9.9l23.9-115.4c1.4-6.5,5.4-9.8,12-9.8h15"
		/>
	<path pointer-events="stroke" class="st7" d="M279.2,124.5l62.3,0.2c6.7,0,12.8,1.8,18.5,5.3l34.1,21.4c5.6,3.5,11.8,5.3,18.5,5.3
		l43.5-0.2"/>
	<path pointer-events="stroke" class="st7" d="M279.2,124.5l68.3,0.2c6.7,0,12-2.6,16.1-7.9l27.8-36.1c4.1-5.3,9.4-7.9,16.1-8
		l48.5-0.1"/>
	<path pointer-events="stroke" class="st8" d="M279.2,139.6l78.3,0.1c6.7,0,12-2.7,16-8l26.1-35c4-5.3,9.3-8,16-8l40.5-0.1"/>
	<path pointer-events="stroke" class="st9" d="M279.2,139.6l65.3,1c6.7,0.1,11.5,3.1,14.5,9.1l39.1,78.1c3,6,7.8,8.9,14.5,8.9h31.1"
		/>
	<path pointer-events="stroke" class="st9" d="M165.4,276.6l114.1-0.8c6.7,0,10.8-3.3,12.3-9.8l26.5-114.5
		c1.5-6.5,5.4-10.1,11.8-10.7l9.5-1"/>
	<path pointer-events="stroke" class="st8" d="M279.2,154.7h41.3c6.7,0,10.7,3.3,12,9.8l23.9,115.4c1.4,6.5,5.3,10.3,11.9,11.4
		l75.2,11.9"/>
	<rect x="654.5" y="30.7" pointer-events="all" class="st1" width="132" height="158"/>
	<path pointer-events="all" class="st10" d="M654.7,30.5L654.7,30.5 M654.7,30.5L654.7,30.5 M654.4,36.9c1.2-2.4,2.3-3.4,5.3-6
		 M654.4,36.9c1.6-2.4,4.1-4.1,5.3-6 M654.2,43.3c5.4-4.6,8.5-8.5,11.2-12.8 M654.2,43.3c2.5-4.1,5.3-6.6,11.2-12.8 M654.6,48.9
		c5.5-7.3,9.5-12.4,15.8-18.1 M654.6,48.9c3.7-5.2,8.5-11.7,15.8-18.1 M654.3,55.3c5.7-4,8.2-8.5,21.7-24.9 M654.3,55.3
		C659.2,50,663,44,676,30.4 M654.7,61c7.8-8.4,15.7-16.9,26.3-30.2 M654.7,61c6.5-7.3,14.3-16.4,26.3-30.2 M654.4,67.4
		c12.1-11.9,22.1-24,32.2-37 M654.4,67.4c10.2-11.6,20.6-24.9,32.2-37 M654.2,73.8c10.1-9.2,17.6-18.9,37.4-43 M654.2,73.8
		c9.4-11,21.2-23,37.4-43 M654.6,79.4c16.4-15.7,29.8-33.8,42.6-49.1 M654.6,79.4c12.4-13.8,23.7-27.2,42.6-49.1 M654.3,85.8
		c12.8-15.4,28-29.6,47.9-55.1 M654.3,85.8c11.2-13.8,22.6-27,47.9-55.1 M654.7,91.4C672,70.3,693.3,46.8,707.2,31 M654.7,91.4
		c16.9-19.3,32.6-37.7,52.5-60.4 M654.5,97.8c18.4-20.3,37.3-42.7,58.4-67.2 M654.5,97.8c15.8-16,31-33.8,58.4-67.2 M654.2,104.2
		C677.3,75,700.1,49.1,717.8,31 M654.2,104.2c24.4-27,50.7-55.8,63.6-73.2 M654.6,109.9c23.4-24.4,45.8-50.3,68.9-79.3 M654.6,109.9
		c25.7-28.7,50.6-58.5,68.9-79.3 M654.3,116.3C670,97.2,687.8,76.7,728.5,31 M654.3,116.3c22.8-26,44.9-51.1,74.1-85.3 M654.7,121.9
		c29.8-32,58.8-65.2,79.4-91.3 M654.7,121.9c28.2-32.8,55.6-64.6,79.4-91.3 M654.5,128.3c30.1-33.5,59.8-69.1,84.6-97.4
		 M654.5,128.3c23-26.8,44.8-54.9,84.6-97.4 M654.2,134.7c35.6-39.3,69.6-78.9,90.5-104.2 M654.2,134.7
		C689,94.5,723,56.1,744.7,30.5 M654.6,140.4C676.4,119.5,694.4,95,749.7,31 M654.6,140.4c24-25,45.9-50.2,95.1-109.4 M654.3,146.8
		c27.3-31.7,52.9-59.4,101-116.2 M654.3,146.8c32.7-36.9,66.3-75.5,101-116.2 M654.7,152.4c24-25.6,45.9-54.1,105.6-121.5
		 M654.7,152.4C687,113.3,721.8,75,760.3,30.9 M654.5,158.8C690.6,117.6,726.9,78,766,30.5 M654.5,158.8
		c30.5-35,59.8-69.3,111.5-128.3 M654.2,165.2C699,114.9,741.3,61.2,771,30.9 M654.2,165.2C692.5,119,732.4,74.7,771,30.9
		 M654.6,170.8c24.6-33.2,54.2-62.9,122-140.4 M654.6,170.8c22.5-27.7,46.8-55.9,122-140.4 M654.3,177.2
		c45-52.3,87.8-102.9,127.3-146.4 M654.3,177.2C696.2,126.4,741,75.3,781.6,30.8 M654.7,182.9c44.8-49.5,88.5-100.5,131.9-151.7
		 M654.7,182.9c38.7-42.5,75.4-85.5,131.9-151.7 M654.5,189.3c44.1-49.6,86.9-99.5,132.5-152.5 M654.5,189.3
		c32.1-39.5,65.9-78.2,132.5-152.5 M660.1,188.9c34-39.1,68.1-79.4,126.6-145.7 M660.1,188.9c28.7-34.8,57.7-68.5,126.6-145.7
		 M665.1,189.2c39.8-48.6,83.5-98.4,121.4-139.6 M665.1,189.2C693,155.6,720,123.8,786.5,49.6 M670.7,188.8
		C717.5,138,765.1,82.5,786.9,55.3 M670.7,188.8c38.4-40.8,73.2-83.3,116.1-133.6 M675.7,189.2c22.2-27.5,45.1-52.6,110.9-127.6
		 M675.7,189.2c32.2-37.1,64-73.4,110.9-127.6 M681.4,188.8c34.3-39.7,72.2-80.2,105.6-121.5 M681.4,188.8
		c34.5-40.7,71-83.2,105.6-121.5 M686.3,189.2c35-37.8,67.6-77.8,100.4-115.5 M686.3,189.2c31-35.5,62.3-70.4,100.4-115.5
		 M692,188.8c22.1-23,43-49.6,94.5-108.7 M692,188.8c27.5-32.5,55.8-65.9,94.5-108.7 M697,189.1c28.3-35.2,58.5-69,89.9-103.4
		 M697,189.1c35.3-41.1,71.1-82.6,89.9-103.4 M702.6,188.7c23.5-27.4,49.4-58,84-96.6 M702.6,188.7c25-28.4,51-57.1,84-96.6
		 M707.6,189.1c34.3-37.9,65.1-70.9,79.4-91.3 M707.6,189.1c28.3-32.1,56.5-63.6,79.4-91.3 M713.3,188.7
		c19.4-24.9,43.9-49.7,73.5-84.5 M713.3,188.7c16.1-19.3,32.6-38.8,73.5-84.5 M718.2,189.1c24.1-25.1,47.2-53.5,68.2-78.5
		 M718.2,189.1c26.8-29.8,53.2-59.6,68.2-78.5 M723.9,188.7c13.5-16.3,26.5-31,63-72.5 M723.9,188.7c19.2-22.1,38-45.2,63-72.5
		 M728.9,189c21.2-22.6,42.9-48.1,57.7-66.4 M728.9,189c22.5-24.7,44.9-51.4,57.7-66.4 M734.5,188.6c23-25.9,42.8-49.9,52.5-60.4
		 M734.5,188.6c17.3-21.1,35.5-41.3,52.5-60.4 M739.5,189c10.4-13.3,21.5-24.8,47.2-54.3 M739.5,189c14.2-15.8,27.9-32.9,47.2-54.3
		 M745.2,188.6c9.9-12.8,21.9-24.1,41.3-47.5 M745.2,188.6c10.3-11.8,20.4-23.5,41.3-47.5 M750.1,189c12.8-17.7,29.4-32.6,36.7-42.3
		 M750.1,189c12.5-13.4,21.8-24.6,36.7-42.3 M755.8,188.6c11.2-12,21.2-21.7,30.8-35.5 M755.8,188.6c11-11.6,20-23.4,30.8-35.5
		 M760.8,188.9c11.3-13.3,19-24.4,26.3-30.2 M760.8,188.9c6.2-7.6,12-13.9,26.3-30.2 M765.8,189.3c8.9-8.2,16.3-20,21-24.2
		 M765.8,189.3c5.3-5.8,10-11.9,21-24.2 M771.4,188.9c1.7-4.3,5.3-8.5,15.1-17.4 M771.4,188.9c3.7-3.3,7.1-8.4,15.1-17.4
		 M776.4,189.3c4.4-3.5,8.8-9.1,10.5-12.1 M776.4,189.3c3.6-4.4,7.4-8.9,10.5-12.1 M782,188.9c1-0.9,2-3.2,4.6-5.3 M782,188.9
		c2.2-1.8,3.3-4.1,4.6-5.3"/>
	<path pointer-events="all" class="st3" d="M654.5,30.7c36.3,1,76.6,2.3,132,0 M654.5,30.7c46.1,1.5,94.2,1.5,132,0 M786.5,30.7
		c-0.5,54.7-1.3,104.7,0,158 M786.5,30.7c0.3,41.2-0.7,84.5,0,158 M786.5,188.7c-35,2-65,1-132,0 M786.5,188.7
		c-30.8-0.4-62.4-1.1-132,0 M654.5,188.7c1.5-45.3-1.6-90.9,0-158 M654.5,188.7c0.9-39.1,0.1-76.1,0-158"/>
	<g transform="translate(-0.5 -0.5)">
		<text transform="matrix(1 0 0 1 692.9383 12.4828)" class="st4"><tspan x="0" y="0" class="st5 st6">Rescoring</tspan><tspan x="-7.3" y="14.4" class="st5 st6">(exactly one)</tspan></text>
	</g>
	<path pointer-events="stroke" class="st7" d="M48.2,124.5h117"/>
	<path pointer-events="stroke" class="st9" d="M48.2,139.6l30.8,0.1l86.2-0.1"/>
	<path pointer-events="stroke" class="st0" d="M48.2,154.7h117"/>
	<path pointer-events="stroke" class="st7" d="M165.2,124.5h114"/>
	<path pointer-events="stroke" class="st9" d="M165.2,139.6h114"/>
	<path pointer-events="stroke" class="st0" d="M165.2,154.7h114"/>
	<path pointer-events="stroke" class="st7" d="M48.2,32.6l118.3,1c6.7,0.1,11.5,3.1,14.5,9l36,71.2c3,5.9,7.8,9,14.5,9.2l47.7,1.4"
		/>
	<path pointer-events="stroke" class="st9" d="M48.2,47.7l108.3,0.9c6.7,0.1,11.5,3.1,14.5,9l36,71.2c3,5.9,7.8,9,14.5,9.2l57.7,1.6
		"/>
	<path pointer-events="stroke" class="st0" d="M48.2,62.8l100.3,1.7c6.7,0.1,11.5,3.2,14.5,9.1l36.1,72.1c3,6,7.8,8.9,14.5,8.9h65.7
		"/>
	<path pointer-events="all" class="st11" d="M48.4,68.7L48.4,68.7c-5.5,0-9.9-4.4-9.9-9.9V36.6c0-5.5,4.4-9.9,9.9-9.9l0,0
		c5.5,0,9.9,4.4,9.9,9.9v22.2C58.3,64.3,53.8,68.7,48.4,68.7z"/>
	<path pointer-events="all" class="st11" d="M48.4,160.6L48.4,160.6c-5.5,0-9.9-4.4-9.9-9.9v-22.2c0-5.5,4.4-9.9,9.9-9.9l0,0
		c5.5,0,9.9,4.4,9.9,9.9v22.2C58.3,156.1,53.8,160.6,48.4,160.6z"/>
	<path pointer-events="all" class="st12" d="M165.4,160.6L165.4,160.6c-5.5,0-9.9-4.4-9.9-9.9v-22.2c0-5.5,4.4-9.9,9.9-9.9l0,0
		c5.5,0,9.9,4.4,9.9,9.9v22.2C175.3,156.1,170.8,160.6,165.4,160.6z"/>
	<g transform="translate(-0.5 -0.5)">
		<text transform="matrix(1 0 0 1 135.8686 174.7502)" class="st4"><tspan x="0" y="0" class="st5 st6">ThermoRaw</tspan><tspan x="5.3" y="14.4" class="st5 st6">FileParser</tspan></text>
	</g>
	<path pointer-events="stroke" class="st9" d="M279.2,139.6l63.3,0.1c6.7,0,12.8,1.9,18.3,5.7l30.5,20.7c5.5,3.8,11.6,5.7,18.3,5.8
		l46.5,0.6"/>
	<path pointer-events="stroke" class="st9" d="M279.2,139.6l79.3-0.8c6.7-0.1,11.9-2.8,15.8-8.2l23.4-32.7c3.9-5.4,9.1-8.2,15.8-8.4
		l42.5-0.9"/>
	<path pointer-events="stroke" class="st7" d="M456,72.5h20c6.7,0,12.6,2.1,17.7,6.4l49,41c5.1,4.3,11,6.4,17.7,6.4h20"/>
	<path pointer-events="stroke" class="st7" d="M456,156.4h20c6.7,0,13-1.4,19.1-4.2l46.3-21.6c6-2.8,12.4-4.2,19.1-4.2h20"/>
	<path pointer-events="stroke" class="st9" d="M456,172.4h20c6.7,0,13-1.4,19.1-4.2l46.3-21.6c6-2.8,12.4-4.2,19.1-4.2h20"/>
	<path pointer-events="stroke" class="st9" d="M456,88.6h20c6.7,0,12.6,2.1,17.7,6.4l49,41c5.1,4.3,11,6.4,17.7,6.4h20"/>
	<path pointer-events="all" class="st12" d="M456,179.7L456,179.7c-5.5,0-9.9-4.4-9.9-9.9v-9.4c0-5.5,4.4-9.9,9.9-9.9l0,0
		c5.5,0,9.9,4.4,9.9,9.9v9.4C465.9,175.3,461.5,179.7,456,179.7z"/>
	<g transform="translate(-0.5 -0.5)">
		<text transform="matrix(1 0 0 1 438.8311 147.7023)" class="st5 st6">Comet</text>
	</g>
	<path pointer-events="all" class="st12" d="M456,95.8L456,95.8c-5.5,0-9.9-4.4-9.9-9.9v-9.4c0-5.5,4.4-9.9,9.9-9.9l0,0
		c5.5,0,9.9,4.4,9.9,9.9V86C465.9,91.4,461.5,95.8,456,95.8z"/>
	<g transform="translate(-0.5 -0.5)">
		<text transform="matrix(1 0 0 1 437.832 63.7023)" class="st5 st6">MSGF+</text>
	</g>
	<path pointer-events="stroke" class="st7" d="M580.4,126.3h20c6.7,0,12.8-1.9,18.3-5.6l64-42.7c5.5-3.7,11.7-5.5,18.3-5.5h20"/>
	<path pointer-events="stroke" class="st13" d="M580.4,142.4h20c6.7,0,12.8,1.7,18.5,5.2l37,22.7c5.7,3.5,11.9,5.2,18.5,5.2h20"/>
	<path pointer-events="stroke" class="st7" d="M580.4,126.3h20c6.7,0,12.8,1.7,18.5,5.2l37,22.7c5.7,3.5,11.9,5.2,18.5,5.2h20"/>
	<path pointer-events="stroke" class="st13" d="M580.4,142.4h20c6.7,0,12.8-1.9,18.3-5.6l64-42.7c5.5-3.7,11.7-5.6,18.3-5.6h20"/>
	<path pointer-events="all" class="st14" d="M580.4,149.7L580.4,149.7c-5.5,0-9.9-4.4-9.9-9.9v-9.4c0-5.5,4.4-9.9,9.9-9.9l0,0
		c5.5,0,9.9,4.4,9.9,9.9v9.4C590.3,145.2,585.8,149.7,580.4,149.7z"/>
	<g transform="translate(-0.5 -0.5)">
		<text transform="matrix(1 0 0 1 544.8824 116.05)" class="st5 st6">ConsensusID</text>
	</g>
	<path pointer-events="stroke" class="st7" d="M694.4,159.5h30h-9.9h30"/>
	<path pointer-events="stroke" class="st9" d="M694.4,175.6h30h-9.9h30"/>
	<path pointer-events="all" class="st12" d="M694.4,182.8L694.4,182.8c-5.5,0-9.9-4.4-9.9-9.9v-9.4c0-5.5,4.4-9.9,9.9-9.9l0,0
		c5.5,0,9.9,4.4,9.9,9.9v9.4C704.3,178.4,699.9,182.8,694.4,182.8z"/>
	<g transform="translate(-0.5 -0.5)">
		<text transform="matrix(1 0 0 1 664.8883 136.4001)" class="st4"><tspan x="0" y="0" class="st5 st6">Distribution</tspan><tspan x="15.7" y="14.4" class="st5 st6">fitting</tspan></text>
	</g>
	<path pointer-events="stroke" class="st7" d="M744.6,159.5h20c6.7,0,12.8-1.7,18.5-5.2l37.7-22.8c5.7-3.5,11.9-5.2,18.5-5.2h20"/>
	<path pointer-events="stroke" class="st9" d="M443.6,236.7h30h450.1h30"/>
	<path pointer-events="stroke" class="st13" d="M744.6,175.6h20c6.7,0,12.8-1.7,18.5-5.2l37.7-22.8c5.7-3.5,11.9-5.2,18.5-5.2h20"/>
	<path pointer-events="stroke" class="st13" d="M721,88.6h20c6.7,0,12.7,1.9,18.2,5.7l61.9,42.5c5.5,3.8,11.6,5.7,18.2,5.7h20"/>
	<path pointer-events="all" class="st12" d="M744.6,182.8L744.6,182.8c-5.5,0-9.9-4.4-9.9-9.9v-9.4c0-5.5,4.4-9.9,9.9-9.9l0,0
		c5.5,0,9.9,4.4,9.9,9.9v9.4C754.4,178.4,750,182.8,744.6,182.8z"/>
	<g transform="translate(-0.5 -0.5)">
		<text transform="matrix(1 0 0 1 735.469 136.4003)" class="st4"><tspan x="0" y="0" class="st5 st6">FDR</tspan><tspan x="-5.7" y="14.4" class="st5 st6">control</tspan></text>
	</g>
	<path pointer-events="all" class="st12" d="M434.6,236.7L434.6,236.7c0-5,4-9,9-9l0,0c5,0,9,4,9,9l0,0c0,5-4,9-9,9l0,0
		C438.6,245.7,434.6,241.7,434.6,236.7z"/>
	<g transform="translate(-0.5 -0.5)">
		<text transform="matrix(1 0 0 1 423.191 208.6998)" class="st4"><tspan x="0" y="0" class="st5 st6">Isobaric</tspan><tspan x="-2.3" y="14.4" class="st5 st6">Analyzer</tspan></text>
	</g>
	<path pointer-events="stroke" class="st7" d="M48.2,260.6h30l57.2-0.1h30"/>
	<path pointer-events="stroke" class="st9" d="M48.2,275.7h30l57.2,0.9h30"/>
	<path pointer-events="stroke" class="st0" d="M48.2,290.8h72.3c6.7,0,10,2.1,10,6.2v3.1c0,2.1,3.3,3.1,10,3.1l303.1-0.1"/>
	<path pointer-events="all" class="st11" d="M48.4,296.7L48.4,296.7c-5.5,0-9.9-4.4-9.9-9.9v-22.2c0-5.5,4.4-9.9,9.9-9.9l0,0
		c5.5,0,9.9,4.4,9.9,9.9v22.2C58.3,292.3,53.8,296.7,48.4,296.7z"/>
	<path pointer-events="stroke" class="st7" d="M859.4,126.3h20c6.7,0,13-1.5,19-4.4l67.2-32.8c6-2.9,12.3-4.4,19-4.4h20"/>
	<path pointer-events="stroke" class="st7" d="M721,72.5h20c6.7,0,12.7,1.9,18.2,5.7l61.9,42.5c5.5,3.8,11.6,5.7,18.2,5.7h20"/>
	<path pointer-events="stroke" class="st9" d="M859.4,142.4h20c6.7,0,11.1,3.1,13.4,9.4l27.5,75.6c2.3,6.3,6.8,9.4,13.4,9.4h20"/>
	<path pointer-events="all" class="st14" d="M859.4,149.7L859.4,149.7c-5.5,0-9.9-4.4-9.9-9.9v-9.4c0-5.5,4.4-9.9,9.9-9.9l0,0
		c5.5,0,9.9,4.4,9.9,9.9v9.4C869.3,145.2,864.8,149.7,859.4,149.7z"/>
	<g transform="translate(-0.5 -0.5)">
		<text transform="matrix(1 0 0 1 849.9138 102.6001)" class="st4"><tspan x="0" y="0" class="st5 st6">Mod.</tspan><tspan x="-16.3" y="14.4" class="st5 st6">localization</tspan></text>
	</g>
	<path pointer-events="all" class="st12" d="M726.9,95.8H715c-8,0-14.6-6.5-14.6-14.6l0,0c0-8,6.5-14.6,14.6-14.6h11.9
		c8,0,14.6,6.5,14.6,14.6l0,0C741.5,89.3,735,95.8,726.9,95.8z"/>
	<g transform="translate(-0.5 -0.5)">
		<text transform="matrix(1 0 0 1 674.9854 61.7001)" class="st5 st6">Percolator + FDR</text>
	</g>
	<path pointer-events="stroke" class="st0" d="M279.2,154.7h43.3c6.7,0,10.5,3.3,11.6,9.9l20.8,126.3c1.1,6.6,5,10,11.6,10.1
		l77.1,2.2"/>
	<path pointer-events="stroke" class="st0" d="M855.4,303.2h30h89.1h30"/>
	<path pointer-events="all" class="st1" d="M311.9,383.3v-12.6c0-6.9-3.4-10.4-10.4-10.4H189.3c-6.9,0-10.4,3.4-10.4,10.4v12.6"/>
	<path pointer-events="none" class="st15" d="M311.6,382.7l-1.1-16.8l-4.5-6.3l-5.8,0.7L183.1,360l-4.4,6.6l-1,15"/>
	<path pointer-events="none" class="st16" d="M311.9,383.3c-0.6-3.3-0.4-6.1,0-12.6 M311.9,383.3c-0.6-4.4,0.2-9.8,0-12.6
		 M311.9,370.7c-1.8-7-4.4-8.7-10.4-10.4 M311.9,370.7c-0.4-9.1-4.5-9.5-10.4-10.4 M301.6,360.3c-32.8,0.9-68.1-0.6-112.3,0
		 M301.6,360.3c-37.6,1-74.7,1.1-112.3,0 M189.3,360.3c-6.1,1-10.3,1.5-10.4,10.4 M189.3,360.3c-7.6,0.2-8.5,2.4-10.4,10.4
		 M178.9,370.7c0,3.7,1.2,10,0,12.6 M178.9,370.7c-0.5,2.1,0.5,4.8,0,12.6"/>
	<path pointer-events="none" class="st16" d="M178.9,383.3c-0.5,30.1-1.7,59,0,105.6 M178.9,383.3c-1.3,31.8-1.5,62.3,0,105.6
		 M178.9,489c-0.3,5.4,5,9.2,10.4,10.4 M178.9,489c0.6,6,5.3,12.6,10.4,10.4 M189.3,499.3c45.3,1.7,87.7-0.9,112.3,0 M189.3,499.3
		c33.2-1.9,66.4-0.5,112.3,0 M301.6,499.3c6.9,1.3,9.7-2.5,10.4-10.4 M301.6,499.3c8.3-0.7,10.1-2.6,10.4-10.4 M311.9,489
		c-0.1-29.9,0-60.6,0-105.6 M311.9,489c-0.3-36.7,0.8-74.1,0-105.6"/>
	<path pointer-events="none" class="st16" d="M178.9,383.3c37.8,0.4,74.6-0.9,133,0 M178.9,383.3c39.3,0.9,78.8-0.2,133,0"/>
	<g pointer-events="none">
		<text transform="matrix(1 0 0 1 223.566 376.3027)" class="st17 st6">Legend</text>
	</g>
	<path pointer-events="none" class="st18" d="M192.4,447.9c8.1-1.4,19.3,1.5,33.2,0 M192.4,447.9c13.1,0.4,24.8,0.5,33.2,0"/>
	<path pointer-events="none" class="st19" d="M192.4,423.8c11,1.8,21,0.9,33.2,0 M192.4,423.8c8,0.4,17.1-0.2,33.2,0"/>
	<path pointer-events="none" class="st20" d="M192.4,400.3c10,1.1,19.1,0.4,34,0 M192.4,400.3c9.9,1.1,21.1-0.3,34,0"/>
	<g transform="translate(-0.5 -0.5)">
		<text transform="matrix(1 0 0 1 236.0302 404.4013)" class="st5 st6">DDA-LFQ</text>
	</g>
	<g transform="translate(-0.5 -0.5)">
		<text transform="matrix(1 0 0 1 237.3632 427.8616)" class="st5 st6">DDA-ISO</text>
	</g>
	<g transform="translate(-0.5 -0.5)">
		<text transform="matrix(1 0 0 1 238.6962 452.0457)" class="st5 st6">DIA-LFQ</text>
		<g transform="translate(-0.5 -0.5)">
			<text transform="matrix(1 0 0 1 233.4663 476.376)" class="st5 st6">Parallel step</text>
		</g>
	</g>
	<path pointer-events="none" class="st9" d="M953.7,236.7h30h-2h30"/>
	<path pointer-events="none" class="st9" d="M1011.7,236.7h30h-3h30"/>
	<path pointer-events="none" class="st12" d="M953.7,245.7L953.7,245.7c-5,0-9-4-9-9l0,0c0-5,4-9,9-9l0,0c5,0,9,4,9,9l0,0
		C962.7,241.7,958.7,245.7,953.7,245.7z"/>
	<g transform="translate(-0.5 -0.5)">
		<text transform="matrix(1 0 0 1 927.8563 223.1703)" class="st5 st6">IDMapper</text>
	</g>
	<path pointer-events="none" class="st11" d="M1011.7,245.7L1011.7,245.7c-5,0-9-4-9-9l0,0c0-5,4-9,9-9l0,0c5,0,9,4,9,9l0,0
		C1020.7,241.7,1016.7,245.7,1011.7,245.7z"/>
	<g transform="translate(-0.5 -0.5)">
		<text transform="matrix(1 0 0 1 993.1893 208.7)" class="st4"><tspan x="0" y="0" class="st5 st6">Protein</tspan><tspan x="-5.7" y="14.4" class="st5 st6">inference</tspan></text>
	</g>
	<path pointer-events="none" class="st7" d="M1004.5,84.7h30c6.7,0,10,3.4,10,10V198c0,6.7,3.3,10,10,10h173.7"/>
	<path pointer-events="none" class="st9" d="M1068.7,236.7h16.8c6.7,0,10-2.6,10-8v-4c0-2.7,3.3-4,10-4l122.6-0.1"/>
	<path pointer-events="none" class="st7" d="M1004.5,84.7h29.1c6.7,0,10-3.3,10-10V46.5c0-6.7,3.3-10,10-10h174.8"/>
	<g transform="translate(-0.5 -0.5)">
		<text transform="matrix(1 0 0 1 0.5 367.7023)" class="st4"><tspan x="0" y="0" class="st21 st6">nf-core/quantms v1.1</tspan><tspan x="0" y="28.8" class="st5 st6">Example analysis pathways</tspan></text>
	</g>
	<path pointer-events="none" class="st12" d="M279.4,160.6L279.4,160.6c-5.5,0-9.9-4.4-9.9-9.9v-22.2c0-5.5,4.4-9.9,9.9-9.9l0,0
		c5.5,0,9.9,4.4,9.9,9.9v22.2C289.3,156.1,284.8,160.6,279.4,160.6z"/>
	<g transform="translate(-0.5 -0.5)">
		<text transform="matrix(1 0 0 1 263.3669 101.1001)" class="st4"><tspan x="0" y="0" class="st5 st6">mzML</tspan><tspan x="-6" y="14.4" class="st5 st6">indexing</tspan></text>
	</g>
	<path pointer-events="none" class="st0" d="M443.6,303.2h30h143.9h30"/>
	<path pointer-events="none" class="st11" d="M304.8,312.2h-50.9c-5,0-9-4-9-9l0,0c0-5,4-9,9-9h50.9c5,0,9,4,9,9l0,0
		C313.8,308.2,309.8,312.2,304.8,312.2z"/>
	<g transform="translate(-0.5 -0.5)">
		<text transform="matrix(1 0 0 1 263.8727 326.8996)" class="st4"><tspan x="0" y="0" class="st5 st6">DIA-NN </tspan><tspan x="-24.7" y="14.4" class="st5 st6">insilico lib. predict</tspan></text>
	</g>
	<path pointer-events="none" class="st0" d="M647.5,303.2h30h147.9h30"/>
	<path pointer-events="none" class="st12" d="M447.3,312.2h-20c-5,0-9-4-9-9l0,0c0-5,4-9,9-9h20c5,0,9,4,9,9l0,0
		C456.3,308.2,452.3,312.2,447.3,312.2z"/>
	<g transform="translate(-0.5 -0.5)">
		<text transform="matrix(1 0 0 1 418.884 360.654)" class="st4"><tspan x="0" y="0" class="st5 st6">DIA-NN</tspan><tspan x="-9.7" y="14.4" class="st5 st6">preanalysis</tspan></text>
	</g>
	<path pointer-events="none" class="st11" d="M596.3,312.2h-41.8c-5,0-9-4-9-9l0,0c0-5,4-9,9-9h41.8c5,0,9,4,9,9l0,0
		C605.3,308.2,601.3,312.2,596.3,312.2z"/>
	<g transform="translate(-0.5 -0.5)">
		<text transform="matrix(1 0 0 1 555.2838 326.9003)" class="st4"><tspan x="0" y="0" class="st5 st6">DIA-NN</tspan><tspan x="-26" y="14.4" class="st5 st6">empirical lib. gen.</tspan></text>
	</g>
	<path pointer-events="none" class="st22" d="M165.4,283.8L165.4,283.8c-5.5,0-9.9-4.4-9.9-9.9v-9.4c0-5.5,4.4-9.9,9.9-9.9l0,0
		c5.5,0,9.9,4.4,9.9,9.9v9.4C175.3,279.4,170.8,283.8,165.4,283.8z"/>
	<g transform="translate(-0.5 -0.5)">
		<text transform="matrix(1 0 0 1 155.224 237.2)" class="st4"><tspan x="0" y="0" class="st5 st6">Add</tspan><tspan x="-8.3" y="14.4" class="st5 st6">decoys</tspan></text>
	</g>
	<path pointer-events="none" class="st7" d="M1004.5,84.7h30c6.7,0,10,3.4,10,10v14.7c0,6.7,3.3,10,10,10l173.9,0.1"/>
	<path pointer-events="none" class="st8" d="M1068.7,236.7v-91.2c0-6.7,3.3-10,10-10l149.6,0.1"/>
	<path pointer-events="none" class="st9" d="M1068.7,236.7v-91.2c0-6.7,3.3-10,10-10l149.6,0.1"/>
	<path pointer-events="none" class="st23" d="M1004.5,303.2h108c6.7,0,10-3.3,10-10V62.5c0-6.7,3.3-10,10-10h95.9"/>
	<path pointer-events="none" class="st11" d="M1027.5,93.7h-46c-5,0-9-4-9-9l0,0c0-5,4-9,9-9h46c5,0,9,4,9,9l0,0
		C1036.5,89.7,1032.5,93.7,1027.5,93.7z"/>
	<g transform="translate(-0.5 -0.5)">
		<text transform="matrix(1 0 0 1 977.2687 55.8001)" class="st4"><tspan x="0" y="0" class="st5 st6">Proteomics</tspan><tspan x="18.3" y="14.4" class="st5 st6">LFQ</tspan></text>
	</g>
	<path pointer-events="none" class="st11" d="M1228.4,142.8L1228.4,142.8c-5.5,0-9.9-4.4-9.9-9.9v-9.4c0-5.5,4.4-9.9,9.9-9.9l0,0
		c5.5,0,9.9,4.4,9.9,9.9v9.4C1238.3,138.4,1233.8,142.8,1228.4,142.8z"/>
	<g transform="translate(-0.5 -0.5)">
		<text transform="matrix(1 0 0 1 1212.501 110.7023)" class="st5 st6">mzTab</text>
	</g>
	<path pointer-events="none" class="st11" d="M1068.7,245.7L1068.7,245.7c-5,0-9-4-9-9l0,0c0-5,4-9,9-9l0,0c5,0,9,4,9,9l0,0
		C1077.7,241.7,1073.7,245.7,1068.7,245.7z"/>
	<g transform="translate(-0.5 -0.5)">
		<text transform="matrix(1 0 0 1 1050.1892 258.064)" class="st4"><tspan x="0" y="0" class="st5 st6">Protein</tspan><tspan x="-7" y="14.4" class="st5 st6">Quantifier</tspan></text>
	</g>
	<path pointer-events="none" class="st0" d="M1004.5,303.2h108c6.7,0,10-3.3,10-10V62.5c0-6.7,3.3-10,10-10h95.9"/>
	<path pointer-events="none" class="st11" d="M1228.4,59.8L1228.4,59.8c-5.5,0-9.9-4.4-9.9-9.9v-9.4c0-5.5,4.4-9.9,9.9-9.9l0,0
		c5.5,0,9.9,4.4,9.9,9.9V50C1238.3,55.4,1233.8,59.8,1228.4,59.8z"/>
	<g transform="translate(-0.5 -0.5)">
		<text transform="matrix(1 0 0 1 1216.7256 27.7023)" class="st5 st6">Triqler</text>
	</g>
	<path pointer-events="none" class="st0" d="M1004.5,303.2h108c6.7,0,10-3.3,10-10v-49.9c0-6.7,3.3-10,10-10h95.7"/>
	<path pointer-events="none" class="st11" d="M1228.4,241.7L1228.4,241.7c-5.5,0-9.9-4.4-9.9-9.9v-22.2c0-5.5,4.4-9.9,9.9-9.9l0,0
		c5.5,0,9.9,4.4,9.9,9.9v22.2C1238.3,237.3,1233.8,241.7,1228.4,241.7z"/>
	<g transform="translate(-0.5 -0.5)">
		<text transform="matrix(1 0 0 1 1211.499 196.7023)" class="st5 st6">MSstats</text>
	</g>
	<path pointer-events="none" class="st11" d="M1027.5,312.2h-46c-5,0-9-4-9-9l0,0c0-5,4-9,9-9h46c5,0,9,4,9,9l0,0
		C1036.5,308.1,1032.5,312.2,1027.5,312.2z"/>
	<g transform="translate(-0.5 -0.5)">
		<text transform="matrix(1 0 0 1 986.6115 326.8999)" class="st4"><tspan x="0" y="0" class="st5 st6">DIA-NN</tspan><tspan x="-4" y="14.4" class="st5 st6">summary</tspan></text>
	</g>
	<path pointer-events="stroke" class="st0" d="M339.5,302.7l36.4-0.6c3.1,0,5.5-2.1,7.3-6.1l10.7-24.1c1.8-4,4.2-6.1,7.3-6.2
		l19.5-0.7"/>
	<path pointer-events="stroke" class="st0" d="M448.9,265.6l19.5,0.7c3.1,0.1,5.5,2.2,7.3,6.2l10.7,24.1c1.8,4,4.2,6.1,7.3,6.1
		l36.4,0.6"/>
	<g transform="translate(-0.5 -0.5)">
		<text transform="matrix(1 0 0 1 693.1339 361.1944)" class="st4"><tspan x="0" y="0" class="st5 st6">DIA-NN</tspan><tspan x="-40.4" y="14.4" class="st5 st6">individual final analysis</tspan></text>
	</g>
	<path pointer-events="stroke" class="st0" d="M605.3,303.4l36.4-0.6c3.1,0,5.5-2.1,7.3-6.1l10.7-24.1c1.8-4,4.2-6.1,7.3-6.2
		l19.5-0.7"/>
</g>
<path class="st24" d="M0,0"/>
<path class="st4" d="M0,0"/>
<path pointer-events="none" class="st12" d="M447.3,273.2h-20c-5,0-9-4-9-9l0,0c0-5,4-9,9-9h20c5,0,9,4,9,9l0,0
	C456.3,269.2,452.3,273.2,447.3,273.2z"/>
<rect x="386.3" y="249.3" class="st25" width="100.6" height="95.4"/>
<rect x="392.7" y="314.9" class="st1" width="86.7" height="23"/>
<text transform="matrix(1 0 0 1 425.1731 323.5172)" class="st5 st26">Job n</text>
<text transform="matrix(1 0 0 1 413.7731 335.5172)" class="st5 st26">In Parallel</text>
<rect x="403.9" y="274.8" class="st1" width="65.4" height="26.4"/>
<text transform="matrix(1 0 0 1 425.7574 283.3742)" class="st5 st26">Job 1</text>
<text transform="matrix(1 0 0 1 426.5574 289.3742)" class="st5 st6">......</text>
<g>
	<g>
		<defs>
			<rect id="SVGID_1_" y="27.1" width="35" height="37.5"/>
		</defs>
		<clipPath id="SVGID_2_">
			<use xlink:href="#SVGID_1_"  style="overflow:visible;"/>
		</clipPath>
		<g transform="translate(-395 -198)" class="st27">
			<path class="st28" d="M398,225.9h17.4l11.2,11.2v25.3H398V225.9z"/>
			<path class="st29" d="M395.5,244.2c0-1,0.8-1.8,1.8-1.8h30.2c1,0,1.8,0.8,1.8,1.8v7.4c0,1-0.8,1.8-1.8,1.8h-30.2
				c-1,0-1.8-0.8-1.8-1.8V244.2z"/>
			<text transform="matrix(1 0 0 1 401.0742 250.4081)" class="st15 st5 st30">mzML</text>
			<path class="st29" d="M415.5,236.7v-10.7l11.1,10.7H415.5z"/>
		</g>
	</g>
</g>
<g>
	<g>
		<defs>
			<rect id="SVGID_3_" y="119.1" width="35" height="37.5"/>
		</defs>
		<clipPath id="SVGID_4_">
			<use xlink:href="#SVGID_3_"  style="overflow:visible;"/>
		</clipPath>
		<g transform="translate(-395 -198)" class="st31">
			<path class="st28" d="M398,318h17.4l11.2,11.2v25.3H398V318z"/>
			<path class="st29" d="M395.5,336.3c0-1,0.8-1.8,1.8-1.8h30.2c1,0,1.8,0.8,1.8,1.8v7.4c0,1-0.8,1.8-1.8,1.8h-30.2
				c-1,0-1.8-0.8-1.8-1.8V336.3z"/>
			<text transform="matrix(1 0 0 1 405.7471 342.457)" class="st15 st5 st30">raw</text>
			<path class="st29" d="M415.5,328.7V318l11.1,10.7H415.5z"/>
		</g>
	</g>
</g>
<g>
	<g>
		<defs>
			<rect id="SVGID_5_" y="256" width="35" height="37.5"/>
		</defs>
		<clipPath id="SVGID_6_">
			<use xlink:href="#SVGID_5_"  style="overflow:visible;"/>
		</clipPath>
		<g transform="translate(-395 -198)" class="st32">
			<path class="st28" d="M398,454.9h17.4l11.2,11.2v25.3H398V454.9z"/>
			<path class="st29" d="M395.5,473.2c0-1,0.8-1.8,1.8-1.8h30.2c1,0,1.8,0.8,1.8,1.8v7.4c0,1-0.8,1.8-1.8,1.8h-30.2
				c-1,0-1.8-0.8-1.8-1.8V473.2z"/>
			<text transform="matrix(1 0 0 1 403.6936 479.4068)" class="st15 st5 st30">fasta</text>
			<path class="st29" d="M415.5,465.7v-10.7l11.1,10.7H415.5z"/>
		</g>
	</g>
</g>
<g>
	<g>
		<defs>
			<rect id="SVGID_7_" x="1248.4" y="31.8" width="25" height="26.8"/>
		</defs>
		<clipPath id="SVGID_8_">
			<use xlink:href="#SVGID_7_"  style="overflow:visible;"/>
		</clipPath>
		<g transform="translate(-395 -198)" class="st33">
			<path class="st28" d="M1645.6,230.4h12.4l8,8v18h-20.4V230.4z"/>
			<path class="st29" d="M1643.8,243.5c0-0.7,0.6-1.3,1.3-1.3h21.6c0.7,0,1.3,0.6,1.3,1.3v5.3c0,0.7-0.6,1.3-1.3,1.3h-21.6
				c-0.7,0-1.3-0.6-1.3-1.3V243.5z"/>
			<text transform="matrix(1 0 0 1 1652.1426 247.9196)" class="st15 st5 st34">tsv</text>
			<path class="st29" d="M1658.1,238.1v-7.7l7.9,7.7H1658.1z"/>
		</g>
	</g>
</g>
<g>
	<g>
		<defs>
			<rect id="SVGID_9_" x="1248.4" y="115.2" width="25" height="26.3"/>
		</defs>
		<clipPath id="SVGID_10_">
			<use xlink:href="#SVGID_9_"  style="overflow:visible;"/>
		</clipPath>
		<g transform="translate(-394 -198)" class="st35">
			<path class="st28" d="M1644.8,313.8h12.2l7.8,7.8v17.7h-20V313.8z"/>
			<path class="st29" d="M1643,326.6c0-0.7,0.6-1.3,1.3-1.3h21.2c0.7,0,1.3,0.6,1.3,1.3v5.2c0,0.7-0.6,1.3-1.3,1.3h-21.2
				c-0.7,0-1.3-0.6-1.3-1.3V326.6z"/>
			<text transform="matrix(1 0 0 1 1646.1141 330.9249)" class="st15 st5 st36">mzTab</text>
			<path class="st29" d="M1657,321.3v-7.5l7.8,7.5H1657z"/>
		</g>
	</g>
</g>
<g>
	<g>
		<defs>
			<rect id="SVGID_11_" x="1248.4" y="207.2" width="25" height="26.8"/>
		</defs>
		<clipPath id="SVGID_12_">
			<use xlink:href="#SVGID_11_"  style="overflow:visible;"/>
		</clipPath>
		<g transform="translate(-395 -198)" class="st37">
			<path class="st28" d="M1645.6,405.8h12.4l8,8v18h-20.4V405.8z"/>
			<path class="st29" d="M1643.8,418.9c0-0.7,0.6-1.3,1.3-1.3h21.6c0.7,0,1.3,0.6,1.3,1.3v5.3c0,0.7-0.6,1.3-1.3,1.3h-21.6
				c-0.7,0-1.3-0.6-1.3-1.3V418.9z"/>
			<text transform="matrix(1 0 0 1 1652.1426 423.3196)" class="st15 st5 st34">tsv</text>
			<path class="st29" d="M1658.1,413.5v-7.7l7.9,7.7H1658.1z"/>
		</g>
	</g>
</g>
<path pointer-events="none" class="st12" d="M734.2,311.7h-41.8c-5,0-9-4-9-9l0,0c0-5,4-9,9-9h41.8c5,0,9,4,9,9l0,0
	C743.2,307.7,739.2,311.7,734.2,311.7z"/>
<rect x="646.2" y="249.3" class="st25" width="140.5" height="95.4"/>
<path pointer-events="none" class="st12" d="M734.2,274.6h-41.8c-5,0-9-4-9-9l0,0c0-5,4-9,9-9h41.8c5,0,9,4,9,9l0,0
	C743.2,270.6,739.2,274.6,734.2,274.6z"/>
<text transform="matrix(1 0 0 1 699.9999 285.0002)" class="st5 st26">Job 1</text>
<text transform="matrix(1 0 0 1 700.7999 291.0002)" class="st5 st6">......</text>
<text transform="matrix(1 0 0 1 697.7684 323.5168)" class="st5 st26">Job n</text>
<text transform="matrix(1 0 0 1 665.2527 335.5168)" class="st5 st26">        In Parallel</text>
<path pointer-events="none" class="st12" d="M209,481.6L209,481.6c-5,0-9-4-9-9l0,0c0-5,4-9,9-9l0,0c5,0,9,4,9,9l0,0
	C218,477.6,214,481.6,209,481.6z"/>
</svg>
