<?xml version="1.0" encoding="utf-8"?>
<!-- Generator: Adobe Illustrator 24.0.1, SVG Export Plug-In . SVG Version: 6.00 Build 0)  -->
<svg version="1.1" id="图层_1" xmlns="http://www.w3.org/2000/svg" xmlns:xlink="http://www.w3.org/1999/xlink" x="0px" y="0px"
	 viewBox="0 0 1283 569.4" style="enable-background:new 0 0 1283 569.4;" xml:space="preserve">
<style type="text/css">
	.st0{fill:none;stroke:#CDA2BE;stroke-width:0.5;stroke-linecap:round;stroke-linejoin:round;stroke-miterlimit:10;}
	.st1{fill:none;stroke:#53A567;stroke-width:10;stroke-miterlimit:10;}
	.st2{fill:none;}
	.st3{fill:none;stroke:#9673A6;stroke-linecap:round;stroke-linejoin:round;stroke-miterlimit:10;stroke-dasharray:3,3;}
	.st4{font-family:'ArialMT';}
	.st5{font-size:12.8756px;}
	.st6{fill:none;stroke:#56A8CB;stroke-width:10;stroke-miterlimit:10;}
	.st7{fill:none;stroke:#FFFFFF;stroke-width:13;stroke-miterlimit:10;}
	.st8{fill:none;stroke:#DA291C;stroke-width:11;stroke-miterlimit:10;}
	.st9{fill:none;stroke:#E1D5E7;stroke-width:0.5;stroke-linecap:round;stroke-linejoin:round;stroke-miterlimit:10;}
	.st10{fill:#FFFFFF;stroke:#000000;}
	.st11{fill:#FFBE7A;stroke:#000000;}
	.st12{fill:none;stroke:#DA291C;stroke-width:10;stroke-miterlimit:10;}
	.st13{fill:#FFBE7A;stroke:#000000;stroke-width:1.5;stroke-dasharray:4.5,4.5;}
	.st14{fill:#FFFFFF;}
	.st15{fill:none;stroke:#000000;stroke-linecap:round;stroke-linejoin:round;stroke-miterlimit:10;stroke-dasharray:3,3;}
	.st16{font-family:'Arial-BoldMT';}
	.st17{fill:none;stroke:#53A567;stroke-width:10;stroke-linecap:round;stroke-linejoin:round;stroke-miterlimit:10;}
	.st18{fill:none;stroke:#DA291C;stroke-width:11;stroke-linecap:round;stroke-linejoin:round;stroke-miterlimit:10;}
	.st19{fill:none;stroke:#56A8CB;stroke-width:10;stroke-linecap:round;stroke-linejoin:round;stroke-miterlimit:10;}
	.st20{font-family:'ArialNarrow-Bold';}
	.st21{fill:#FFFFFF;stroke:#000000;stroke-dasharray:3,3;}
	.st22{fill:none;stroke:#FFFFFF;stroke-width:12;stroke-miterlimit:10;}
	.st23{fill:none;stroke:#CDA2BE;stroke-linecap:round;stroke-linejoin:round;stroke-miterlimit:10;stroke-dasharray:3,3;}
	.st24{font-size:10.7297px;}
	.st25{clip-path:url(#SVGID_2_);}
	.st26{fill-rule:evenodd;clip-rule:evenodd;fill:#FFFFFF;stroke:#2F528F;stroke-width:1.3333;stroke-miterlimit:8;}
	.st27{fill-rule:evenodd;clip-rule:evenodd;stroke:#2F528F;stroke-width:1.3333;stroke-miterlimit:8;}
	.st28{font-size:8.5714px;}
	.st29{clip-path:url(#SVGID_4_);}
	.st30{clip-path:url(#SVGID_6_);}
	.st31{clip-path:url(#SVGID_8_);}
	.st32{font-size:6.1224px;}
	.st33{clip-path:url(#SVGID_10_);}
	.st34{font-size:6.4378px;}
	.st35{clip-path:url(#SVGID_12_);}
	.st36{font-size:6.5691px;}
	.st37{enable-background:new    ;}
	.st38{letter-spacing:34.3;}
</style>
<path class="st0" d="M404.7,113.4c7.8-9.3,13.7-15.5,26.3-32.4"/>
<path class="st0" d="M412,152.4c19.5-23.6,38.3-48.8,84.6-104.5"/>
<path pointer-events="stroke" class="st1" d="M740.2,310.8l19.3-0.6c2.8,0.1,7.4,8.6,7.2,17.8l7.3,25.9c3.4-0.6,7.7,0,10.4,0
	l30.2,0.7"/>
<g>
	<rect x="404.5" y="48.9" pointer-events="all" class="st2" width="103" height="169.5"/>
	<path pointer-events="all" class="st0" d="M404.7,48.7L404.7,48.7 M404.7,48.7L404.7,48.7 M404.5,55.6c2.7-2.6,4.1-5.5,5.3-6.4
		 M404.5,55.6c2.1-2.9,4.4-5.2,5.3-6.4 M404.2,62.4c4.6-4.4,5.7-6.2,11.1-13.7 M404.2,62.4c3.2-4.3,5.5-8.4,11.1-13.7 M404.6,68.4
		c5.3-5,11.3-13.9,15.8-19.4 M404.6,68.4c4.7-6.7,10.2-13.2,15.8-19.4 M404.3,75.3c9.3-10.2,14-17.6,21.6-26.7 M404.3,75.3
		c0.9-1.9,10-12.3,21.6-26.7 M404.7,81.3c8-13.1,21.6-23.2,26.3-32.4 M404.7,81.3c7.8-9.3,13.7-15.5,26.3-32.4 M404.5,88.2
		c10-11.1,20.6-26.1,32.1-39.7 M404.5,88.2c11.2-13.3,21.4-26.6,32.1-39.7 M404.2,95c12.5-10.4,18.8-24.4,37.4-46.1 M404.6,101.2
		c13.2-17.5,28.4-34.7,42-51.8 M404.6,101.2c9.1-10.6,18.1-21.2,42-51.8 M404.3,108c19.1-25.3,39.3-48.3,47.9-59.1 M404.3,108
		c9.6-13.4,19.4-25,47.9-59.1 M404.7,114c16.8-22.5,35.9-42,52.5-64.8 M404.7,114c13.4-17.1,26.6-33.7,52.5-64.8 M404.5,120.9
		c10.9-15.5,23.7-29.3,58.4-72.1 M404.5,120.9c20.9-26.3,39.9-51.1,58.4-72.1 M404.2,127.8c16.9-18.1,32.1-39.6,63.6-78.5
		 M404.2,127.8c13.3-16.7,27.4-32.2,63.6-78.5 M404.6,133.9c24.3-27.5,46.6-56,68.9-85.1 M404.6,133.9
		c18.9-22.1,37.8-47.5,68.9-85.1 M404.3,140.8c29.4-36.9,56.5-72.5,74.1-91.5 M404.3,140.8c24.6-29.1,48-59.7,74.1-91.5
		 M404.7,146.8c21.1-23.1,39.1-48.5,79.4-98 M404.7,146.8c26.5-31.7,52.7-61.8,79.4-98 M404.5,153.6c31.1-40.3,63.6-78.4,84.6-104.5
		 M404.5,153.6c19.5-23.6,38.3-48.8,84.6-104.5 M404.2,160.5c19.5-27,44.6-52.9,90.5-111.8 M404.2,160.5
		c23.6-29.1,48-60.3,90.5-111.8 M404.6,166.5c34.3-38.3,66.2-77.7,95.1-117.4 M404.6,166.5c26-33.2,52.4-64.7,95.1-117.4
		 M404.3,173.4c24.8-29.4,46.4-56.9,101-124.7 M404.3,173.4c24-30.9,47.2-60.6,101-124.7 M404.7,179.5
		C444.9,127.7,484.9,78.6,509,50.7 M404.7,179.5c22.2-27.7,43.6-53.3,104.3-128.8 M404.5,186.4c37-45.8,76.4-90.9,105-129.6
		 M404.5,186.4c24.3-28.2,47-56,105-129.6 M404.2,193.2c21.8-26.3,46.6-53.4,105-129.6 M404.2,193.2c27-34,54.6-66,105-129.6
		 M404.6,199.2c38.7-51,79.6-98.8,104.3-128.8 M404.6,199.2c36.5-45.2,73.6-89.9,104.3-128.8 M404.3,206.1
		c28.9-36.8,60.5-72.2,105-129.6 M404.3,206.1c29.3-38.9,59.9-76.3,105-129.6 M404.7,212.2c27-35.7,57.6-71.9,104.3-128.8
		 M404.7,212.2c22.8-25.4,44.5-53.4,104.3-128.8 M404.5,219.1c20.3-27.9,46.6-54.8,105-129.6 M404.5,219.1
		c25.8-31.9,52.5-64.3,105-129.6 M410.1,218.6c31.2-34.9,60.5-71.4,99.1-122.3 M410.1,218.6c33.1-40,64.2-80.4,99.1-122.3
		 M415.1,219c22.7-28.3,47.2-58.6,93.8-115.8 M415.1,219c25.2-32.9,50.5-64.3,93.8-115.8 M420.8,218.5c22.7-25.9,42-52.8,88.6-109.3
		 M420.8,218.5c26.2-33.2,55.1-66.8,88.6-109.3 M425.7,219c29.8-34.3,57.1-68.5,83.3-102.9 M425.7,219c19.8-23.1,37.6-48,83.3-102.9
		 M431.4,218.5c28.4-33.9,55.3-65.3,78.1-96.4 M431.4,218.5c23.7-28.3,46.8-55.9,78.1-96.4 M436.4,219c20.4-23.1,37-43.2,72.8-89.9
		 M436.4,219c27.4-33.5,53.5-67.1,72.8-89.9 M442,218.5c20.9-27.5,42.3-53,66.9-82.6 M442,218.5c17.1-22.5,33.4-42.9,66.9-82.6
		 M447,218.9c20-26.4,39.3-48.2,62.3-76.9 M447,218.9c14.9-18.9,31.6-36.8,62.3-76.9 M452.6,218.4c16-21,33.3-39.7,56.4-69.6
		 M452.6,218.4c20.8-24.8,40.3-50.1,56.4-69.6 M457.6,218.9c12.8-16.3,27-29.7,51.8-63.9 M457.6,218.9c10-13.4,22.6-26.8,51.8-63.9
		 M463.3,218.4c14.2-19.1,31-37.4,45.9-56.7 M463.3,218.4c17-22.9,36.6-44.3,45.9-56.7 M468.3,218.9c11.8-14.3,24.3-28.3,40.7-50.2
		 M468.3,218.9c14-17.4,26-32.9,40.7-50.2 M473.9,218.4c8.7-9.4,18.1-21.4,35.4-43.8 M473.9,218.4c9.8-12.1,21.6-26.5,35.4-43.8
		 M478.9,218.8c9.7-12.1,20.1-22.1,30.2-37.2 M478.9,218.8c7.5-10.4,14.8-20,30.2-37.2 M484.5,218.3c8.3-9,19.6-23.9,24.9-30.8
		 M484.5,218.3c7.4-9.3,14.2-17.6,24.9-30.8 M489.5,218.8c6-6.7,12.8-15.6,19.7-24.2 M489.5,218.8c7.5-8.7,13-17.6,19.7-24.2
		 M495.2,218.3c3.9-7.3,8.4-9.1,13.8-17 M495.2,218.3c3.6-5.3,6.9-10.5,13.8-17 M500.1,218.6c3-1.6,4.7-3.9,9.2-11.4 M500.1,218.6
		c3.5-4.3,6.8-8.7,9.2-11.4 M505.8,218.3c0.5-0.9,1.3-2.6,3.3-4.1 M505.8,218.3c0.8-1.3,2-2.6,3.3-4.1"/>
	<path pointer-events="all" class="st3" d="M404.5,48.9c29.2,1.1,58.4-2,103,0 M404.5,48.9c29.2,0,58,0.7,103,0 M404.5,48.9
		c29.2,0,58,0.7,103,0 M507.5,48.9c1,50.4,1.3,99.5,0,169.5 M507.5,48.9c0.8,48.6,0.9,97.4,0,169.5 M507.5,218.4
		c-31,0.5-59.8,2.1-103,0 M507.5,218.4c-39.6,1.3-81.9,0-103,0 M404.5,218.4c0.2-68.9,0.1-127.7,0-169.5 M404.5,218.4
		c1.7-50.1,0.7-97.9,0-169.5"/>
	<g transform="translate(-0.5 -0.5)">
		<text transform="matrix(0.932 0 0 1 409.1841 21.2311)" class="st4 st5">Search engines</text>
		<text transform="matrix(0.932 0 0 1 419.8096 35.6088)" class="st4 st5">(at least one)</text>
		<polygon class="st2" points="459.9,43.2 454.8,43.2 454.8,43.2 		"/>
	</g>
	<path pointer-events="stroke" class="st6" d="M165.4,295.5l104.1-0.9c6.7,0,10.7-3.5,12-10.6l23.9-123.8c1.4-7,5.4-10.5,12-10.5h15
		"/>
	<path pointer-events="stroke" class="st6" d="M279.2,149.6l62.3,0.2c6.7,0,12.8,1.9,18.5,5.7l32.7,28.3
		c5.6,3.8,19.9,25.5,26.6,25.5l39.1,1.6"/>
	<path pointer-events="stroke" class="st6" d="M458.4,72.5"/>
	<path pointer-events="stroke" class="st6" d="M279.2,149.6l68.3,0.2c6.7,0,12-2.8,16.1-8.5l41.1-60c0.4-0.5,5.2,2,5.4,2"/>
	<path pointer-events="stroke" class="st7" d="M279.2,165.8l78.3,0.1c6.7,0,12-2.9,16-8.6l26.1-37.6c4-5.7,12.1-26,18.8-26l37.8-0.3
		"/>
	<path pointer-events="stroke" class="st8" d="M279.2,165.8l65.3,1.1c6.7,0.1,11.5,3.3,14.5,9.8l44.1,103c3,6.4,10.6,5.8,17.3,5.8
		l24.2,0"/>
	<path pointer-events="stroke" class="st8" d="M165.4,312.7l114.1-0.9c6.7,0,10.8-3.5,12.3-10.5l26.5-122.9
		c1.5-7,5.4-10.8,11.8-11.5l9.5-1.1"/>
	<path pointer-events="stroke" class="st7" d="M279.2,182h41.3c6.7,0,10.7,3.5,12,10.5l23.9,123.8c1.4,7,5.3,11.1,11.9,12.2
		l75.2,12.8"/>
	<rect x="654.5" y="48.9" pointer-events="all" class="st2" width="132" height="169.5"/>
	<path pointer-events="all" class="st9" d="M654.7,48.7L654.7,48.7 M654.7,48.7L654.7,48.7 M654.4,55.6c1.2-2.6,2.3-3.6,5.3-6.4
		 M654.4,55.6c1.6-2.6,4.1-4.4,5.3-6.4 M654.2,62.4c5.4-4.9,8.5-9.1,11.2-13.7 M654.2,62.4c2.5-4.4,5.3-7.1,11.2-13.7 M654.6,68.4
		c5.5-7.8,9.5-13.3,15.8-19.4 M654.6,68.4c3.7-5.6,8.5-12.6,15.8-19.4 M654.3,75.3c5.7-4.3,8.2-9.1,21.7-26.7 M654.3,75.3
		c4.9-5.7,8.7-12.1,21.7-26.7 M654.7,81.4c7.8-9,15.7-18.1,26.3-32.4 M654.7,81.4C661.2,73.6,669,63.8,681,49 M654.4,88.3
		c12.1-12.8,22.1-25.8,32.2-39.7 M654.4,88.3c10.2-12.4,20.6-26.7,32.2-39.7 M654.2,95.2c10.1-9.9,17.6-20.3,37.4-46.1 M654.2,95.2
		c9.4-11.8,21.2-24.7,37.4-46.1 M654.6,101.2c16.4-16.8,29.8-36.3,42.6-52.7 M654.6,101.2C667,86.4,678.3,72,697.2,48.5 M654.3,108
		c12.8-16.5,28-31.8,47.9-59.1 M654.3,108c11.2-14.8,22.6-29,47.9-59.1 M654.7,114c17.3-22.6,38.6-47.9,52.5-64.8 M654.7,114
		c16.9-20.7,32.6-40.5,52.5-64.8 M654.5,120.9c18.4-21.8,37.3-45.8,58.4-72.1 M654.5,120.9c15.8-17.2,31-36.3,58.4-72.1
		 M654.2,127.8c23.1-31.3,45.9-59.1,63.6-78.5 M654.2,127.8c24.4-29,50.7-59.9,63.6-78.5 M654.6,133.9c23.4-26.2,45.8-54,68.9-85.1
		 M654.6,133.9c25.7-30.8,50.6-62.8,68.9-85.1 M654.3,140.8c15.7-20.5,33.5-42.5,74.2-91.5 M654.3,140.8
		c22.8-27.9,44.9-54.8,74.1-91.5 M654.7,146.8c29.8-34.3,58.8-70,79.4-98 M654.7,146.8c28.2-35.2,55.6-69.3,79.4-98 M654.5,153.6
		c30.1-35.9,59.8-74.1,84.6-104.5 M654.5,153.6c23-28.8,44.8-58.9,84.6-104.5 M654.2,160.5c35.6-42.2,69.6-84.7,90.5-111.8
		 M654.2,160.5C689,117.4,723,76.2,744.7,48.7 M654.6,166.6c21.8-22.4,39.8-48.7,95.1-117.4 M654.6,166.6
		c24-26.8,45.9-53.9,95.1-117.4 M654.3,173.5c27.3-34,52.9-63.7,101-124.7 M654.3,173.5c32.7-39.6,66.3-81,101-124.7 M654.7,179.5
		c24-27.5,45.9-58,105.6-130.4 M654.7,179.5c32.3-42,67.1-83,105.6-130.4 M654.5,186.4c36.1-44.2,72.4-86.7,111.5-137.7
		 M654.5,186.4C685,148.8,714.3,112,766,48.7 M654.2,193.2C699,139.3,741.3,81.6,771,49.1 M654.2,193.2
		c38.3-49.6,78.2-97.1,116.8-144.1 M654.6,199.2c24.6-35.6,54.2-67.5,122-150.6 M654.6,199.2c22.5-29.7,46.8-60,122-150.6
		 M654.3,206.1C699.3,150,742.1,95.7,781.6,49 M654.3,206.1C696.2,151.6,741,96.8,781.6,49 M654.7,212.2
		c44.8-53.1,88.5-107.8,131.9-162.8 M654.7,212.2c38.7-45.6,75.4-91.7,131.9-162.8 M654.5,219.1c44.1-53.2,86.9-106.8,132.5-163.6
		 M654.5,219.1c32.1-42.4,65.9-83.9,132.5-163.6 M660.1,218.6c34-42,68.1-85.2,126.6-156.3 M660.1,218.6
		c28.7-37.3,57.7-73.5,126.6-156.3 M665.1,219c39.8-52.1,83.5-105.6,121.4-149.8 M665.1,219C693,182.9,720,148.8,786.5,69.2
		 M670.7,218.5c46.8-54.5,94.4-114.1,116.2-143.2 M670.7,218.5c38.4-43.8,73.2-89.4,116.1-143.3 M675.7,219
		c22.2-29.5,45.1-56.4,110.9-136.9 M675.7,219c32.2-39.8,64-78.8,110.9-136.9 M681.4,218.5c34.3-42.6,72.2-86.1,105.6-130.4
		 M681.4,218.5c34.5-43.7,71-89.3,105.6-130.4 M686.3,219c35-40.6,67.6-83.5,100.4-123.9 M686.3,219c31-38.1,62.3-75.5,100.4-123.9
		 M692,218.5c22.1-24.7,43-53.2,94.5-116.6 M692,218.5c27.5-34.9,55.8-70.7,94.5-116.6 M697,218.9c28.3-37.8,58.5-74,89.9-110.9
		 M697,218.9c35.3-44.1,71.1-88.6,89.9-110.9 M702.6,218.4c23.5-29.4,49.4-62.2,84-103.6 M702.6,218.4c25-30.5,51-61.3,84-103.6
		 M707.6,218.9c34.3-40.7,65.1-76.1,79.4-98 M707.6,218.9c28.3-34.4,56.5-68.2,79.4-98 M713.3,218.4c19.4-26.7,43.9-53.3,73.5-90.7
		 M713.3,218.4c16.1-20.7,32.6-41.6,73.5-90.7 M718.2,218.9c24.1-26.9,47.2-57.4,68.2-84.2 M718.2,218.9
		c26.8-32,53.2-63.9,68.2-84.2 M723.9,218.4c13.5-17.5,26.5-33.3,63-77.8 M723.9,218.4c19.2-23.7,38-48.5,63-77.8 M728.9,218.8
		c21.2-24.2,42.9-51.6,57.7-71.2 M728.9,218.8c22.5-26.5,44.9-55.2,57.7-71.2 M734.5,218.3c23-27.8,42.8-53.5,52.5-64.8
		 M734.5,218.3c17.3-22.6,35.5-44.3,52.5-64.8 M739.5,218.8c10.4-14.3,21.5-26.6,47.2-58.3 M739.5,218.8
		c14.2-17,27.9-35.3,47.2-58.3 M745.2,218.3c9.9-13.7,21.9-25.9,41.3-51 M745.2,218.3c10.3-12.7,20.4-25.2,41.3-51 M750.1,218.8
		c12.8-19,29.4-35,36.7-45.4 M750.1,218.8c12.5-14.4,21.8-26.4,36.7-45.4 M755.8,218.3c11.2-12.9,21.2-23.3,30.8-38.1 M755.8,218.3
		c11-12.4,20-25.1,30.8-38.1 M760.8,218.6c11.3-14.3,19-26.2,26.3-32.4 M760.8,218.6c6.2-8.2,12-14.9,26.3-32.4 M765.8,219.1
		c8.9-8.8,16.3-21.5,21-26 M765.8,219.1c5.3-6.2,10-12.8,21-26 M771.4,218.6c1.7-4.6,5.3-9.1,15.1-18.7 M771.4,218.6
		c3.7-3.5,7.1-9,15.1-18.7 M776.4,219.1c4.4-3.8,8.8-9.8,10.5-13 M776.4,219.1c3.6-4.7,7.4-9.5,10.5-13 M782,218.6
		c1-1,2-3.4,4.6-5.7 M782,218.6c2.2-1.9,3.3-4.4,4.6-5.7"/>
	<path pointer-events="all" class="st3" d="M654.5,48.9c36.3,1.1,76.6,2.5,132,0 M654.5,48.9c46.1,1.6,94.2,1.6,132,0 M786.5,48.9
		c-0.5,58.7-1.3,112.3,0,169.5 M786.5,48.9c0.3,44.2-0.7,90.7,0,169.5 M786.5,218.4c-35,2.1-65,1.1-132,0 M786.5,218.4
		c-30.8-0.4-62.4-1.2-132,0 M654.5,218.4c1.5-48.6-1.6-97.5,0-169.5 M654.5,218.4c0.9-42,0.1-81.7,0-169.5"/>
	<g transform="translate(-0.5 -0.5)">
		<text transform="matrix(0.932 0 0 1 692.9385 29.3228)" class="st4 st5">Rescoring</text>
		<text transform="matrix(0.932 0 0 1 685.6387 44.774)" class="st4 st5">(exactly one)</text>
	</g>
	<path pointer-events="stroke" class="st6" d="M48.2,149.6h117"/>
	<path pointer-events="stroke" class="st8" d="M48.2,165.8l30.8,0.1l86.2-0.1"/>
	<path pointer-events="stroke" class="st1" d="M48.2,182h117"/>
	<path pointer-events="stroke" class="st6" d="M165.2,149.6h114"/>
	<path pointer-events="stroke" class="st8" d="M165.2,165.8h114"/>
	<path pointer-events="stroke" class="st1" d="M165.2,182h114"/>
	<path pointer-events="stroke" class="st6" d="M48.2,50.9L166.5,52c6.7,0.1,11.5,3.3,14.5,9.7l36,76.4c3,6.3,7.8,9.7,14.5,9.9
		l47.7,1.5"/>
	<path pointer-events="stroke" class="st8" d="M48.2,67.1l108.3,1c6.7,0.1,11.5,3.3,14.5,9.7l36,76.4c3,6.3,7.8,9.7,14.5,9.9
		l57.7,1.7"/>
	<path pointer-events="stroke" class="st1" d="M48.2,83.3l100.3,1.8c6.7,0.1,11.5,3.4,14.5,9.8l36.1,77.4c3,6.4,7.8,9.5,14.5,9.5
		h65.7"/>
	<path pointer-events="all" class="st10" d="M48.4,89.7L48.4,89.7c-5.5,0-9.9-4.7-9.9-10.6V55.2c0-5.9,4.4-10.6,9.9-10.6l0,0
		c5.5,0,9.9,4.7,9.9,10.6v23.8C58.3,85,53.8,89.7,48.4,89.7z"/>
	<path pointer-events="all" class="st10" d="M48.4,188.3L48.4,188.3c-5.5,0-9.9-4.7-9.9-10.6v-23.8c0-5.9,4.4-10.6,9.9-10.6l0,0
		c5.5,0,9.9,4.7,9.9,10.6v23.8C58.3,183.5,53.8,188.3,48.4,188.3z"/>
	<path pointer-events="all" class="st11" d="M165.4,188.3L165.4,188.3c-5.5,0-9.9-4.7-9.9-10.6v-23.8c0-5.9,4.4-10.6,9.9-10.6l0,0
		c5.5,0,9.9,4.7,9.9,10.6v23.8C175.3,183.5,170.8,188.3,165.4,188.3z"/>
	<g transform="translate(-0.5 -0.5)">
		<text transform="matrix(0.932 0 0 1 135.8687 203.4312)" class="st4 st5">ThermoRaw</text>
		<text transform="matrix(0.932 0 0 1 141.1685 218.8819)" class="st4 st5">FileParser</text>
	</g>
	<path pointer-events="stroke" class="st8" d="M279.2,165.8l63.3,0.1c6.7,0,12.8,2,18.3,6.1l31.9,32.3c5.5,4.1,11,17.1,20.7,18.3
		h45.8"/>
	<path pointer-events="stroke" class="st6" d="M453.7,82.1h30.8c6.5,1.9,20.3-0.3,24.5,1.4c1.5,0.6-0.8-1.4,0,0l33.7,61.2
		c5.1,4.6,11,6.9,17.7,6.9h20"/>
	<path pointer-events="stroke" class="st6" d="M458.4,210.9l25.1-1.6c10.3-3.6,25.6-27.8,41.1-45.2c4.9-5.5,16.8-8,16.8-8
		c6-3,12.4-4.5,19.1-4.5h20"/>
	<path pointer-events="stroke" class="st8" d="M459.3,222.6h27c24.4-7.1,62.5-59,55.2-49.3c-8.2,10.8,0,0,0,0c6-3,12.4-4.5,19.1-4.5
		h20"/>
	<path pointer-events="stroke" class="st8" d="M456.2,93.4l23.2-0.1c14.3,2.8,10.7-3.5,15.8,1.2l36.2,66.6c5.1,4.6,22.3,7.7,29,7.7
		h20"/>
	<path pointer-events="all" class="st11" d="M453.2,235L453.2,235c-5.5,0-9.9-4.7-9.9-10.6v-10.1c0-5.9,4.4-10.6,9.9-10.6l0,0
		c5.5,0,9.9,4.7,9.9,10.6v10.1C463.1,230.2,458.7,235,453.2,235z"/>
	<g transform="translate(-0.5 -0.5)">
		<text transform="matrix(0.932 0 0 1 434.2 197.0468)" class="st4 st5">Comet</text>
	</g>
	<path pointer-events="stroke" class="st6" d="M580.4,151.5h20c6.7,0,12.8-2,18.3-6l64-45.8c5.5-4,11.7-5.9,18.3-5.9h20"/>
	<path pointer-events="stroke" class="st12" d="M580.4,168.8h20c6.7,0,12.8,1.8,18.5,5.6l37,24.4c5.7,3.8,11.9,5.6,18.5,5.6h20"/>
	<path pointer-events="stroke" class="st6" d="M580.4,151.5h20c6.7,0,12.8,1.8,18.5,5.6l37,24.4c5.7,3.8,11.9,5.6,18.5,5.6h20"/>
	<path pointer-events="stroke" class="st12" d="M580.4,168.8h20c6.7,0,12.8-2,18.3-6l64-45.8c5.5-4,11.7-6,18.3-6h20"/>
	<path pointer-events="all" class="st13" d="M580.4,176.6L580.4,176.6c-5.5,0-9.9-4.7-9.9-10.6v-10.1c0-5.9,4.4-10.6,9.9-10.6l0,0
		c5.5,0,9.9,4.7,9.9,10.6V166C590.3,171.8,585.8,176.6,580.4,176.6z"/>
	<g transform="translate(-0.5 -0.5)">
		<text transform="matrix(0.932 0 0 1 544.8823 140.4473)" class="st4 st5">ConsensusID</text>
	</g>
	<path pointer-events="stroke" class="st6" d="M694.4,187.1h30h-9.9h30"/>
	<path pointer-events="stroke" class="st8" d="M694.4,204.4h30h-9.9h30"/>
	<path pointer-events="all" class="st11" d="M694.4,212.1L694.4,212.1c-5.5,0-9.9-4.7-9.9-10.6v-10.1c0-5.9,4.4-10.6,9.9-10.6l0,0
		c5.5,0,9.9,4.7,9.9,10.6v10.1C704.3,207.4,699.9,212.1,694.4,212.1z"/>
	<g transform="translate(-0.5 -0.5)">
		<text transform="matrix(0.932 0 0 1 664.8887 162.2828)" class="st4 st5">Distribution</text>
		<text transform="matrix(0.932 0 0 1 680.5879 177.733)" class="st4 st5">fitting</text>
	</g>
	<path pointer-events="stroke" class="st6" d="M744.6,187.1h20c6.7,0,12.8-1.8,18.5-5.6l37.7-24.5c5.7-3.8,11.9-5.6,18.5-5.6h20"/>
	<path pointer-events="stroke" class="st8" d="M444.6,285.4h26.7h450.1h32.3"/>
	<path pointer-events="stroke" class="st12" d="M744.6,204.4h20c6.7,0,12.8-1.8,18.5-5.6l37.7-24.5c5.7-3.8,11.9-5.6,18.5-5.6h20"/>
	<path pointer-events="stroke" class="st12" d="M721,111h20c6.7,0,12.7,2,18.2,6.1l61.9,45.6c5.5,4.1,11.6,6.1,18.2,6.1h20"/>
	<path pointer-events="all" class="st11" d="M744.6,212.1L744.6,212.1c-5.5,0-9.9-4.7-9.9-10.6v-10.1c0-5.9,4.4-10.6,9.9-10.6l0,0
		c5.5,0,9.9,4.7,9.9,10.6v10.1C754.4,207.4,750,212.1,744.6,212.1z"/>
	<g transform="translate(-0.5 -0.5)">
		<text transform="matrix(0.932 0 0 1 735.4688 162.2828)" class="st4 st5">FDR</text>
		<text transform="matrix(0.932 0 0 1 729.7686 177.7335)" class="st4 st5">control</text>
	</g>
	<path pointer-events="all" class="st11" d="M435.6,285.4L435.6,285.4c0-5.4,4-9.7,9-9.7l0,0c5,0,9,4.3,9,9.7l0,0c0,5.4-4,9.7-9,9.7
		l0,0C439.6,295.1,435.6,290.8,435.6,285.4z"/>
	<g transform="translate(-0.5 -0.5)">
		<text transform="matrix(0.932 0 0 1 423.1909 255.3846)" class="st4 st5">Isobaric</text>
		<text transform="matrix(0.932 0 0 1 420.3002 270.5453)" class="st4 st5">Analyzer</text>
	</g>
	<path pointer-events="stroke" class="st6" d="M48.2,295.6h30l57.2-0.1h30"/>
	<path pointer-events="stroke" class="st8" d="M48.2,311.8h30l57.2,1h30"/>
	<path pointer-events="stroke" class="st1" d="M48.2,328h72.3c6.7,0,10,2.3,10,6.7v3.3c0,2.3,3.5,15.9,10.2,15.9l312.1,0"/>
	<path pointer-events="all" class="st10" d="M48.4,334.3L48.4,334.3c-5.5,0-9.9-4.7-9.9-10.6v-23.8c0-5.9,4.4-10.6,9.9-10.6l0,0
		c5.5,0,9.9,4.7,9.9,10.6v23.8C58.3,329.6,53.8,334.3,48.4,334.3z"/>
	<path pointer-events="stroke" class="st6" d="M859.4,151.5h20c6.7,0,13-1.6,19-4.7l67.2-35.2c6-3.1,12.3-4.7,19-4.7h20"/>
	<path pointer-events="stroke" class="st6" d="M721,93.8h20c6.7,0,12.7,2,18.2,6.1l61.9,45.6c5.5,4.1,11.6,6.1,18.2,6.1h20"/>
	<path pointer-events="stroke" class="st8" d="M859.4,168.8h20c6.7,0,11.1,3.3,13.4,10.1l27.5,81.1c2.3,6.8,5.1,24.7,11.7,24.7
		l21.7,0.7"/>
	<path pointer-events="all" class="st13" d="M859.4,176.6L859.4,176.6c-5.5,0-9.9-4.7-9.9-10.6v-10.1c0-5.9,4.4-10.6,9.9-10.6l0,0
		c5.5,0,9.9,4.7,9.9,10.6V166C869.3,171.8,864.8,176.6,859.4,176.6z"/>
	<g transform="translate(-0.5 -0.5)">
		<text transform="matrix(0.932 0 0 1 849.9141 126.0162)" class="st4 st5">Mod.</text>
		<text transform="matrix(0.932 0 0 1 833.6143 141.4669)" class="st4 st5">localization</text>
	</g>
	<path pointer-events="all" class="st11" d="M726.9,118.8H715c-8,0-14.6-7-14.6-15.7l0,0c0-8.6,6.5-15.7,14.6-15.7h11.9
		c8,0,14.6,7,14.6,15.7l0,0C741.5,111.8,735,118.8,726.9,118.8z"/>
	<g transform="translate(-0.5 -0.5)">
		<text transform="matrix(0.932 0 0 1 674.9854 82.1314)" class="st4 st5">Percolator + FDR</text>
	</g>
	<path pointer-events="stroke" class="st1" d="M279.2,182h43.3c6.7,0,10.5,3.5,11.6,10.6l20.8,135.5c1.1,7.1,4.2,25.8,10.8,25.9
		l77.5-0.2"/>
	<path pointer-events="stroke" class="st1" d="M856.4,354h30l90.4,2.1h31.6"/>
	<path pointer-events="all" class="st2" d="M311.9,427.2v-13.5c0-7.4-3.4-11.2-10.4-11.2H189.3c-6.9,0-10.4,3.6-10.4,11.2v13.5"/>
	<path pointer-events="none" class="st14" d="M311.6,426.6l-1.1-18l-4.5-6.8l-5.8,0.8l-117.1-0.3l-4.4,7.1l-1,16.1"/>
	<path pointer-events="none" class="st15" d="M311.9,427.2c-0.6-3.5-0.4-6.5,0-13.5 M311.9,427.2c-0.6-4.7,0.2-10.5,0-13.5
		 M311.9,413.7c-1.8-7.5-4.4-9.3-10.4-11.2 M311.9,413.7c-0.4-9.8-4.5-10.2-10.4-11.2 M301.6,402.6c-32.8,1-68.1-0.6-112.3,0
		 M301.6,402.6c-37.6,1.1-74.7,1.2-112.3,0 M189.3,402.6c-6.1,1.1-10.3,1.6-10.4,11.2 M189.3,402.6c-7.6,0.2-8.5,2.6-10.4,11.2
		 M178.9,413.7c0,4,1.2,10.7,0,13.5 M178.9,413.7c-0.5,2.3,0.5,5.2,0,13.5"/>
	<path pointer-events="none" class="st15" d="M178.9,427.2c-0.5,32.3-1.7,63.3,0,113.3 M178.9,427.2c-1.3,34.1-1.5,66.8,0,113.3
		 M178.9,540.6c-0.3,5.8,5,9.9,10.4,11.2 M178.9,540.6c0.6,6.4,5.3,13.5,10.4,11.2 M189.3,551.7c45.3,1.8,87.7-1,112.3,0
		 M189.3,551.7c33.2-2,66.4-0.5,112.3,0 M301.6,551.7c6.9,1.4,9.7-2.7,10.4-11.2 M301.6,551.7c8.3-0.8,10.1-2.8,10.4-11.2
		 M311.9,540.6c-0.1-32.1,0-65,0-113.3 M311.9,540.6c-0.3-39.4,0.8-79.5,0-113.3"/>
	<path pointer-events="none" class="st15" d="M178.9,427.2c37.8,0.4,74.6-1,133,0 M178.9,427.2c39.3,1,78.8-0.2,133,0"/>
	<g pointer-events="none">
		<text transform="matrix(0.932 0 0 1 223.5659 419.7271)" class="st16 st5">Legend</text>
	</g>
	<path pointer-events="none" class="st17" d="M192.4,496.5c8.1-1.5,19.3,1.6,33.2,0 M192.4,496.5c13.1,0.4,24.8,0.5,33.2,0"/>
	<path pointer-events="none" class="st18" d="M192.4,470.7c11,1.9,21,1,33.2,0 M192.4,470.7c8,0.4,17.1-0.2,33.2,0"/>
	<path pointer-events="none" class="st19" d="M192.4,445.5c10,1.2,19.1,0.4,34,0 M192.4,445.5c9.9,1.2,21.1-0.3,34,0"/>
	<g transform="translate(-0.5 -0.5)">
		<text transform="matrix(0.932 0 0 1 236.0303 449.8394)" class="st4 st5">DDA-LFQ</text>
	</g>
	<g transform="translate(-0.5 -0.5)">
		<text transform="matrix(0.932 0 0 1 237.3633 475.0113)" class="st4 st5">DDA-ISO</text>
	</g>
	<g transform="translate(-0.5 -0.5)">
		<text transform="matrix(0.932 0 0 1 238.6963 500.9605)" class="st4 st5">DIA-LFQ</text>
		<g transform="translate(-0.5 -0.5)">
			<text transform="matrix(0.932 0 0 1 233.4663 527.0298)" class="st4 st5">Parallel step</text>
		</g>
	</g>
	<path pointer-events="none" class="st8" d="M953.7,285.4l27.6-0.7l0,0h30"/>
	<path pointer-events="none" class="st8" d="M1011.3,284.7l26.6,0.4l0,0h30"/>
	<path pointer-events="none" class="st11" d="M953.7,295L953.7,295c-5,0-9-4.3-9-9.7l0,0c0-5.4,4-9.7,9-9.7l0,0c5,0,9,4.3,9,9.7l0,0
		C962.7,290.7,958.7,295,953.7,295z"/>
	<g transform="translate(-0.5 -0.5)">
		<text transform="matrix(0.932 0 0 1 932.5004 268.4966)" class="st4 st5">IDMapper</text>
	</g>
	<path pointer-events="none" class="st10" d="M1011.3,294.3L1011.3,294.3c-5,0-9-4.3-9-9.7l0,0c0-5.4,4-9.7,9-9.7l0,0
		c5,0,9,4.3,9,9.7l0,0C1020.3,290,1016.3,294.3,1011.3,294.3z"/>
	<g transform="translate(-0.5 -0.5)">
		<text transform="matrix(0.932 0 0 1 999.3168 258.2403)" class="st4 st5">Protein</text>
		<text transform="matrix(0.932 0 0 1 993.1895 270.5452)" class="st4 st5">inference</text>
	</g>
	<path pointer-events="none" class="st6" d="M1004.5,106.8h30c6.7,0,10,3.6,10,10.7v110.8c0,7.2,3.3,10.7,10,10.7h173.7"/>
	<path pointer-events="none" class="st8" d="M1068.7,279.6h24.7c0,0,0-2.7,0-8.5l2.1-14.1c0-2.9,3.3-4.3,10-4.3l122.6-0.1"/>
	<path pointer-events="none" class="st6" d="M1004.5,106.8h29.1c6.7,0,10-3.5,10-10.7V65.9c0-7.2,3.3-10.7,10-10.7h174.8"/>
	<g transform="translate(-0.5 -0.5)">
		<text transform="matrix(0.932 0 0 1 0.5 410.4625)" class="st20 st5">nf-core/quantms v1.2</text>
		<text transform="matrix(0.932 0 0 1 0.5 441.3638)" class="st4 st5">Example analysis pathways</text>
	</g>
	<g transform="translate(-0.5 -0.5)">
		<text transform="matrix(0.932 0 0 1 263.3667 124.4068)" class="st4 st5">mzML</text>
		<text transform="matrix(0.932 0 0 1 257.3667 139.8575)" class="st4 st5">indexing</text>
	</g>
	<path pointer-events="none" class="st1" d="M443.2,353.8h27.3h143.9l42.7,0.7"/>
	<path pointer-events="none" class="st10" d="M304.7,363.5h-50.9c-5,0-9-4.3-9-9.7l0,0c0-5.4,4-9.7,9-9.7h50.9c5,0,9,4.3,9,9.7l0,0
		C313.7,359.2,309.7,363.5,304.7,363.5z"/>
	<g transform="translate(-0.5 -0.5)">
		<text transform="matrix(0.932 0 0 1 263.3667 379.0223)" class="st4 st5">DIA-NN </text>
		<text transform="matrix(0.932 0 0 1 238.6963 392.0903)" class="st4 st5">insilico lib. predict</text>
	</g>
	<path pointer-events="none" class="st1" d="M646.3,354.5l32-0.1h147.9l30.2-0.4"/>
	<path pointer-events="none" class="st11" d="M445.8,363.5h-20c-5,0-9-4.3-9-9.7l0,0c0-5.4,4-9.7,9-9.7h20c5,0,9,4.3,9,9.7l0,0
		C454.8,359.2,450.8,363.5,445.8,363.5z"/>
	<g transform="translate(-0.5 -0.5)">
		<text transform="matrix(0.932 0 0 1 407.1502 403.9023)" class="st4 st5">preanalysis</text>
	</g>
	<path pointer-events="none" class="st10" d="M596.3,363.5h-41.8c-5,0-9-4.3-9-9.7l0,0c0-5.4,4-9.7,9-9.7h41.8c5,0,9,4.3,9,9.7l0,0
		C605.3,359.2,601.3,363.5,596.3,363.5z"/>
	<g transform="translate(-0.5 -0.5)">
		<text transform="matrix(0.932 0 0 1 555.2837 379.0223)" class="st4 st5">DIA-NN</text>
		<text transform="matrix(0.932 0 0 1 529.2837 391.9883)" class="st4 st5">empirical lib. gen.</text>
	</g>
	<path pointer-events="none" class="st21" d="M165.4,320.5L165.4,320.5c-5.5,0-9.9-4.7-9.9-10.6v-10.1c0-5.9,4.4-10.6,9.9-10.6l0,0
		c5.5,0,9.9,4.7,9.9,10.6v10.1C175.3,315.8,170.8,320.5,165.4,320.5z"/>
	<g transform="translate(-0.5 -0.5)">
		<text transform="matrix(0.932 0 0 1 155.2241 270.4376)" class="st4 st5">Add</text>
		<text transform="matrix(0.932 0 0 1 146.9238 285.8882)" class="st4 st5">decoys</text>
	</g>
	<path pointer-events="none" class="st6" d="M1004.5,106.8h30c6.7,0,10,3.6,10,10.7v15.8c0,7.2,3.3,10.7,10,10.7l173.9,0.1"/>
	<path pointer-events="none" class="st7" d="M1068.7,269.9v-97.9c0-7.2,3.3-10.7,10-10.7l149.6,0.1"/>
	<path pointer-events="none" class="st8" d="M1068.7,269.9v-97.9c0-7.2,3.3-10.7,10-10.7l149.6,0.1"/>
	<path pointer-events="none" class="st22" d="M1008.4,356.2l104.1-14.9c6.7,0,10-3.5,10-10.7V83c0-7.2,3.3-10.7,10-10.7h95.9"/>
	<path pointer-events="none" class="st10" d="M1027.5,116.5h-46c-5,0-9-4.3-9-9.7l0,0c0-5.4,4-9.7,9-9.7h46c5,0,9,4.3,9,9.7l0,0
		C1036.5,112.2,1032.5,116.5,1027.5,116.5z"/>
	<g transform="translate(-0.5 -0.5)">
		<text transform="matrix(0.932 0 0 1 977.2686 75.8013)" class="st4 st5">Proteomics</text>
		<text transform="matrix(0.932 0 0 1 995.5684 91.252)" class="st4 st5">LFQ</text>
	</g>
	<path pointer-events="none" class="st10" d="M1228.4,169.2L1228.4,169.2c-5.5,0-9.9-4.7-9.9-10.6v-10.1c0-5.9,4.4-10.6,9.9-10.6
		l0,0c5.5,0,9.9,4.7,9.9,10.6v10.1C1238.3,164.5,1233.8,169.2,1228.4,169.2z"/>
	<g transform="translate(-0.5 -0.5)">
		<text transform="matrix(0.932 0 0 1 1212.501 134.7095)" class="st4 st5">mzTab</text>
	</g>
	<path pointer-events="none" class="st10" d="M1068.7,289.3L1068.7,289.3c-5,0-9-4.3-9-9.7l0,0c0-5.4,4-9.7,9-9.7l0,0
		c5,0,9,4.3,9,9.7l0,0C1077.7,285,1073.7,289.3,1068.7,289.3z"/>
	<g transform="translate(-0.5 -0.5)">
		<text transform="matrix(0.932 0 0 1 1050.1895 303.5927)" class="st4 st5">Protein</text>
		<text transform="matrix(0.932 0 0 1 1043.1895 317.1451)" class="st4 st5">Quantifier</text>
	</g>
	<path pointer-events="none" class="st1" d="M1004.6,356.2h113.6c6.7,0,4.3-18.4,4.3-25.6V83c0-7.2,3.3-10.7,10-10.7h95.9"/>
	<path pointer-events="none" class="st10" d="M1228.4,80.1L1228.4,80.1c-5.5,0-9.9-4.7-9.9-10.6V59.4c0-5.9,4.4-10.6,9.9-10.6l0,0
		c5.5,0,9.9,4.7,9.9,10.6v10.2C1238.3,75.4,1233.8,80.1,1228.4,80.1z"/>
	<g transform="translate(-0.5 -0.5)">
		<text transform="matrix(0.932 0 0 1 1216.7256 45.6529)" class="st4 st5">Triqler</text>
	</g>
	<path pointer-events="none" class="st1" d="M1004.6,356.2h113.6c5.7-7.3,4.3-18.4,4.3-25.6V277c0-7.2,3.3-10.7,10-10.7h95.7"/>
	<path pointer-events="none" class="st10" d="M1228.4,275.3L1228.4,275.3c-5.5,0-9.9-4.7-9.9-10.6v-23.8c0-5.9,4.4-10.6,9.9-10.6
		l0,0c5.5,0,9.9,4.7,9.9,10.6v23.8C1238.3,270.6,1233.8,275.3,1228.4,275.3z"/>
	<g transform="translate(-0.5 -0.5)">
		<text transform="matrix(0.932 0 0 1 1211.499 226.9849)" class="st4 st5">MSstats</text>
	</g>
	<path pointer-events="none" class="st10" d="M1027.5,363.5h-46c-5,0-9-4.3-9-9.7l0,0c0-5.4,4-9.7,9-9.7h46c5,0,9,4.3,9,9.7l0,0
		C1036.5,359.1,1032.5,363.5,1027.5,363.5z"/>
	<g transform="translate(-0.5 -0.5)">
		<text transform="matrix(0.932 0 0 1 987.4893 379.0222)" class="st4 st5">DIA-NN</text>
		<text transform="matrix(0.932 0 0 1 983.1998 391.9879)" class="st4 st5">summary</text>
	</g>
	<path pointer-events="stroke" class="st1" d="M338,354l36.4-0.6c4.6-13.3,7-15.5,8.8-19.8l7.3-20.8c0,0-3.1,0.1,0,0l27.1,0"/>
	<path pointer-events="stroke" class="st1" d="M446.1,312.7l26.7,0.6c3.1,0.1,6.2,1.5,8,5.8l5.6,15c1.8,4.3,6.2,19.8,9.3,19.8
		l37.8-0.2"/>
	<g transform="translate(-0.5 -0.5)">
		<text transform="matrix(0.932 0 0 1 697.7 414.6986)" class="st4 st5">DIA-NN</text>
		<text transform="matrix(0.932 0 0 1 652.7344 427.0914)" class="st4 st5">individual final analysis</text>
	</g>
	<path pointer-events="stroke" class="st1" d="M606.1,354.4l36.4-0.6c3.7-8,4.7-15.2,6.5-19.5l3.8-13.8c1.8-4.3,3.8-9,6.9-9.1
		l20.6-0.6"/>
	<g transform="translate(-0.5 -0.5)">
		<text transform="matrix(0.932 0 0 1 436.0838 64.1059)" class="st4 st5">MSGF+</text>
	</g>
	<path pointer-events="stroke" class="st8" d="M279.2,165.8l79.3-0.9c6.7-0.1,11.9-3,15.8-8.8l38.8-59c3.9-5.8-1.4-3.2,5.3-3.4
		l37.8-0.3"/>
	<path pointer-events="none" class="st11" d="M279.4,188.3L279.4,188.3c-5.5,0-9.9-4.7-9.9-10.6v-23.8c0-5.9,4.4-10.6,9.9-10.6l0,0
		c5.5,0,9.9,4.7,9.9,10.6v23.8C289.3,183.5,284.8,188.3,279.4,188.3z"/>
	<path pointer-events="all" class="st11" d="M453.2,100.5L453.2,100.5c-5.5,0-9.9-4.7-9.9-10.6V79.8c0-5.9,4.4-10.6,9.9-10.6l0,0
		c5.5,0,9.9,4.7,9.9,10.6V90C463.1,95.8,458.7,100.5,453.2,100.5z"/>
</g>
<path class="st1" d="M0,16"/>
<path d="M0,16"/>
<path pointer-events="none" class="st11" d="M446.6,322.4h-20c-5,0-9-4.3-9-9.7l0,0c0-5.4,4-9.7,9-9.7h20c5,0,9,4.3,9,9.7l0,0
	C455.6,318.1,451.6,322.4,446.6,322.4z"/>
<polygon class="st23" points="388.3,299.1 488.9,299.1 486.9,392.6 386.3,392.6 "/>
<rect x="392.7" y="353.8" class="st2" width="86.7" height="24.7"/>
<text transform="matrix(0.932 0 0 1 420.8 375.9656)" class="st4 st24">Job n</text>
<text transform="matrix(0.932 0 0 1 415.2999 385.8182)" class="st4 st24">In Parallel</text>
<rect x="403.9" y="310.8" class="st2" width="65.4" height="28.3"/>
<text transform="matrix(0.932 0 0 1 422.9001 334.6379)" class="st4 st24">Job 1</text>
<text transform="matrix(0.932 0 0 1 426.5576 339.144)" class="st4 st5">......</text>
<g>
	<g>
		<g>
			<defs>
				<rect id="SVGID_1_" x="-395" y="-139.7" width="35" height="37.5"/>
			</defs>
			<clipPath id="SVGID_2_">
				<use xlink:href="#SVGID_1_"  style="overflow:visible;"/>
			</clipPath>
			<g transform="translate(-395 -198)" class="st25">
				<path class="st26" d="M398,257.1h17.4l11.2,11.2v25.3H398V257.1z"/>
				<path class="st27" d="M395.5,275.4c0-1,0.8-1.8,1.8-1.8h30.2c1,0,1.8,0.8,1.8,1.8v7.4c0,1-0.8,1.8-1.8,1.8h-30.2
					c-1,0-1.8-0.8-1.8-1.8V275.4z"/>
				<text transform="matrix(1 0 0 1 401.0742 281.5916)" class="st14 st4 st28">mzML</text>
				<path class="st27" d="M415.5,267.9v-10.7l11.1,10.7H415.5z"/>
			</g>
		</g>
	</g>
</g>
<g>
	<g>
		<g>
			<defs>
				<rect id="SVGID_3_" x="-395" y="-47.7" width="35" height="37.5"/>
			</defs>
			<clipPath id="SVGID_4_">
				<use xlink:href="#SVGID_3_"  style="overflow:visible;"/>
			</clipPath>
			<g transform="translate(-395 -198)" class="st29">
				<path class="st26" d="M398,349.2h17.4l11.2,11.2v25.3H398V349.2z"/>
				<path class="st27" d="M395.5,367.5c0-1,0.8-1.8,1.8-1.8h30.2c1,0,1.8,0.8,1.8,1.8v7.4c0,1-0.8,1.8-1.8,1.8h-30.2
					c-1,0-1.8-0.8-1.8-1.8V367.5z"/>
				<text transform="matrix(1 0 0 1 405.7471 373.6404)" class="st14 st4 st28">raw</text>
				<path class="st27" d="M415.5,359.9v-10.7l11.1,10.7H415.5z"/>
			</g>
		</g>
	</g>
</g>
<g>
	<g>
		<g>
			<defs>
				<rect id="SVGID_5_" x="-395" y="89.2" width="35" height="37.5"/>
			</defs>
			<clipPath id="SVGID_6_">
				<use xlink:href="#SVGID_5_"  style="overflow:visible;"/>
			</clipPath>
			<g transform="translate(-395 -198)" class="st30">
				<path class="st26" d="M398,486.1h17.4l11.2,11.2v25.3H398V486.1z"/>
				<path class="st27" d="M395.5,504.4c0-1,0.8-1.8,1.8-1.8h30.2c1,0,1.8,0.8,1.8,1.8v7.4c0,1-0.8,1.8-1.8,1.8h-30.2
					c-1,0-1.8-0.8-1.8-1.8V504.4z"/>
				<text transform="matrix(1 0 0 1 403.6936 510.5903)" class="st14 st4 st28">fasta</text>
				<path class="st27" d="M415.5,496.9v-10.7l11.1,10.7H415.5z"/>
			</g>
		</g>
	</g>
</g>
<g>
	<g>
		<g>
			<defs>
				<rect id="SVGID_7_" x="853.4" y="-135" width="25" height="26.8"/>
			</defs>
			<clipPath id="SVGID_8_">
				<use xlink:href="#SVGID_7_"  style="overflow:visible;"/>
			</clipPath>
			<g transform="translate(-395 -198)" class="st31">
				<path class="st26" d="M1645.6,261.6h12.4l8,8v18h-20.4V261.6z"/>
				<path class="st27" d="M1643.8,274.7c0-0.7,0.6-1.3,1.3-1.3h21.6c0.7,0,1.3,0.6,1.3,1.3v5.3c0,0.7-0.6,1.3-1.3,1.3h-21.6
					c-0.7,0-1.3-0.6-1.3-1.3V274.7z"/>
				<text transform="matrix(1 0 0 1 1652.1426 279.1031)" class="st14 st4 st32">tsv</text>
				<path class="st27" d="M1658.1,269.3v-7.7l7.9,7.7H1658.1z"/>
			</g>
		</g>
	</g>
</g>
<g>
	<g>
		<g>
			<defs>
				<rect id="SVGID_9_" x="854.4" y="-72.9" width="25" height="28.2"/>
			</defs>
			<clipPath id="SVGID_10_">
				<use xlink:href="#SVGID_9_"  style="overflow:visible;"/>
			</clipPath>
			<g transform="translate(-394 -198)" class="st33">
				<path class="st26" d="M1644.8,338.2h12.2l7.8,8.4v19h-20V338.2z"/>
				<path class="st27" d="M1643,351.9c0-0.8,0.6-1.4,1.3-1.4h21.2c0.7,0,1.3,0.6,1.3,1.4v5.6c0,0.8-0.6,1.4-1.3,1.4h-21.2
					c-0.7,0-1.3-0.6-1.3-1.4V351.9z"/>
				<text transform="matrix(0.932 0 0 1 1646.1143 356.5904)" class="st14 st4 st34">mzTab</text>
				<path class="st27" d="M1657,352.5V345l7.8,7.5H1657z"/>
			</g>
		</g>
	</g>
</g>
<g>
	<g>
		<g>
			<defs>
				<rect id="SVGID_11_" x="853.4" y="25.8" width="25" height="28.8"/>
			</defs>
			<clipPath id="SVGID_12_">
				<use xlink:href="#SVGID_11_"  style="overflow:visible;"/>
			</clipPath>
			<g transform="translate(-395 -198)" class="st35">
				<path class="st26" d="M1645.6,436.9h12.4l8,8.6v19.3h-20.4V436.9z"/>
				<path class="st27" d="M1643.8,451c0-0.8,0.6-1.4,1.3-1.4h21.6c0.7,0,1.3,0.6,1.3,1.4v5.7c0,0.8-0.6,1.4-1.3,1.4h-21.6
					c-0.7,0-1.3-0.6-1.3-1.4V451z"/>
				<text transform="matrix(0.932 0 0 1 1652.1426 455.7271)" class="st14 st4 st36">tsv</text>
				<path class="st27" d="M1658.1,444.7V437l7.9,7.7H1658.1z"/>
			</g>
		</g>
	</g>
</g>
<path pointer-events="none" class="st11" d="M733.5,363.5h-41.8c-5,0-9-4.3-9-9.7l0,0c0-5.4,4-9.7,9-9.7h41.8c5,0,9,4.3,9,9.7l0,0
	C742.5,359.2,738.5,363.5,733.5,363.5z"/>
<rect x="646.2" y="294.6" class="st23" width="140.5" height="102.4"/>
<path pointer-events="none" class="st11" d="M731.2,320.5h-41.8c-5,0-9-4.3-9-9.7l0,0c0-5.4,4-9.7,9-9.7h41.8c5,0,9,4.3,9,9.7l0,0
	C740.2,316.2,736.2,320.5,731.2,320.5z"/>
<text transform="matrix(0.932 0 0 1 700 331.6336)" class="st4 st24">Job 1</text>
<text transform="matrix(0.932 0 0 1 700.7998 339.1444)" class="st4 st5">......</text>
<text transform="matrix(0.932 0 0 1 697.7686 375.9656)" class="st4 st24">Job n</text>
<text transform="matrix(0.932 0 0 1 667.8496 385.8185)" class="st4 st24">        In Parallel</text>
<path pointer-events="none" class="st11" d="M209,532.7L209,532.7c-5,0-9-4.3-9-9.7l0,0c0-5.4,4-9.7,9-9.7l0,0c5,0,9,4.3,9,9.7l0,0
	C218,528.4,214,532.7,209,532.7z"/>
<path pointer-events="stroke" class="st6" d="M452.8,128.3"/>
<line class="st6" x1="403.6" y1="80.9" x2="443.9" y2="81"/>
<path class="st0" d="M417.8,125.8c7.8-9.3,13.7-15.5,26.3-32.4"/>
<path class="st0" d="M423.5,127.3c7.8-9.3,13.7-15.5,26.3-32.4"/>
<path class="st0" d="M433,127.3c7.8-9.3,13.7-15.5,26.3-32.4"/>
<path class="st0" d="M429.9,125.8c7.8-9.3,13.7-15.5,26.3-32.4"/>
<path class="st0" d="M409.5,123c7.8-9.3,13.7-15.5,26.3-32.4"/>
<path class="st0" d="M405.2,119.3c7.8-9.3,13.7-15.5,26.3-32.4"/>
<path class="st0" d="M413.4,125.8c7.8-9.3,13.7-15.5,26.3-32.4"/>
<path class="st0" d="M439.5,127.3c7.8-9.3,13.7-15.5,26.3-32.4"/>
<path class="st0" d="M419.8,127.1c7.8-9.3,13.7-15.5,26.3-32.4"/>
<path class="st0" d="M406.7,120.8c7.8-9.3,13.7-15.5,26.3-32.4"/>
<path pointer-events="stroke" class="st6" d="M353.9,149c6.7,0.1,36.9-13.1,58.1-17.9l34.1-0.3"/>
<g transform="translate(-0.5 -0.5)">
	<text transform="matrix(0.932 0 0 1 405.4684 119.2566)" class="st37"><tspan x="0" y="0" class="st4 st5 st38">	</tspan><tspan x="38.6" y="0" class="st4 st5">Sage</tspan></text>
</g>
<path pointer-events="stroke" class="st6" d="M550.1,151.6c-6.7,0.1-28.3-19.1-93.2-19.1"/>
<path pointer-events="stroke" class="st8" d="M357.5,165.9l93.3-19.1"/>
<path pointer-events="stroke" class="st8" d="M452.6,147.5l91.8,21.2"/>
<path pointer-events="all" class="st11" d="M453.7,155L453.7,155c-5.5,0-9.9-4.7-9.9-10.6v-10.1c0-5.9,4.4-10.6,9.9-10.6l0,0
	c5.5,0,9.9,4.7,9.9,10.6v10.1C463.6,150.3,459.2,155,453.7,155z"/>
</svg>
